<svg id="Layer_1" data-name="Layer 1" xmlns="http://www.w3.org/2000/svg" viewBox="0 0 1288.64 377.971">
  <defs>
    <style>
      .cls-1 {
        fill: #4d575d;
      }

      .cls-2 {
        opacity: 0.75;
      }

      .cls-3 {
        fill: #fff;
      }
    </style>
  </defs>
  <title>bottom</title>
  <g>
    <g>
      <path class="cls-1" d="M331.773,143.152v-43.2q0-4.951,2.476-7.14a8.932,8.932,0,0,1,6.135-2.188h.431l22.674,1.148v4.161H340.814a4.278,4.278,0,0,0-2.619.682,2.3,2.3,0,0,0-1,1.363,13.572,13.572,0,0,0-.108,1.974v14.351l23.535.718v4.233l-23.535.718v23.176Z" transform="translate(-315.68 -81.015)"/>
      <path class="cls-1" d="M370.3,98.881V95.006q0-1.793,1.722-1.794h3.588q1.649,0,1.65,1.794v3.875a1.459,1.459,0,0,1-1.65,1.65h-3.588Q370.3,100.531,370.3,98.881Zm.717,44.271v-38.1h5.31v38.1Z" transform="translate(-315.68 -81.015)"/>
      <path class="cls-1" d="M385.155,143.152v-38.1h3.731l1.579,4.448a15.912,15.912,0,0,0,1.579-.9q1.362-.825,1.687-.969t1.542-.825a9.952,9.952,0,0,1,1.722-.825q.5-.144,1.65-.574a12.791,12.791,0,0,1,1.865-.574,22.165,22.165,0,0,1,4.019-.431,10.883,10.883,0,0,1,8.61,3.588,12.6,12.6,0,0,1,3.157,8.61v26.549h-5.31V116.6a6.871,6.871,0,0,0-1.794-5.13,6.287,6.287,0,0,0-4.592-1.758,22.876,22.876,0,0,0-5.238.573,26.344,26.344,0,0,0-3.911,1.185q-1.471.609-4.987,2.332v29.347Z" transform="translate(-315.68 -81.015)"/>
      <path class="cls-1" d="M425.122,137.161a26.625,26.625,0,0,1-1.83-6.1,41.6,41.6,0,0,1-.538-7.031A47.767,47.767,0,0,1,423.22,117a26.848,26.848,0,0,1,1.686-6.135q2.654-6.385,10.4-6.386a37.049,37.049,0,0,1,6.745.789,40.355,40.355,0,0,1,7.319,2.081V86.826h5.238v56.326h-3.8l-1.435-4.233A29.323,29.323,0,0,1,443.1,141.9a23.075,23.075,0,0,1-8,1.687,10.734,10.734,0,0,1-6.1-1.723A10.548,10.548,0,0,1,425.122,137.161Zm2.942-12.88q0,13.992,7.247,13.992,5.955,0,14.063-3.3v-23.32a55.779,55.779,0,0,0-14.063-1.865,5.879,5.879,0,0,0-5.489,3.085Q428.062,115.958,428.064,124.281Z" transform="translate(-315.68 -81.015)"/>
      <path class="cls-1" d="M497.3,143.511q-9.544,0-13.2-4.233t-3.659-15.211q0-10.979,3.659-15.176t13.2-4.2q9.542,0,13.131,4.27t3.587,15.319q0,11.051-3.587,15.14T497.3,143.511Zm-9.866-29.921a16.818,16.818,0,0,0-1.22,4.27,42.942,42.942,0,0,0-.466,7.067,31.1,31.1,0,0,0,.682,7.176,7.029,7.029,0,0,0,2.368,4.09,8.444,8.444,0,0,0,3.444,1.65,26.63,26.63,0,0,0,5.022.358,27.866,27.866,0,0,0,5.095-.358,7.728,7.728,0,0,0,3.444-1.687,7.221,7.221,0,0,0,2.26-4.09,35.225,35.225,0,0,0,.646-7.642,45.285,45.285,0,0,0-.538-7.821,7.756,7.756,0,0,0-2.117-4.413,6.955,6.955,0,0,0-3.408-1.829,27.167,27.167,0,0,0-4.987-.359,38.112,38.112,0,0,0-4.736.216,10.085,10.085,0,0,0-3.157,1A4.981,4.981,0,0,0,487.438,113.59Z" transform="translate(-315.68 -81.015)"/>
      <path class="cls-1" d="M521.2,131.6V105.052h5.31V131.6a6.866,6.866,0,0,0,1.794,5.131,6.281,6.281,0,0,0,4.592,1.758,22.773,22.773,0,0,0,5.238-.574,26.082,26.082,0,0,0,3.911-1.184q1.469-.609,4.987-2.332V105.052h5.31v38.1h-3.731l-1.579-4.448a16.019,16.019,0,0,0-1.579.9q-1.364.826-1.687.969t-1.542.825a9.886,9.886,0,0,1-1.722.825q-.5.145-1.65.574a12.717,12.717,0,0,1-1.865.573,22.174,22.174,0,0,1-4.019.431,10.88,10.88,0,0,1-8.61-3.587A12.587,12.587,0,0,1,521.2,131.6Z" transform="translate(-315.68 -81.015)"/>
      <path class="cls-1" d="M558.078,110.289v-4.018l7.1-1.292,1.292-10.619h4.018v10.619h11.122v5.31H570.491v19.23q0,4.377,1,6.063a4.692,4.692,0,0,0,3.085,2.188q5.882,1.507,6.386,1.507v3.8h-6.314q-9.472,0-9.472-13.562v-19.23Z" transform="translate(-315.68 -81.015)"/>
      <path class="cls-1" d="M606.008,143.152V86.9h5.31v22.6a15.912,15.912,0,0,0,1.579-.9q1.362-.825,1.687-.969t1.542-.825a9.952,9.952,0,0,1,1.722-.825q.5-.144,1.65-.574a12.791,12.791,0,0,1,1.865-.574,22.165,22.165,0,0,1,4.019-.431,10.883,10.883,0,0,1,8.61,3.588,12.6,12.6,0,0,1,3.157,8.61v26.549h-5.31V116.6a6.932,6.932,0,0,0-1.758-5.166,6.282,6.282,0,0,0-4.592-1.722,23.039,23.039,0,0,0-5.274.573,26.344,26.344,0,0,0-3.911,1.185q-1.471.609-4.987,2.332v29.347Z" transform="translate(-315.68 -81.015)"/>
      <path class="cls-1" d="M660.469,143.511q-9.544,0-13.2-4.233t-3.659-15.211q0-10.979,3.659-15.176t13.2-4.2q9.542,0,13.131,4.27t3.587,15.319q0,11.051-3.587,15.14T660.469,143.511ZM650.6,113.59a16.818,16.818,0,0,0-1.22,4.27,42.942,42.942,0,0,0-.466,7.067,31.1,31.1,0,0,0,.682,7.176,7.029,7.029,0,0,0,2.368,4.09,8.444,8.444,0,0,0,3.444,1.65,26.63,26.63,0,0,0,5.022.358,27.866,27.866,0,0,0,5.095-.358,7.728,7.728,0,0,0,3.444-1.687,7.221,7.221,0,0,0,2.26-4.09,35.225,35.225,0,0,0,.646-7.642,45.285,45.285,0,0,0-.538-7.821,7.756,7.756,0,0,0-2.117-4.413,6.955,6.955,0,0,0-3.408-1.829,27.167,27.167,0,0,0-4.987-.359,38.112,38.112,0,0,0-4.736.216,10.085,10.085,0,0,0-3.157,1A4.981,4.981,0,0,0,650.6,113.59Z" transform="translate(-315.68 -81.015)"/>
      <path class="cls-1" d="M680.057,105.052h5.812l11.265,30.279,9.9-30.279h5.74l-3.875,12.2,8.323,18.082,11.624-30.279h5.812l-14.566,38.1h-5.31L706.319,124.5l-6.243,18.656h-5.74Z" transform="translate(-315.68 -81.015)"/>
      <path class="cls-1" d="M755.469,105.052h5.812l11.265,30.279,9.9-30.279h5.74l-3.875,12.2,8.323,18.082,11.624-30.279h5.812l-14.566,38.1H790.2L781.731,124.5l-6.243,18.656h-5.74Z" transform="translate(-315.68 -81.015)"/>
      <path class="cls-1" d="M813.661,123.923a48.11,48.11,0,0,1,.861-10.153,10.505,10.505,0,0,1,3.121-5.812,11.252,11.252,0,0,1,5.023-2.583,34.449,34.449,0,0,1,7.175-.609,45.348,45.348,0,0,1,6.637.358,12.306,12.306,0,0,1,4.377,1.65,7.2,7.2,0,0,1,3.085,4.09,24,24,0,0,1,.933,7.391q0,8.755-9.83,8.754H818.971q0,6.674,1.507,8.934t5.74,2.26q13.058,0,17.938-.718V141.5a67.206,67.206,0,0,1-17.938,2.009q-7.248,0-9.9-4.161T813.661,123.923Zm5.31-2.153h16.073q4.521,0,4.521-3.516,0-5.524-1.615-6.853t-7.57-1.327q-7.391,0-8.826,1.507a8.17,8.17,0,0,0-2.3,4.735A49.314,49.314,0,0,0,818.971,121.769Z" transform="translate(-315.68 -81.015)"/>
      <path class="cls-1" d="M870.2,134.111a45.378,45.378,0,0,1-.933-10.045,46.585,46.585,0,0,1,.9-10.01,13.031,13.031,0,0,1,2.691-5.956,9.439,9.439,0,0,1,3.875-2.69,22.68,22.68,0,0,1,6.745-.718,90.5,90.5,0,0,1,14.709,1.866v3.874Q888.211,110,884.05,110a22.243,22.243,0,0,0-5.238.359,5.456,5.456,0,0,0-2.225,1.65q-2.009,2.512-2.009,11.444t1.614,11.839q1.614,2.906,5.633,2.906,6.743,0,14.135-.574l2.727-.215v4.019a66.712,66.712,0,0,1-16.862,2.08,15.18,15.18,0,0,1-4.987-.717,9.742,9.742,0,0,1-3.875-2.691A13.059,13.059,0,0,1,870.2,134.111Z" transform="translate(-315.68 -81.015)"/>
      <path class="cls-1" d="M905.648,106.486a71.091,71.091,0,0,1,18.8-2.152,11.143,11.143,0,0,1,7.713,2.727q3.049,2.728,3.05,8.323v27.769h-3.947L929.9,138.56l-1.076.5q-9.328,4.521-14.853,4.521a9.674,9.674,0,0,1-6.816-2.512,8.987,8.987,0,0,1-2.727-6.96v-4.377a9.478,9.478,0,0,1,2.547-6.96,9.377,9.377,0,0,1,7-2.583H929.9q.071-2.369.072-3.552a4.775,4.775,0,0,0-.072-1.256q0-5.883-6.17-5.884t-18.082.861Zm4.09,27.267q0,4.521,4.233,4.521a29.938,29.938,0,0,0,6.565-.933q3.983-.933,6.709-1.794l2.655-.934V124.352L913.971,125.5a4.459,4.459,0,0,0-3.193,1.507,4.873,4.873,0,0,0-1.041,3.157Z" transform="translate(-315.68 -81.015)"/>
      <path class="cls-1" d="M943.1,143.152v-38.1h3.731l1.579,4.448a15.912,15.912,0,0,0,1.579-.9q1.362-.825,1.687-.969t1.542-.825a9.952,9.952,0,0,1,1.722-.825q.5-.144,1.65-.574a12.791,12.791,0,0,1,1.865-.574,22.165,22.165,0,0,1,4.019-.431,10.883,10.883,0,0,1,8.61,3.588,12.6,12.6,0,0,1,3.157,8.61v26.549h-5.31V116.6a6.871,6.871,0,0,0-1.794-5.13,6.287,6.287,0,0,0-4.592-1.758,22.876,22.876,0,0,0-5.238.573,26.344,26.344,0,0,0-3.911,1.185q-1.471.609-4.987,2.332v29.347Z" transform="translate(-315.68 -81.015)"/>
      <path class="cls-1" d="M1000.074,143.152V86.9h5.31v22.6a15.912,15.912,0,0,0,1.579-.9q1.362-.825,1.687-.969t1.542-.825a9.952,9.952,0,0,1,1.722-.825q.5-.144,1.65-.574a12.791,12.791,0,0,1,1.865-.574,22.165,22.165,0,0,1,4.019-.431,10.883,10.883,0,0,1,8.61,3.588,12.6,12.6,0,0,1,3.157,8.61v26.549h-5.31V116.6a6.932,6.932,0,0,0-1.758-5.166,6.282,6.282,0,0,0-4.592-1.722,23.039,23.039,0,0,0-5.274.573,26.344,26.344,0,0,0-3.911,1.185q-1.471.609-4.987,2.332v29.347Z" transform="translate(-315.68 -81.015)"/>
      <path class="cls-1" d="M1037.673,123.923a48.11,48.11,0,0,1,.861-10.153,10.505,10.505,0,0,1,3.121-5.812,11.252,11.252,0,0,1,5.023-2.583,34.449,34.449,0,0,1,7.175-.609,45.348,45.348,0,0,1,6.637.358,12.306,12.306,0,0,1,4.377,1.65,7.2,7.2,0,0,1,3.085,4.09,24,24,0,0,1,.933,7.391q0,8.755-9.83,8.754h-16.073q0,6.674,1.507,8.934t5.74,2.26q13.058,0,17.938-.718V141.5a67.206,67.206,0,0,1-17.938,2.009q-7.248,0-9.9-4.161T1037.673,123.923Zm5.31-2.153h16.073q4.521,0,4.521-3.516,0-5.524-1.615-6.853t-7.57-1.327q-7.391,0-8.826,1.507a8.17,8.17,0,0,0-2.3,4.735A49.314,49.314,0,0,0,1042.983,121.769Z" transform="translate(-315.68 -81.015)"/>
      <path class="cls-1" d="M1076.06,129.591V86.97h5.31v42.621q0,4.378,1,6.063a4.694,4.694,0,0,0,3.085,2.188q5.882,1.506,6.386,1.507v3.8h-6.314Q1076.06,143.152,1076.06,129.591Z" transform="translate(-315.68 -81.015)"/>
      <path class="cls-1" d="M1096.868,162.525V105.052h3.8l1.363,4.233a29.272,29.272,0,0,1,6.314-2.979,23.4,23.4,0,0,1,8.037-1.686,10.742,10.742,0,0,1,6.1,1.722,10.6,10.6,0,0,1,3.875,4.664,32.592,32.592,0,0,1,2.368,12.916q0,14.351-6.027,18.153a10.993,10.993,0,0,1-5.919,1.65,44.559,44.559,0,0,1-14.746-2.87v21.669Zm19.3-24.108a5.878,5.878,0,0,0,5.489-3.086q1.758-3.083,1.758-11.408,0-13.992-7.247-13.992-6.028,0-14.136,3.3v23.319A55.955,55.955,0,0,0,1116.17,138.417Z" transform="translate(-315.68 -81.015)"/>
      <path class="cls-1" d="M1151.758,105.052h5.812l9.256,29.777a4.921,4.921,0,0,0,.968,1.865,7.977,7.977,0,0,0,.825.682,1.878,1.878,0,0,0,.718.323q.358.072.682.107a5.412,5.412,0,0,0,.61.036c.431-.1.741-.167.933-.216l10.907-32.575h5.956l-16.791,50.155-5.381,7.318h-3.3l6.745-19.373q-6.172,0-8.61-7.893Z" transform="translate(-315.68 -81.015)"/>
      <path class="cls-1" d="M1209.017,143.511q-9.544,0-13.2-4.233t-3.659-15.211q0-10.979,3.659-15.176t13.2-4.2q9.542,0,13.131,4.27t3.587,15.319q0,11.051-3.587,15.14T1209.017,143.511Zm-9.866-29.921a16.818,16.818,0,0,0-1.22,4.27,42.942,42.942,0,0,0-.466,7.067,31.1,31.1,0,0,0,.682,7.176,7.029,7.029,0,0,0,2.368,4.09,8.444,8.444,0,0,0,3.444,1.65,26.63,26.63,0,0,0,5.022.358,27.866,27.866,0,0,0,5.095-.358,7.728,7.728,0,0,0,3.444-1.687,7.221,7.221,0,0,0,2.26-4.09,35.225,35.225,0,0,0,.646-7.642,45.285,45.285,0,0,0-.538-7.821,7.756,7.756,0,0,0-2.117-4.413,6.955,6.955,0,0,0-3.408-1.829,27.167,27.167,0,0,0-4.987-.359,38.112,38.112,0,0,0-4.736.216,10.085,10.085,0,0,0-3.157,1A4.981,4.981,0,0,0,1199.151,113.59Z" transform="translate(-315.68 -81.015)"/>
      <path class="cls-1" d="M1232.911,131.6V105.052h5.31V131.6a6.866,6.866,0,0,0,1.794,5.131,6.281,6.281,0,0,0,4.592,1.758,22.773,22.773,0,0,0,5.238-.574,26.082,26.082,0,0,0,3.911-1.184q1.469-.609,4.987-2.332V105.052h5.31v38.1h-3.731l-1.579-4.448a16.019,16.019,0,0,0-1.579.9q-1.364.826-1.687.969t-1.542.825a9.886,9.886,0,0,1-1.722.825q-.5.145-1.65.574a12.717,12.717,0,0,1-1.865.573,22.174,22.174,0,0,1-4.019.431,10.88,10.88,0,0,1-8.61-3.587A12.587,12.587,0,0,1,1232.911,131.6Z" transform="translate(-315.68 -81.015)"/>
      <path class="cls-1" d="M1272.661,143.152v-38.1h3.731l1.579,4.808a49.935,49.935,0,0,1,6.889-3.768q1.434-.466,2.583-.825a19.644,19.644,0,0,1,5.525-.646,11.666,11.666,0,0,1,4.521.574v5.237a21.247,21.247,0,0,0-4.879-.431,25.081,25.081,0,0,0-5.632.574,23.178,23.178,0,0,0-3.947,1.22q-1.471.646-5.059,2.368v28.988Z" transform="translate(-315.68 -81.015)"/>
      <path class="cls-1" d="M1321.166,143.152V86.826h5.166v20.521a44.559,44.559,0,0,1,14.746-2.87,10.816,10.816,0,0,1,5.884,1.65,9.98,9.98,0,0,1,3.91,4.735,35.983,35.983,0,0,1,2.153,13.418,32.054,32.054,0,0,1-2.368,12.844,10.524,10.524,0,0,1-3.875,4.735,10.735,10.735,0,0,1-6.1,1.723,23.061,23.061,0,0,1-8-1.687,29.27,29.27,0,0,1-6.279-2.978l-1.435,4.233Zm19.3-4.879q7.247,0,7.247-13.992,0-8.323-1.758-11.409a5.881,5.881,0,0,0-5.489-3.085,55.78,55.78,0,0,0-14.064,1.865v23.32Q1334.511,138.273,1340.467,138.273Z" transform="translate(-315.68 -81.015)"/>
      <path class="cls-1" d="M1360.2,131.6V105.052h5.31V131.6a6.866,6.866,0,0,0,1.794,5.131,6.281,6.281,0,0,0,4.592,1.758,22.773,22.773,0,0,0,5.238-.574,26.082,26.082,0,0,0,3.911-1.184q1.469-.609,4.987-2.332V105.052h5.31v38.1h-3.731l-1.579-4.448a16.019,16.019,0,0,0-1.579.9q-1.364.826-1.687.969t-1.542.825a9.886,9.886,0,0,1-1.722.825q-.5.145-1.65.574a12.717,12.717,0,0,1-1.865.573,22.174,22.174,0,0,1-4.019.431,10.88,10.88,0,0,1-8.61-3.587A12.587,12.587,0,0,1,1360.2,131.6Z" transform="translate(-315.68 -81.015)"/>
      <path class="cls-1" d="M1398.514,117.465v-3.3q0-4.664,2.3-7.067t8.359-2.4q6.063,0,17.974,1.148v4.09h-18.728q-3.3,0-4.018,1.22a5.974,5.974,0,0,0-.574,3.014v3.3q0,2.871,1.363,3.516a7.342,7.342,0,0,0,3.229.574h11.337q4.521,0,6.924,2.547a9.381,9.381,0,0,1,2.4,6.709v3.517q0,5.31-2.583,7.247a10.959,10.959,0,0,1-6.745,1.937q-6.673,0-19.66-1.363V138.2h19.66c0-.047.131-.047.4,0a2.02,2.02,0,0,0,1-.144,10.485,10.485,0,0,0,1.184-.5q1.434-.716,1.435-3.229V130.81a4.264,4.264,0,0,0-.9-2.978,4.135,4.135,0,0,0-3.122-.969h-11.337q-5.238,0-7.57-2.009T1398.514,117.465Z" transform="translate(-315.68 -81.015)"/>
      <path class="cls-1" d="M1435.539,98.881V95.006q0-1.793,1.722-1.794h3.588q1.649,0,1.65,1.794v3.875a1.459,1.459,0,0,1-1.65,1.65h-3.588Q1435.538,100.531,1435.539,98.881Zm.717,44.271v-38.1h5.31v38.1Z" transform="translate(-315.68 -81.015)"/>
      <path class="cls-1" d="M1450.391,143.152v-38.1h3.731l1.579,4.448a15.912,15.912,0,0,0,1.579-.9q1.362-.825,1.687-.969t1.542-.825a9.952,9.952,0,0,1,1.722-.825q.5-.144,1.65-.574a12.791,12.791,0,0,1,1.865-.574,22.165,22.165,0,0,1,4.019-.431,10.883,10.883,0,0,1,8.61,3.588,12.6,12.6,0,0,1,3.157,8.61v26.549h-5.31V116.6a6.871,6.871,0,0,0-1.794-5.13,6.287,6.287,0,0,0-4.592-1.758,22.876,22.876,0,0,0-5.238.573,26.344,26.344,0,0,0-3.911,1.185q-1.471.609-4.987,2.332v29.347Z" transform="translate(-315.68 -81.015)"/>
      <path class="cls-1" d="M1487.989,123.923a48.11,48.11,0,0,1,.861-10.153,10.505,10.505,0,0,1,3.121-5.812,11.252,11.252,0,0,1,5.023-2.583,34.449,34.449,0,0,1,7.175-.609,45.348,45.348,0,0,1,6.637.358,12.306,12.306,0,0,1,4.377,1.65,7.2,7.2,0,0,1,3.085,4.09,24,24,0,0,1,.933,7.391q0,8.755-9.83,8.754H1493.3q0,6.674,1.507,8.934t5.74,2.26q13.058,0,17.938-.718V141.5a67.206,67.206,0,0,1-17.938,2.009q-7.248,0-9.9-4.161T1487.989,123.923Zm5.31-2.153h16.073q4.521,0,4.521-3.516,0-5.524-1.615-6.853t-7.57-1.327q-7.391,0-8.826,1.507a8.17,8.17,0,0,0-2.3,4.735A49.314,49.314,0,0,0,1493.3,121.769Z" transform="translate(-315.68 -81.015)"/>
      <path class="cls-1" d="M1524.942,117.465v-3.3q0-4.664,2.3-7.067t8.359-2.4q6.063,0,17.974,1.148v4.09h-18.728q-3.3,0-4.018,1.22a5.974,5.974,0,0,0-.574,3.014v3.3q0,2.871,1.363,3.516a7.342,7.342,0,0,0,3.229.574h11.337q4.521,0,6.924,2.547a9.381,9.381,0,0,1,2.4,6.709v3.517q0,5.31-2.583,7.247a10.959,10.959,0,0,1-6.745,1.937q-6.673,0-19.66-1.363V138.2h19.66c0-.047.131-.047.4,0a2.02,2.02,0,0,0,1-.144,10.485,10.485,0,0,0,1.184-.5q1.434-.716,1.435-3.229V130.81a4.264,4.264,0,0,0-.9-2.978,4.135,4.135,0,0,0-3.122-.969h-11.337q-5.238,0-7.57-2.009T1524.942,117.465Z" transform="translate(-315.68 -81.015)"/>
      <path class="cls-1" d="M1560.531,117.465v-3.3q0-4.664,2.3-7.067t8.359-2.4q6.063,0,17.974,1.148v4.09h-18.728q-3.3,0-4.018,1.22a5.974,5.974,0,0,0-.574,3.014v3.3q0,2.871,1.363,3.516a7.342,7.342,0,0,0,3.229.574h11.337q4.521,0,6.924,2.547a9.381,9.381,0,0,1,2.4,6.709v3.517q0,5.31-2.583,7.247a10.959,10.959,0,0,1-6.745,1.937q-6.673,0-19.66-1.363V138.2h19.66c0-.047.131-.047.4,0a2.02,2.02,0,0,0,1-.144,10.485,10.485,0,0,0,1.184-.5q1.434-.716,1.435-3.229V130.81a4.264,4.264,0,0,0-.9-2.978,4.135,4.135,0,0,0-3.122-.969h-11.337q-5.238,0-7.57-2.009T1560.531,117.465Z" transform="translate(-315.68 -81.015)"/>
    </g>
    <g class="cls-2">
      <path class="cls-1" d="M319.907,203.842a15.5,15.5,0,0,1-1.11-4.292,47.543,47.543,0,0,1-.341-6.128,44.189,44.189,0,0,1,.384-6.214,16.078,16.078,0,0,1,1.2-4.421,11.727,11.727,0,0,1,1.772-2.84,5.994,5.994,0,0,1,2.455-1.645,18.612,18.612,0,0,1,6.321-.9q5.594,0,7.857,1.708a9.109,9.109,0,0,1,3.118,4.741,32.026,32.026,0,0,1,1.067,8.712,44.3,44.3,0,0,1-.534,7.794,15.987,15.987,0,0,1-1.451,4.549,6.5,6.5,0,0,1-2.521,2.626,10.129,10.129,0,0,1-3.31,1.218,23.839,23.839,0,0,1-4.036.3,33.765,33.765,0,0,1-3.779-.171,13.345,13.345,0,0,1-2.946-.705,5.822,5.822,0,0,1-2.435-1.58A10.613,10.613,0,0,1,319.907,203.842Zm2.157-17.168q-.192,1.282-.32,2.989t-.128,4.826a34.038,34.038,0,0,0,.405,5.552,7.383,7.383,0,0,0,1.58,3.759,5.314,5.314,0,0,0,2.712,1.708,16.872,16.872,0,0,0,3.972.384,20.118,20.118,0,0,0,3.8-.277,6.817,6.817,0,0,0,2.477-1.024,4.752,4.752,0,0,0,1.708-2.157q1.2-2.818,1.2-8.969,0-6.7-1.025-9.011-.426-.981-.769-1.623a2.993,2.993,0,0,0-1.024-1.089,10.6,10.6,0,0,0-1.175-.684,4.74,4.74,0,0,0-1.452-.342q-.961-.105-1.6-.128c-.427-.014-1.04-.021-1.836-.021s-1.4.008-1.815.021-.939.058-1.58.128a5.013,5.013,0,0,0-1.474.342,9.411,9.411,0,0,0-1.2.684,3.175,3.175,0,0,0-1.047,1.089q-.363.64-.79,1.6A8.666,8.666,0,0,0,322.065,186.674Z" transform="translate(-315.68 -81.015)"/>
      <path class="cls-1" d="M347.112,220.412V186.2h2.264l.812,2.52a17.415,17.415,0,0,1,3.758-1.772,13.94,13.94,0,0,1,4.783-1,6.388,6.388,0,0,1,3.63,1.025,6.307,6.307,0,0,1,2.307,2.776,19.4,19.4,0,0,1,1.409,7.687q0,8.543-3.587,10.806a6.546,6.546,0,0,1-3.523.982,26.5,26.5,0,0,1-8.776-1.709v12.9Zm11.488-14.35a3.5,3.5,0,0,0,3.267-1.836q1.047-1.835,1.047-6.791,0-8.328-4.313-8.327a22.891,22.891,0,0,0-8.413,1.964v13.88A33.3,33.3,0,0,0,358.6,206.062Z" transform="translate(-315.68 -81.015)"/>
      <path class="cls-1" d="M368.21,189.321V186.93l4.228-.769.769-6.32H375.6v6.32h6.62v3.16H375.6v11.446a7.636,7.636,0,0,0,.6,3.608,2.8,2.8,0,0,0,1.836,1.3q3.5.9,3.8.9v2.264h-3.758q-5.638,0-5.638-8.071V189.321Z" transform="translate(-315.68 -81.015)"/>
      <path class="cls-1" d="M385.634,182.531v-2.307q0-1.066,1.024-1.067h2.136q.981,0,.982,1.067v2.307a.868.868,0,0,1-.982.982h-2.136Q385.633,183.514,385.634,182.531Zm.427,26.351V186.2h3.16v22.678Z" transform="translate(-315.68 -81.015)"/>
      <path class="cls-1" d="M394.474,208.882V186.2h2.221l.939,2.733q.256-.17,1.047-.619t1.11-.641c.213-.129.555-.306,1.024-.534a7.09,7.09,0,0,1,1.175-.47l1.067-.385a9.616,9.616,0,0,1,2.9-.342,7.615,7.615,0,0,1,3.587.9,5.3,5.3,0,0,1,2.435,2.435,13.918,13.918,0,0,1,9.14-3.332,6.711,6.711,0,0,1,5,2.051,7.193,7.193,0,0,1,2.007,5.253v15.631h-3.16V193.251a4.16,4.16,0,0,0-1.089-3.011,3.66,3.66,0,0,0-2.755-1.132,16.8,16.8,0,0,0-4.42.512,14.3,14.3,0,0,0-3.951,1.88v17.382h-3.16V193.251a4.16,4.16,0,0,0-1.089-3.011,3.634,3.634,0,0,0-2.733-1.132,12.68,12.68,0,0,0-3.032.342,15.532,15.532,0,0,0-2.156.661q-.769.321-2.947,1.389v17.382Z" transform="translate(-315.68 -81.015)"/>
      <path class="cls-1" d="M432.4,182.531v-2.307q0-1.066,1.024-1.067h2.136q.981,0,.982,1.067v2.307a.868.868,0,0,1-.982.982h-2.136Q432.4,183.514,432.4,182.531Zm.427,26.351V186.2h3.16v22.678Z" transform="translate(-315.68 -81.015)"/>
      <path class="cls-1" d="M439.956,189.364V186.2h16.912v3.16l-12.129,16.314h12.129v3.16H440.6v-3.16l12.343-16.314Z" transform="translate(-315.68 -81.015)"/>
      <path class="cls-1" d="M460.285,197.435a28.7,28.7,0,0,1,.512-6.043,6.248,6.248,0,0,1,1.858-3.459,6.692,6.692,0,0,1,2.989-1.537,20.431,20.431,0,0,1,4.271-.363,26.863,26.863,0,0,1,3.95.214,7.324,7.324,0,0,1,2.605.981,4.289,4.289,0,0,1,1.837,2.435,14.3,14.3,0,0,1,.555,4.4q0,5.21-5.851,5.21h-9.566q0,3.971.9,5.317t3.417,1.345a87.174,87.174,0,0,0,10.677-.427V207.9a40.026,40.026,0,0,1-10.677,1.2q-4.314,0-5.894-2.477T460.285,197.435Zm3.16-1.28h9.566q2.691,0,2.69-2.093,0-3.289-.961-4.079t-4.506-.79q-4.4,0-5.253.9a4.862,4.862,0,0,0-1.366,2.818A29.329,29.329,0,0,0,463.445,196.155Z" transform="translate(-315.68 -81.015)"/>
      <path class="cls-1" d="M492.144,186.2h3.46l5.509,17.724a2.935,2.935,0,0,0,.577,1.11,4.749,4.749,0,0,0,.49.405,1.122,1.122,0,0,0,.428.192c.142.028.277.05.405.064a3.2,3.2,0,0,0,.363.021c.256-.058.441-.1.555-.129l6.492-19.389h3.545l-9.994,29.853-3.2,4.355h-1.964l4.014-11.53q-3.672,0-5.124-4.7Z" transform="translate(-315.68 -81.015)"/>
      <path class="cls-1" d="M526.225,209.095q-5.681,0-7.858-2.52t-2.178-9.054q0-6.535,2.178-9.032t7.858-2.5q5.679,0,7.815,2.541t2.135,9.118q0,6.577-2.135,9.012T526.225,209.095Zm-5.872-17.809a9.961,9.961,0,0,0-.727,2.541,25.551,25.551,0,0,0-.277,4.207,18.535,18.535,0,0,0,.405,4.271,4.187,4.187,0,0,0,1.409,2.435,5.031,5.031,0,0,0,2.051.982,15.891,15.891,0,0,0,2.989.213,16.635,16.635,0,0,0,3.032-.213,4.6,4.6,0,0,0,2.05-1,4.3,4.3,0,0,0,1.346-2.435,21,21,0,0,0,.384-4.548,26.927,26.927,0,0,0-.32-4.655,4.619,4.619,0,0,0-1.26-2.627,4.139,4.139,0,0,0-2.028-1.089,16.25,16.25,0,0,0-2.969-.214,22.562,22.562,0,0,0-2.818.129,5.979,5.979,0,0,0-1.879.6A2.963,2.963,0,0,0,520.353,191.286Z" transform="translate(-315.68 -81.015)"/>
      <path class="cls-1" d="M540.446,202.006V186.2h3.16v15.8a4.086,4.086,0,0,0,1.067,3.054,3.743,3.743,0,0,0,2.733,1.046,13.541,13.541,0,0,0,3.117-.342,15.587,15.587,0,0,0,2.328-.7q.875-.363,2.968-1.389V186.2h3.16v22.678H556.76l-.939-2.648a9.975,9.975,0,0,0-.939.534q-.812.492-1,.576t-.918.491a5.83,5.83,0,0,1-1.024.491q-.3.086-.982.342a7.681,7.681,0,0,1-1.11.342,13.2,13.2,0,0,1-2.392.256,6.474,6.474,0,0,1-5.125-2.135A7.493,7.493,0,0,1,540.446,202.006Z" transform="translate(-315.68 -81.015)"/>
      <path class="cls-1" d="M564.106,208.882V186.2h2.221l.939,2.861a29.743,29.743,0,0,1,4.1-2.242q.854-.277,1.538-.491a11.7,11.7,0,0,1,3.288-.385,6.947,6.947,0,0,1,2.69.342v3.118a12.632,12.632,0,0,0-2.9-.257,14.906,14.906,0,0,0-3.353.342,13.747,13.747,0,0,0-2.35.727q-.876.384-3.011,1.409v17.254Z" transform="translate(-315.68 -81.015)"/>
      <path class="cls-1" d="M592.976,208.882V175.356h3.075V187.57a23.965,23.965,0,0,1,4.377-1.238,23.724,23.724,0,0,1,4.4-.47,6.44,6.44,0,0,1,3.5.982,5.941,5.941,0,0,1,2.327,2.818,21.417,21.417,0,0,1,1.281,7.986,19.081,19.081,0,0,1-1.409,7.645,6.265,6.265,0,0,1-2.307,2.819,6.4,6.4,0,0,1-3.63,1.024,13.72,13.72,0,0,1-4.762-1,17.477,17.477,0,0,1-3.737-1.771l-.854,2.52Zm11.488-2.9q4.313,0,4.313-8.328,0-4.954-1.047-6.79a3.5,3.5,0,0,0-3.267-1.837,33.186,33.186,0,0,0-8.371,1.11v13.88A22.791,22.791,0,0,0,604.464,205.977Z" transform="translate(-315.68 -81.015)"/>
      <path class="cls-1" d="M616.208,202.006V186.2h3.16v15.8a4.086,4.086,0,0,0,1.067,3.054,3.743,3.743,0,0,0,2.733,1.046,13.541,13.541,0,0,0,3.117-.342,15.587,15.587,0,0,0,2.328-.7q.875-.363,2.968-1.389V186.2h3.16v22.678h-2.221l-.939-2.648a9.975,9.975,0,0,0-.939.534q-.812.492-1,.576t-.918.491a5.83,5.83,0,0,1-1.024.491q-.3.086-.982.342a7.681,7.681,0,0,1-1.11.342,13.2,13.2,0,0,1-2.392.256,6.474,6.474,0,0,1-5.125-2.135A7.493,7.493,0,0,1,616.208,202.006Z" transform="translate(-315.68 -81.015)"/>
      <path class="cls-1" d="M639.013,193.593v-1.965a5.864,5.864,0,0,1,1.367-4.207q1.365-1.43,4.976-1.431t10.7.684v2.435H644.906q-1.964,0-2.392.726a3.563,3.563,0,0,0-.342,1.794v1.965q0,1.708.812,2.092a4.368,4.368,0,0,0,1.922.342h6.748a5.4,5.4,0,0,1,4.121,1.517,5.579,5.579,0,0,1,1.431,3.993v2.093q0,3.161-1.537,4.313a6.521,6.521,0,0,1-4.015,1.152q-3.971,0-11.7-.812v-2.349h11.7c0-.027.078-.027.235,0a1.2,1.2,0,0,0,.6-.085,6.4,6.4,0,0,0,.7-.3q.854-.426.854-1.922v-2.093a2.535,2.535,0,0,0-.534-1.772,2.457,2.457,0,0,0-1.857-.576h-6.748a6.849,6.849,0,0,1-4.5-1.2Q639.013,196.8,639.013,193.593Z" transform="translate(-315.68 -81.015)"/>
      <path class="cls-1" d="M661.05,182.531v-2.307q0-1.066,1.024-1.067h2.136q.981,0,.982,1.067v2.307a.868.868,0,0,1-.982.982h-2.136Q661.049,183.514,661.05,182.531Zm.427,26.351V186.2h3.16v22.678Z" transform="translate(-315.68 -81.015)"/>
      <path class="cls-1" d="M669.89,208.882V186.2h2.221l.939,2.647a9.246,9.246,0,0,0,.939-.533q.812-.491,1-.577t.918-.491a5.987,5.987,0,0,1,1.025-.491q.3-.085.982-.341a7.488,7.488,0,0,1,1.11-.342,13.185,13.185,0,0,1,2.392-.257,6.479,6.479,0,0,1,5.125,2.136,7.5,7.5,0,0,1,1.879,5.125v15.8h-3.16v-15.8a4.089,4.089,0,0,0-1.068-3.054,3.744,3.744,0,0,0-2.733-1.047,13.6,13.6,0,0,0-3.117.342,15.716,15.716,0,0,0-2.327.705q-.876.363-2.969,1.388v17.468Z" transform="translate(-315.68 -81.015)"/>
      <path class="cls-1" d="M692.269,197.435a28.7,28.7,0,0,1,.512-6.043,6.248,6.248,0,0,1,1.858-3.459,6.692,6.692,0,0,1,2.989-1.537,20.431,20.431,0,0,1,4.271-.363,26.863,26.863,0,0,1,3.95.214,7.324,7.324,0,0,1,2.605.981,4.289,4.289,0,0,1,1.837,2.435,14.3,14.3,0,0,1,.555,4.4q0,5.21-5.851,5.21h-9.566q0,3.971.9,5.317t3.417,1.345a87.174,87.174,0,0,0,10.677-.427V207.9a40.026,40.026,0,0,1-10.677,1.2q-4.314,0-5.894-2.477T692.269,197.435Zm3.16-1.28H705q2.691,0,2.69-2.093,0-3.289-.961-4.079t-4.506-.79q-4.4,0-5.253.9a4.862,4.862,0,0,0-1.366,2.818A29.329,29.329,0,0,0,695.429,196.155Z" transform="translate(-315.68 -81.015)"/>
      <path class="cls-1" d="M714.262,193.593v-1.965a5.864,5.864,0,0,1,1.367-4.207q1.365-1.43,4.976-1.431t10.7.684v2.435H720.155q-1.964,0-2.392.726a3.563,3.563,0,0,0-.342,1.794v1.965q0,1.708.812,2.092a4.368,4.368,0,0,0,1.922.342H726.9a5.4,5.4,0,0,1,4.121,1.517,5.579,5.579,0,0,1,1.431,3.993v2.093q0,3.161-1.537,4.313a6.521,6.521,0,0,1-4.015,1.152q-3.971,0-11.7-.812v-2.349h11.7c0-.027.078-.027.235,0a1.2,1.2,0,0,0,.6-.085,6.4,6.4,0,0,0,.7-.3q.854-.426.854-1.922v-2.093a2.535,2.535,0,0,0-.534-1.772,2.457,2.457,0,0,0-1.857-.576h-6.748a6.849,6.849,0,0,1-4.5-1.2Q714.262,196.8,714.262,193.593Z" transform="translate(-315.68 -81.015)"/>
      <path class="cls-1" d="M735.445,193.593v-1.965a5.864,5.864,0,0,1,1.367-4.207q1.365-1.43,4.976-1.431t10.7.684v2.435H741.338q-1.964,0-2.392.726a3.563,3.563,0,0,0-.342,1.794v1.965q0,1.708.812,2.092a4.368,4.368,0,0,0,1.922.342h6.748a5.4,5.4,0,0,1,4.121,1.517,5.579,5.579,0,0,1,1.431,3.993v2.093q0,3.161-1.537,4.313a6.521,6.521,0,0,1-4.015,1.152q-3.971,0-11.7-.812v-2.349h11.7c0-.027.078-.027.235,0a1.2,1.2,0,0,0,.6-.085,6.4,6.4,0,0,0,.7-.3q.854-.426.854-1.922v-2.093a2.535,2.535,0,0,0-.534-1.772,2.457,2.457,0,0,0-1.857-.576h-6.748a6.849,6.849,0,0,1-4.5-1.2Q735.445,196.8,735.445,193.593Z" transform="translate(-315.68 -81.015)"/>
      <path class="cls-1" d="M766.878,189.364V186.93l4.143-.726v-4.229q0-3.458,1.2-5.039a4.3,4.3,0,0,1,1.559-1.132,7.579,7.579,0,0,1,3.1-.491,19.308,19.308,0,0,1,5.381,1.025v2.093L777,178.389q-1.964,0-2.435,1.024a6.745,6.745,0,0,0-.384,2.563V186.2h6.32v3.16h-6.32v19.518h-3.16V189.364Z" transform="translate(-315.68 -81.015)"/>
      <path class="cls-1" d="M794,209.095q-5.681,0-7.858-2.52t-2.178-9.054q0-6.535,2.178-9.032t7.858-2.5q5.679,0,7.815,2.541t2.135,9.118q0,6.577-2.135,9.012T794,209.095Zm-5.872-17.809a9.961,9.961,0,0,0-.727,2.541,25.551,25.551,0,0,0-.277,4.207,18.535,18.535,0,0,0,.405,4.271,4.187,4.187,0,0,0,1.409,2.435,5.031,5.031,0,0,0,2.051.982,15.891,15.891,0,0,0,2.989.213,16.635,16.635,0,0,0,3.032-.213,4.6,4.6,0,0,0,2.05-1,4.3,4.3,0,0,0,1.346-2.435,21,21,0,0,0,.384-4.548,26.927,26.927,0,0,0-.32-4.655,4.619,4.619,0,0,0-1.26-2.627,4.139,4.139,0,0,0-2.028-1.089,16.25,16.25,0,0,0-2.969-.214,22.562,22.562,0,0,0-2.818.129,5.979,5.979,0,0,0-1.879.6A2.963,2.963,0,0,0,788.124,191.286Z" transform="translate(-315.68 -81.015)"/>
      <path class="cls-1" d="M808.645,208.882V186.2h2.221l.939,2.861a29.743,29.743,0,0,1,4.1-2.242q.854-.277,1.538-.491a11.7,11.7,0,0,1,3.288-.385,6.947,6.947,0,0,1,2.69.342v3.118a12.632,12.632,0,0,0-2.9-.257,14.906,14.906,0,0,0-3.353.342,13.747,13.747,0,0,0-2.35.727q-.876.384-3.011,1.409v17.254Z" transform="translate(-315.68 -81.015)"/>
      <path class="cls-1" d="M835.849,186.2h3.46l5.509,17.724a2.935,2.935,0,0,0,.577,1.11,4.749,4.749,0,0,0,.49.405,1.122,1.122,0,0,0,.428.192c.142.028.277.05.405.064a3.2,3.2,0,0,0,.363.021c.256-.058.441-.1.555-.129l6.492-19.389h3.545l-9.994,29.853-3.2,4.355h-1.964l4.014-11.53q-3.672,0-5.124-4.7Z" transform="translate(-315.68 -81.015)"/>
      <path class="cls-1" d="M869.93,209.095q-5.681,0-7.858-2.52t-2.178-9.054q0-6.535,2.178-9.032t7.858-2.5q5.679,0,7.815,2.541t2.135,9.118q0,6.577-2.135,9.012T869.93,209.095Zm-5.872-17.809a9.961,9.961,0,0,0-.727,2.541,25.551,25.551,0,0,0-.277,4.207,18.535,18.535,0,0,0,.405,4.271,4.187,4.187,0,0,0,1.409,2.435,5.031,5.031,0,0,0,2.051.982,15.891,15.891,0,0,0,2.989.213,16.635,16.635,0,0,0,3.032-.213,4.6,4.6,0,0,0,2.05-1,4.3,4.3,0,0,0,1.346-2.435,21,21,0,0,0,.384-4.548,26.927,26.927,0,0,0-.32-4.655,4.619,4.619,0,0,0-1.26-2.627,4.139,4.139,0,0,0-2.028-1.089,16.25,16.25,0,0,0-2.969-.214,22.562,22.562,0,0,0-2.818.129,5.979,5.979,0,0,0-1.879.6A2.963,2.963,0,0,0,864.058,191.286Z" transform="translate(-315.68 -81.015)"/>
      <path class="cls-1" d="M884.151,202.006V186.2h3.16v15.8a4.086,4.086,0,0,0,1.067,3.054,3.743,3.743,0,0,0,2.733,1.046,13.541,13.541,0,0,0,3.117-.342,15.587,15.587,0,0,0,2.328-.7q.875-.363,2.968-1.389V186.2h3.16v22.678h-2.221l-.939-2.648a9.975,9.975,0,0,0-.939.534q-.812.492-1,.576t-.918.491a5.83,5.83,0,0,1-1.024.491q-.3.086-.982.342a7.681,7.681,0,0,1-1.11.342,13.2,13.2,0,0,1-2.392.256,6.474,6.474,0,0,1-5.125-2.135A7.493,7.493,0,0,1,884.151,202.006Z" transform="translate(-315.68 -81.015)"/>
      <path class="cls-1" d="M907.81,208.882V186.2h2.221l.939,2.861a29.743,29.743,0,0,1,4.1-2.242q.854-.277,1.538-.491a11.7,11.7,0,0,1,3.288-.385,6.947,6.947,0,0,1,2.69.342v3.118a12.632,12.632,0,0,0-2.9-.257,14.906,14.906,0,0,0-3.353.342,13.747,13.747,0,0,0-2.35.727q-.876.384-3.011,1.409v17.254Z" transform="translate(-315.68 -81.015)"/>
      <path class="cls-1" d="M936.808,203.5a27.012,27.012,0,0,1-.555-5.979,27.726,27.726,0,0,1,.533-5.958,7.75,7.75,0,0,1,1.6-3.544,5.608,5.608,0,0,1,2.307-1.6,13.461,13.461,0,0,1,4.015-.428,53.888,53.888,0,0,1,8.755,1.11v2.307q-5.937-.256-8.414-.257a13.283,13.283,0,0,0-3.117.214,3.247,3.247,0,0,0-1.324.982q-1.2,1.5-1.2,6.812t.961,7.047a3.507,3.507,0,0,0,3.353,1.729q4.014,0,8.413-.342l1.623-.128v2.392a39.686,39.686,0,0,1-10.036,1.238,9.039,9.039,0,0,1-2.969-.427,5.793,5.793,0,0,1-2.306-1.6A7.769,7.769,0,0,1,936.808,203.5Z" transform="translate(-315.68 -81.015)"/>
      <path class="cls-1" d="M957.608,202.006V186.2h3.16v15.8a4.086,4.086,0,0,0,1.067,3.054,3.743,3.743,0,0,0,2.733,1.046,13.541,13.541,0,0,0,3.117-.342,15.587,15.587,0,0,0,2.328-.7q.875-.363,2.968-1.389V186.2h3.16v22.678h-2.221l-.939-2.648a9.975,9.975,0,0,0-.939.534q-.812.492-1,.576t-.918.491a5.83,5.83,0,0,1-1.024.491q-.3.086-.982.342a7.681,7.681,0,0,1-1.11.342,13.2,13.2,0,0,1-2.392.256,6.474,6.474,0,0,1-5.125-2.135A7.493,7.493,0,0,1,957.608,202.006Z" transform="translate(-315.68 -81.015)"/>
      <path class="cls-1" d="M980.412,193.593v-1.965a5.864,5.864,0,0,1,1.367-4.207q1.365-1.43,4.976-1.431t10.7.684v2.435H986.306q-1.964,0-2.392.726a3.563,3.563,0,0,0-.342,1.794v1.965q0,1.708.812,2.092a4.368,4.368,0,0,0,1.922.342h6.748a5.4,5.4,0,0,1,4.121,1.517,5.579,5.579,0,0,1,1.431,3.993v2.093q0,3.161-1.537,4.313a6.521,6.521,0,0,1-4.015,1.152q-3.971,0-11.7-.812v-2.349h11.7c0-.027.078-.027.235,0a1.2,1.2,0,0,0,.6-.085,6.4,6.4,0,0,0,.7-.3q.854-.426.854-1.922v-2.093a2.535,2.535,0,0,0-.534-1.772,2.457,2.457,0,0,0-1.857-.576h-6.748a6.849,6.849,0,0,1-4.5-1.2Q980.412,196.8,980.412,193.593Z" transform="translate(-315.68 -81.015)"/>
      <path class="cls-1" d="M1000.315,189.321V186.93l4.228-.769.769-6.32h2.392v6.32h6.62v3.16h-6.62v11.446a7.636,7.636,0,0,0,.6,3.608,2.8,2.8,0,0,0,1.836,1.3q3.5.9,3.8.9v2.264h-3.758q-5.638,0-5.638-8.071V189.321Z" transform="translate(-315.68 -81.015)"/>
      <path class="cls-1" d="M1027.775,209.095q-5.681,0-7.858-2.52t-2.178-9.054q0-6.535,2.178-9.032t7.858-2.5q5.679,0,7.815,2.541t2.135,9.118q0,6.577-2.135,9.012T1027.775,209.095Zm-5.872-17.809a9.961,9.961,0,0,0-.727,2.541,25.551,25.551,0,0,0-.277,4.207,18.535,18.535,0,0,0,.405,4.271,4.187,4.187,0,0,0,1.409,2.435,5.031,5.031,0,0,0,2.051.982,15.891,15.891,0,0,0,2.989.213,16.635,16.635,0,0,0,3.032-.213,4.6,4.6,0,0,0,2.05-1,4.3,4.3,0,0,0,1.346-2.435,21,21,0,0,0,.384-4.548,26.927,26.927,0,0,0-.32-4.655,4.619,4.619,0,0,0-1.26-2.627,4.139,4.139,0,0,0-2.028-1.089,16.25,16.25,0,0,0-2.969-.214,22.562,22.562,0,0,0-2.818.129,5.979,5.979,0,0,0-1.879.6A2.963,2.963,0,0,0,1021.9,191.286Z" transform="translate(-315.68 -81.015)"/>
      <path class="cls-1" d="M1042.423,208.882V186.2h2.221l.939,2.733q.256-.17,1.047-.619t1.11-.641c.213-.129.555-.306,1.024-.534a7.09,7.09,0,0,1,1.175-.47l1.067-.385a9.616,9.616,0,0,1,2.9-.342,7.615,7.615,0,0,1,3.587.9,5.3,5.3,0,0,1,2.435,2.435,13.918,13.918,0,0,1,9.14-3.332,6.711,6.711,0,0,1,5,2.051,7.193,7.193,0,0,1,2.007,5.253v15.631h-3.16V193.251a4.16,4.16,0,0,0-1.089-3.011,3.66,3.66,0,0,0-2.755-1.132,16.8,16.8,0,0,0-4.42.512,14.3,14.3,0,0,0-3.951,1.88v17.382h-3.16V193.251a4.16,4.16,0,0,0-1.089-3.011,3.634,3.634,0,0,0-2.733-1.132,12.68,12.68,0,0,0-3.032.342,15.532,15.532,0,0,0-2.156.661q-.769.321-2.947,1.389v17.382Z" transform="translate(-315.68 -81.015)"/>
      <path class="cls-1" d="M1079.92,197.435a28.7,28.7,0,0,1,.512-6.043,6.248,6.248,0,0,1,1.858-3.459,6.692,6.692,0,0,1,2.989-1.537,20.431,20.431,0,0,1,4.271-.363,26.863,26.863,0,0,1,3.95.214,7.324,7.324,0,0,1,2.605.981,4.289,4.289,0,0,1,1.837,2.435,14.3,14.3,0,0,1,.555,4.4q0,5.21-5.851,5.21h-9.566q0,3.971.9,5.317t3.417,1.345a87.174,87.174,0,0,0,10.677-.427V207.9a40.026,40.026,0,0,1-10.677,1.2q-4.314,0-5.894-2.477T1079.92,197.435Zm3.16-1.28h9.566q2.691,0,2.69-2.093,0-3.289-.961-4.079t-4.506-.79q-4.4,0-5.253.9a4.862,4.862,0,0,0-1.366,2.818A29.329,29.329,0,0,0,1083.08,196.155Z" transform="translate(-315.68 -81.015)"/>
      <path class="cls-1" d="M1102.768,208.882V186.2h2.221l.939,2.861a29.743,29.743,0,0,1,4.1-2.242q.854-.277,1.538-.491a11.7,11.7,0,0,1,3.288-.385,6.947,6.947,0,0,1,2.69.342v3.118a12.632,12.632,0,0,0-2.9-.257,14.906,14.906,0,0,0-3.353.342,13.747,13.747,0,0,0-2.35.727q-.876.384-3.011,1.409v17.254Z" transform="translate(-315.68 -81.015)"/>
      <path class="cls-1" d="M1120.107,193.593v-1.965a5.864,5.864,0,0,1,1.367-4.207q1.365-1.43,4.976-1.431t10.7.684v2.435H1126q-1.964,0-2.392.726a3.563,3.563,0,0,0-.342,1.794v1.965q0,1.708.812,2.092a4.368,4.368,0,0,0,1.922.342h6.748a5.4,5.4,0,0,1,4.121,1.517,5.579,5.579,0,0,1,1.431,3.993v2.093q0,3.161-1.537,4.313a6.522,6.522,0,0,1-4.015,1.152q-3.971,0-11.7-.812v-2.349h11.7c0-.027.078-.027.235,0a1.2,1.2,0,0,0,.6-.085,6.4,6.4,0,0,0,.7-.3q.854-.426.854-1.922v-2.093a2.535,2.535,0,0,0-.534-1.772,2.457,2.457,0,0,0-1.857-.576H1126a6.849,6.849,0,0,1-4.5-1.2Q1120.107,196.8,1120.107,193.593Z" transform="translate(-315.68 -81.015)"/>
      <path class="cls-1" d="M1153.119,187.058a42.282,42.282,0,0,1,11.189-1.281,6.637,6.637,0,0,1,4.591,1.622,6.313,6.313,0,0,1,1.814,4.954v16.528h-2.349l-.812-2.733-.641.3q-5.552,2.691-8.84,2.69a5.762,5.762,0,0,1-4.058-1.494,5.352,5.352,0,0,1-1.623-4.144v-2.6a5.642,5.642,0,0,1,1.517-4.143,5.579,5.579,0,0,1,4.164-1.538h9.48q.042-1.409.043-2.113a2.839,2.839,0,0,0-.043-.748q0-3.5-3.673-3.5t-10.762.513Zm2.434,16.229q0,2.691,2.521,2.69a17.775,17.775,0,0,0,3.907-.556q2.37-.554,3.993-1.067l1.58-.555v-6.107l-9.48.684a2.651,2.651,0,0,0-1.9.9,2.9,2.9,0,0,0-.62,1.879Z" transform="translate(-315.68 -81.015)"/>
      <path class="cls-1" d="M1175.412,208.882V186.2h2.221l.939,2.647a9.246,9.246,0,0,0,.939-.533q.812-.491,1-.577t.918-.491a5.987,5.987,0,0,1,1.025-.491q.3-.085.982-.341a7.488,7.488,0,0,1,1.11-.342,13.185,13.185,0,0,1,2.392-.257,6.479,6.479,0,0,1,5.125,2.136,7.5,7.5,0,0,1,1.879,5.125v15.8h-3.16v-15.8a4.089,4.089,0,0,0-1.068-3.054,3.744,3.744,0,0,0-2.733-1.047,13.6,13.6,0,0,0-3.117.342,15.716,15.716,0,0,0-2.327.705q-.876.363-2.969,1.388v17.468Z" transform="translate(-315.68 -81.015)"/>
      <path class="cls-1" d="M1199.2,205.315a15.818,15.818,0,0,1-1.089-3.63,24.742,24.742,0,0,1-.32-4.186,28.456,28.456,0,0,1,.277-4.186,15.928,15.928,0,0,1,1-3.651q1.579-3.8,6.192-3.8a22.078,22.078,0,0,1,4.015.47,24.079,24.079,0,0,1,4.355,1.238V175.356h3.118v33.525h-2.264l-.854-2.52a17.487,17.487,0,0,1-3.736,1.771,13.729,13.729,0,0,1-4.762,1,6.4,6.4,0,0,1-3.631-1.024A6.289,6.289,0,0,1,1199.2,205.315Zm1.751-7.666q0,8.328,4.313,8.328a22.791,22.791,0,0,0,8.37-1.965v-13.88a33.179,33.179,0,0,0-8.37-1.11,3.5,3.5,0,0,0-3.268,1.837Q1200.95,192.7,1200.951,197.649Z" transform="translate(-315.68 -81.015)"/>
      <path class="cls-1" d="M1232.554,208.882V186.2h2.221l.939,2.861a29.743,29.743,0,0,1,4.1-2.242q.854-.277,1.538-.491a11.7,11.7,0,0,1,3.288-.385,6.947,6.947,0,0,1,2.69.342v3.118a12.632,12.632,0,0,0-2.9-.257,14.906,14.906,0,0,0-3.353.342,13.747,13.747,0,0,0-2.35.727q-.876.384-3.011,1.409v17.254Z" transform="translate(-315.68 -81.015)"/>
      <path class="cls-1" d="M1249.467,197.435a28.7,28.7,0,0,1,.512-6.043,6.248,6.248,0,0,1,1.858-3.459,6.692,6.692,0,0,1,2.989-1.537,20.431,20.431,0,0,1,4.271-.363,26.863,26.863,0,0,1,3.95.214,7.324,7.324,0,0,1,2.605.981,4.289,4.289,0,0,1,1.837,2.435,14.3,14.3,0,0,1,.555,4.4q0,5.21-5.851,5.21h-9.566q0,3.971.9,5.317t3.417,1.345a87.174,87.174,0,0,0,10.677-.427V207.9a40.026,40.026,0,0,1-10.677,1.2q-4.314,0-5.894-2.477T1249.467,197.435Zm3.16-1.28h9.566q2.691,0,2.69-2.093,0-3.289-.961-4.079t-4.506-.79q-4.4,0-5.253.9a4.862,4.862,0,0,0-1.366,2.818A29.329,29.329,0,0,0,1252.627,196.155Z" transform="translate(-315.68 -81.015)"/>
      <path class="cls-1" d="M1273.3,205.315a15.818,15.818,0,0,1-1.089-3.63,24.742,24.742,0,0,1-.32-4.186,28.456,28.456,0,0,1,.277-4.186,15.928,15.928,0,0,1,1-3.651q1.579-3.8,6.192-3.8a22.078,22.078,0,0,1,4.015.47,24.079,24.079,0,0,1,4.355,1.238V175.356h3.118v33.525h-2.264l-.854-2.52a17.487,17.487,0,0,1-3.736,1.771,13.729,13.729,0,0,1-4.762,1,6.4,6.4,0,0,1-3.631-1.024A6.289,6.289,0,0,1,1273.3,205.315Zm1.751-7.666q0,8.328,4.313,8.328a22.791,22.791,0,0,0,8.37-1.965v-13.88a33.179,33.179,0,0,0-8.37-1.11,3.5,3.5,0,0,0-3.268,1.837Q1275.047,192.7,1275.048,197.649Z" transform="translate(-315.68 -81.015)"/>
      <path class="cls-1" d="M1295.547,202.006V186.2h3.16v15.8a4.086,4.086,0,0,0,1.067,3.054,3.743,3.743,0,0,0,2.733,1.046,13.541,13.541,0,0,0,3.117-.342,15.587,15.587,0,0,0,2.328-.7q.875-.363,2.968-1.389V186.2h3.16v22.678h-2.221l-.939-2.648a9.975,9.975,0,0,0-.939.534q-.812.492-1,.576t-.918.491a5.83,5.83,0,0,1-1.024.491q-.3.086-.982.342a7.681,7.681,0,0,1-1.11.342,13.2,13.2,0,0,1-2.392.256,6.474,6.474,0,0,1-5.125-2.135A7.493,7.493,0,0,1,1295.547,202.006Z" transform="translate(-315.68 -81.015)"/>
      <path class="cls-1" d="M1319.334,203.5a27.012,27.012,0,0,1-.555-5.979,27.726,27.726,0,0,1,.533-5.958,7.75,7.75,0,0,1,1.6-3.544,5.608,5.608,0,0,1,2.307-1.6,13.461,13.461,0,0,1,4.015-.428,53.888,53.888,0,0,1,8.755,1.11v2.307q-5.937-.256-8.414-.257a13.283,13.283,0,0,0-3.117.214,3.247,3.247,0,0,0-1.324.982q-1.2,1.5-1.2,6.812t.961,7.047a3.507,3.507,0,0,0,3.353,1.729q4.014,0,8.413-.342l1.623-.128v2.392a39.686,39.686,0,0,1-10.036,1.238,9.039,9.039,0,0,1-2.969-.427,5.793,5.793,0,0,1-2.306-1.6A7.769,7.769,0,0,1,1319.334,203.5Z" transform="translate(-315.68 -81.015)"/>
      <path class="cls-1" d="M1339.279,197.435a28.7,28.7,0,0,1,.512-6.043,6.248,6.248,0,0,1,1.858-3.459,6.692,6.692,0,0,1,2.989-1.537,20.431,20.431,0,0,1,4.271-.363,26.863,26.863,0,0,1,3.95.214,7.324,7.324,0,0,1,2.605.981,4.289,4.289,0,0,1,1.837,2.435,14.3,14.3,0,0,1,.555,4.4q0,5.21-5.851,5.21h-9.566q0,3.971.9,5.317t3.417,1.345a87.174,87.174,0,0,0,10.677-.427V207.9a40.026,40.026,0,0,1-10.677,1.2q-4.314,0-5.894-2.477T1339.279,197.435Zm3.16-1.28h9.566q2.691,0,2.69-2.093,0-3.289-.961-4.079t-4.506-.79q-4.4,0-5.253.9a4.862,4.862,0,0,0-1.366,2.818A29.329,29.329,0,0,0,1342.44,196.155Z" transform="translate(-315.68 -81.015)"/>
      <path class="cls-1" d="M1371.1,186.2h3.459l6.705,18.022,5.894-18.022h3.417l-2.307,7.26,4.954,10.763,6.919-18.022h3.459l-8.67,22.678h-3.16l-5.039-11.1-3.716,11.1h-3.417Z" transform="translate(-315.68 -81.015)"/>
      <path class="cls-1" d="M1406.031,187.058a42.282,42.282,0,0,1,11.189-1.281,6.637,6.637,0,0,1,4.591,1.622,6.313,6.313,0,0,1,1.814,4.954v16.528h-2.349l-.812-2.733-.641.3q-5.552,2.691-8.84,2.69a5.762,5.762,0,0,1-4.058-1.494,5.352,5.352,0,0,1-1.623-4.144v-2.6a5.642,5.642,0,0,1,1.517-4.143,5.579,5.579,0,0,1,4.164-1.538h9.48q.042-1.409.043-2.113a2.839,2.839,0,0,0-.043-.748q0-3.5-3.673-3.5t-10.762.513Zm2.434,16.229q0,2.691,2.521,2.69a17.775,17.775,0,0,0,3.907-.556q2.37-.554,3.993-1.067l1.58-.555v-6.107l-9.48.684a2.651,2.651,0,0,0-1.9.9,2.9,2.9,0,0,0-.62,1.879Z" transform="translate(-315.68 -81.015)"/>
      <path class="cls-1" d="M1427.47,193.593v-1.965a5.864,5.864,0,0,1,1.367-4.207q1.365-1.43,4.976-1.431t10.7.684v2.435h-11.146q-1.964,0-2.392.726a3.563,3.563,0,0,0-.342,1.794v1.965q0,1.708.812,2.092a4.368,4.368,0,0,0,1.922.342h6.748a5.4,5.4,0,0,1,4.121,1.517,5.579,5.579,0,0,1,1.431,3.993v2.093q0,3.161-1.537,4.313a6.521,6.521,0,0,1-4.015,1.152q-3.971,0-11.7-.812v-2.349h11.7c0-.027.078-.027.235,0a1.2,1.2,0,0,0,.6-.085,6.4,6.4,0,0,0,.7-.3q.854-.426.854-1.922v-2.093a2.535,2.535,0,0,0-.534-1.772,2.457,2.457,0,0,0-1.857-.576h-6.748a6.849,6.849,0,0,1-4.5-1.2Q1427.47,196.8,1427.47,193.593Z" transform="translate(-315.68 -81.015)"/>
      <path class="cls-1" d="M1447.372,189.321V186.93l4.228-.769.769-6.32h2.392v6.32h6.62v3.16h-6.62v11.446a7.636,7.636,0,0,0,.6,3.608,2.8,2.8,0,0,0,1.836,1.3q3.5.9,3.8.9v2.264h-3.758q-5.638,0-5.638-8.071V189.321Z" transform="translate(-315.68 -81.015)"/>
      <path class="cls-1" d="M1464.8,197.435a28.7,28.7,0,0,1,.512-6.043,6.248,6.248,0,0,1,1.858-3.459,6.692,6.692,0,0,1,2.989-1.537,20.431,20.431,0,0,1,4.271-.363,26.863,26.863,0,0,1,3.95.214,7.324,7.324,0,0,1,2.605.981,4.289,4.289,0,0,1,1.837,2.435,14.3,14.3,0,0,1,.555,4.4q0,5.21-5.851,5.21h-9.566q0,3.971.9,5.317t3.417,1.345a87.174,87.174,0,0,0,10.677-.427V207.9a40.026,40.026,0,0,1-10.677,1.2q-4.314,0-5.894-2.477T1464.8,197.435Zm3.16-1.28h9.566q2.691,0,2.69-2.093,0-3.289-.961-4.079t-4.506-.79q-4.4,0-5.253.9a4.862,4.862,0,0,0-1.366,2.818A29.329,29.329,0,0,0,1467.956,196.155Z" transform="translate(-315.68 -81.015)"/>
      <path class="cls-1" d="M1488.626,205.315a15.818,15.818,0,0,1-1.089-3.63,24.742,24.742,0,0,1-.32-4.186,28.456,28.456,0,0,1,.277-4.186,15.928,15.928,0,0,1,1-3.651q1.579-3.8,6.192-3.8a22.078,22.078,0,0,1,4.015.47,24.078,24.078,0,0,1,4.355,1.238V175.356h3.118v33.525h-2.264l-.854-2.52a17.487,17.487,0,0,1-3.736,1.771,13.729,13.729,0,0,1-4.762,1,6.4,6.4,0,0,1-3.631-1.024A6.289,6.289,0,0,1,1488.626,205.315Zm1.751-7.666q0,8.328,4.313,8.328a22.791,22.791,0,0,0,8.37-1.965v-13.88a33.179,33.179,0,0,0-8.37-1.11,3.5,3.5,0,0,0-3.268,1.837Q1490.376,192.7,1490.377,197.649Z" transform="translate(-315.68 -81.015)"/>
      <path class="cls-1" d="M1520.273,189.321V186.93l4.228-.769.769-6.32h2.392v6.32h6.62v3.16h-6.62v11.446a7.636,7.636,0,0,0,.6,3.608,2.8,2.8,0,0,0,1.836,1.3q3.5.9,3.8.9v2.264h-3.758q-5.638,0-5.638-8.071V189.321Z" transform="translate(-315.68 -81.015)"/>
      <path class="cls-1" d="M1537.7,182.531v-2.307q0-1.066,1.024-1.067h2.136q.981,0,.982,1.067v2.307a.868.868,0,0,1-.982.982h-2.136Q1537.7,183.514,1537.7,182.531Zm.427,26.351V186.2h3.16v22.678Z" transform="translate(-315.68 -81.015)"/>
      <path class="cls-1" d="M1546.536,208.882V186.2h2.221l.939,2.733q.256-.17,1.047-.619t1.11-.641c.213-.129.555-.306,1.024-.534a7.09,7.09,0,0,1,1.175-.47l1.067-.385a9.616,9.616,0,0,1,2.9-.342,7.615,7.615,0,0,1,3.587.9,5.3,5.3,0,0,1,2.435,2.435,13.918,13.918,0,0,1,9.14-3.332,6.711,6.711,0,0,1,5,2.051,7.193,7.193,0,0,1,2.007,5.253v15.631h-3.16V193.251a4.16,4.16,0,0,0-1.089-3.011,3.66,3.66,0,0,0-2.755-1.132,16.8,16.8,0,0,0-4.42.512,14.3,14.3,0,0,0-3.951,1.88v17.382h-3.16V193.251a4.16,4.16,0,0,0-1.089-3.011,3.634,3.634,0,0,0-2.733-1.132,12.68,12.68,0,0,0-3.032.342,15.532,15.532,0,0,0-2.156.661q-.769.321-2.947,1.389v17.382Z" transform="translate(-315.68 -81.015)"/>
      <path class="cls-1" d="M1584.033,197.435a28.7,28.7,0,0,1,.512-6.043,6.248,6.248,0,0,1,1.858-3.459,6.692,6.692,0,0,1,2.989-1.537,20.431,20.431,0,0,1,4.271-.363,26.863,26.863,0,0,1,3.95.214,7.324,7.324,0,0,1,2.605.981,4.289,4.289,0,0,1,1.837,2.435,14.3,14.3,0,0,1,.555,4.4q0,5.21-5.851,5.21h-9.566q0,3.971.9,5.317t3.417,1.345a87.174,87.174,0,0,0,10.677-.427V207.9a40.026,40.026,0,0,1-10.677,1.2q-4.314,0-5.894-2.477T1584.033,197.435Zm3.16-1.28h9.566q2.691,0,2.69-2.093,0-3.289-.961-4.079t-4.506-.79q-4.4,0-5.253.9a4.862,4.862,0,0,0-1.366,2.818A29.329,29.329,0,0,0,1587.194,196.155Z" transform="translate(-315.68 -81.015)"/>
    </g>
    <g>
      <path class="cls-1" d="M506.7,448.069a20.229,20.229,0,0,1,.111-2.321,8.373,8.373,0,0,1,.4-1.762,3.4,3.4,0,0,1,3.722-2.415,19.235,19.235,0,0,1,2.089.138q1.228.138,2.157.326v1.255c-.126-.011-.241-.02-.344-.025s-.227-.015-.37-.026-.3-.02-.473-.025-.353-.015-.542-.026l-.593-.034-.619-.034c-.424-.011-.857-.018-1.3-.018a3.266,3.266,0,0,0-1.161.189,1.774,1.774,0,0,0-.851.73,3.8,3.8,0,0,0-.5,1.5,13.371,13.371,0,0,0-.146,2.028q0,1.074.043,1.607a10.143,10.143,0,0,0,.138,1.04,6.574,6.574,0,0,0,.232.911,3.151,3.151,0,0,0,.361.739,2.247,2.247,0,0,0,1.977,1.022q1.651,0,3.524-.086l.619-.034V454a20.276,20.276,0,0,1-2.071.283q-1.212.111-1.676.112h-.5a3.466,3.466,0,0,1-3.318-1.806A9.531,9.531,0,0,1,506.7,448.069Z" transform="translate(-315.68 -81.015)"/>
      <path class="cls-1" d="M517.394,449.856a8.413,8.413,0,0,1,.4-2.9,2.547,2.547,0,0,1,1.255-1.453,5.588,5.588,0,0,1,2.407-.421,4.02,4.02,0,0,1,3.189,1.031,5.825,5.825,0,0,1,.868,3.67,5.589,5.589,0,0,1-.868,3.619,5.571,5.571,0,0,1-6.36-.035A5.368,5.368,0,0,1,517.394,449.856Zm1.831-2.234a3.486,3.486,0,0,0-.2.92c-.034.36-.051.788-.051,1.28a10.971,10.971,0,0,0,.06,1.255,2.838,2.838,0,0,0,.215.852,2.079,2.079,0,0,0,.335.532,1.128,1.128,0,0,0,.507.3,3.617,3.617,0,0,0,1.221.164,10.61,10.61,0,0,0,1.065-.052,2.158,2.158,0,0,0,.679-.206,1.091,1.091,0,0,0,.507-.508,5.533,5.533,0,0,0,.361-2.3,7.266,7.266,0,0,0-.189-2.088,3.029,3.029,0,0,0-.353-.723,1.061,1.061,0,0,0-.473-.335,3.375,3.375,0,0,0-1.221-.189q-.739,0-1.048.035a2.818,2.818,0,0,0-.627.146,1,1,0,0,0-.481.327A2.43,2.43,0,0,0,519.225,447.622Z" transform="translate(-315.68 -81.015)"/>
      <path class="cls-1" d="M532.212,445.352a6.249,6.249,0,0,1,1.633-.292,2.539,2.539,0,0,1,1.152.267,2.421,2.421,0,0,1,.859.7,3.6,3.6,0,0,1,.533,1.049,7.071,7.071,0,0,1,.361,2.252q0,1.169-.061,1.8a6.825,6.825,0,0,1-.249,1.272,3.3,3.3,0,0,1-.516,1.074,2.536,2.536,0,0,1-2.166.963,8.456,8.456,0,0,1-1.564-.181,9.386,9.386,0,0,1-1.667-.473v5.157H528.98v-13.77h1.2l.361.979A5.03,5.03,0,0,1,532.212,445.352Zm1.375,7.633a1.417,1.417,0,0,0,.859-.24q.722-.568.722-3.025,0-3.18-1.582-3.181a7.347,7.347,0,0,0-3.043.739v5.295A11.294,11.294,0,0,0,533.587,452.985Z" transform="translate(-315.68 -81.015)"/>
      <path class="cls-1" d="M539.088,445.164h1.7l2.028,6.928a.838.838,0,0,0,1.048.688l.035-.018,2.407-7.6h1.719l-3.8,12.016-1.272,1.754h-1.048l1.53-4.642q-1.65,0-2.235-2.012Z" transform="translate(-315.68 -81.015)"/>
      <path class="cls-1" d="M553.716,445.645a5.923,5.923,0,0,1,.929-.387,4.174,4.174,0,0,1,1.341-.2,2.742,2.742,0,0,1,1.048.138v1.547a7.627,7.627,0,0,0-1.324-.086,4.841,4.841,0,0,0-1.521.215,7.715,7.715,0,0,0-1.556.782v6.636h-1.581v-9.128h1.2l.378,1.151.4-.258Q553.372,445.835,553.716,445.645Z" transform="translate(-315.68 -81.015)"/>
      <path class="cls-1" d="M559.888,443.72v-1.083q0-.447.413-.446h1.117a.353.353,0,0,1,.292.129.493.493,0,0,1,.1.317v1.083a.35.35,0,0,1-.4.4H560.3A.406.406,0,0,1,560,444,.385.385,0,0,1,559.888,443.72Zm.137,10.572v-9.128h1.582v9.128Z" transform="translate(-315.68 -81.015)"/>
      <path class="cls-1" d="M565.1,452.366a1.771,1.771,0,0,1,.258-.928,1.165,1.165,0,0,1,.756-.55,2.607,2.607,0,0,1-1-2.381,3.57,3.57,0,0,1,.791-2.562,2.968,2.968,0,0,1,2.235-.816h5.415v1.083l-1.29.309c.011.023.052.1.121.224a2.416,2.416,0,0,1,.137.284c.023.063.057.169.1.317a3.279,3.279,0,0,1,.121.946,6.224,6.224,0,0,1-.06.937,3.882,3.882,0,0,1-.25.851,2.845,2.845,0,0,1-.5.816,2.407,2.407,0,0,1-.851.594,3.049,3.049,0,0,1-1.247.24h-2.527q-.705,0-.705.481,0,.551.705.55h3.421a2.277,2.277,0,0,1,1.736.653,2.519,2.519,0,0,1,.619,1.806v1.065a2.322,2.322,0,0,1-1.53,2.476,3.387,3.387,0,0,1-1.135.172h-2.579a2.558,2.558,0,0,1-2.407-1.169,2.833,2.833,0,0,1-.361-1.479v-1.375l.705-1.049A1.672,1.672,0,0,1,565.1,452.366Zm2.321,1.857a2.162,2.162,0,0,1-.756-.121v2.1q0,.842.464,1.083a1.874,1.874,0,0,0,.911.206h2.252a1.158,1.158,0,0,0,.954-.335,1.47,1.47,0,0,0,.267-.937v-.911a1.24,1.24,0,0,0-.224-.834,1.169,1.169,0,0,0-.876-.249Zm.739-3.937h1.479a1.407,1.407,0,0,0,1.478-1.272,2.2,2.2,0,0,0,.052-.413,2.659,2.659,0,0,0-.344-1.556,1.421,1.421,0,0,0-1.2-.455h-1.375q-1.547,0-1.547,1.848T568.156,450.287Z" transform="translate(-315.68 -81.015)"/>
      <path class="cls-1" d="M578.127,440.814v5.4c.035-.023.129-.083.284-.181s.252-.157.292-.181.131-.077.275-.163a2.206,2.206,0,0,1,.31-.164q.094-.034.3-.129c.138-.062.246-.108.327-.137s.186-.063.318-.1a1.962,1.962,0,0,1,.37-.077,5.185,5.185,0,0,1,.773-.069,2.534,2.534,0,0,1,2.063.868,3.211,3.211,0,0,1,.722,2.123v6.292h-1.582V448a1.6,1.6,0,0,0-.378-1.16,1.52,1.52,0,0,0-1.134-.387,4.012,4.012,0,0,0-1.341.206,14.37,14.37,0,0,0-1.6.723v6.91h-1.581V440.814Z" transform="translate(-315.68 -81.015)"/>
      <path class="cls-1" d="M590.039,442.6v2.544h2.493v1.427h-2.493v4.35a3.014,3.014,0,0,0,.232,1.409,1.089,1.089,0,0,0,.7.516q1.306.362,1.427.361v1.065h-1.667q-2.269,0-2.27-3.249v-4.452h-1.633v-1.065l1.633-.361.344-2.544Z" transform="translate(-315.68 -81.015)"/>
      <path class="cls-1" d="M601.385,443.084v-1.169a37.18,37.18,0,0,1,5.226-.378,3.227,3.227,0,0,1,3.025,1.6,3.723,3.723,0,0,1,.533,1.942,4.8,4.8,0,0,1-.5,2.089,9.133,9.133,0,0,1-1.161,1.848,17.624,17.624,0,0,1-1.556,1.65,25.083,25.083,0,0,1-2.544,2.1h5.759v1.53h-8.664v-1.427a32.848,32.848,0,0,0,2.991-2.243q1.323-1.126,2.123-1.951a9.924,9.924,0,0,0,1.375-1.779,3.517,3.517,0,0,0,.576-1.8,2.02,2.02,0,0,0-.533-1.427,2.146,2.146,0,0,0-1.65-.576Z" transform="translate(-315.68 -81.015)"/>
      <path class="cls-1" d="M613.8,451.438V444.6a2.713,2.713,0,0,1,.842-2.141,3.168,3.168,0,0,1,2.184-.747h2.819a2.536,2.536,0,0,1,2.75,1.771,3.624,3.624,0,0,1,.155,1.083v6.876a2.778,2.778,0,0,1-.765,2.157,3.094,3.094,0,0,1-2.158.7H616.8a3.281,3.281,0,0,1-2.174-.7A2.65,2.65,0,0,1,613.8,451.438Zm1.582-.12a1.285,1.285,0,0,0,.456,1.108,1.847,1.847,0,0,0,1.126.335h2.51q1.5,0,1.5-1.427v-6.67q0-1.427-1.478-1.427h-2.544a1.535,1.535,0,0,0-1.186.413,1.443,1.443,0,0,0-.378,1.014Z" transform="translate(-315.68 -81.015)"/>
      <path class="cls-1" d="M630.368,441.709v12.583h-1.582V443.41l-2.768.843v-1.1l2.768-1.443Z" transform="translate(-315.68 -81.015)"/>
      <path class="cls-1" d="M633.841,443.238v-1.529h7.942l.516.894-4.452,11.689h-1.822l4.28-11.054Z" transform="translate(-315.68 -81.015)"/>
      <path class="cls-1" d="M651.237,454.292l4.521-12.583h1.667l4.332,12.583h-1.805l-1.031-3.317h-4.762l-1.083,3.317Zm3.421-4.813h3.782l-1.856-5.5Z" transform="translate(-315.68 -81.015)"/>
      <path class="cls-1" d="M666.88,442.6v2.544h2.493v1.427H666.88v4.35a3.014,3.014,0,0,0,.232,1.409,1.089,1.089,0,0,0,.7.516q1.306.362,1.427.361v1.065h-1.667q-2.269,0-2.27-3.249v-4.452h-1.633v-1.065l1.633-.361.344-2.544Z" transform="translate(-315.68 -81.015)"/>
      <path class="cls-1" d="M672.776,446.711a2.968,2.968,0,0,1,.516-.834,1.884,1.884,0,0,1,.773-.489,7.148,7.148,0,0,1,2.3-.293,5.755,5.755,0,0,1,2.373.327,1.9,1.9,0,0,1,.911.963,5.3,5.3,0,0,1,.309,1.977q0,2.149-2.406,2.148h-3.593a3.405,3.405,0,0,0,.378,1.942,1.71,1.71,0,0,0,1.41.481,29.663,29.663,0,0,0,4.04-.188V453.9a15.762,15.762,0,0,1-4.4.481,2.578,2.578,0,0,1-2.373-1.015,6.638,6.638,0,0,1-.636-3.369A9.374,9.374,0,0,1,672.776,446.711Zm5.6,1.616a5.188,5.188,0,0,0-.069-.98.916.916,0,0,0-.3-.523,1.125,1.125,0,0,0-.576-.25,6.206,6.206,0,0,0-.885-.052q-.541,0-.748.009c-.138.006-.307.021-.507.043a1.667,1.667,0,0,0-.438.095,2.089,2.089,0,0,0-.327.189.7.7,0,0,0-.266.317c-.052.127-.106.281-.164.465a5.577,5.577,0,0,0-.137,1.479h3.421Q678.38,449.118,678.381,448.327Z" transform="translate(-315.68 -81.015)"/>
      <path class="cls-1" d="M683.245,445.542a15.092,15.092,0,0,1,4.435-.55,2.548,2.548,0,0,1,2.373,1.135,3.087,3.087,0,0,1,.378,1.6v6.566h-1.2l-.378-1.065a4.574,4.574,0,0,1-.567.317,9.984,9.984,0,0,1-1.392.559,4.968,4.968,0,0,1-1.547.293,2.386,2.386,0,0,1-1.728-.637,2.227,2.227,0,0,1-.662-1.685v-1a2.2,2.2,0,0,1,2.389-2.338h3.507q.017-.5.017-.747c0-.166,0-.3-.008-.4a1.91,1.91,0,0,0-.069-.378,1.159,1.159,0,0,0-.172-.379.781.781,0,0,0-.284-.24,1.511,1.511,0,0,0-.842-.172q-1.41,0-4.246.188Zm1.29,6.378q0,1.031.979,1.031a5.786,5.786,0,0,0,1.4-.215,14.316,14.316,0,0,0,1.384-.421l.55-.207v-2.234l-3.369.24a.943.943,0,0,0-.945,1.066Z" transform="translate(-315.68 -81.015)"/>
      <path class="cls-1" d="M707.105,453.449a5.906,5.906,0,0,1-3.266.929,3.478,3.478,0,0,1-2.871-1.187,6,6,0,0,1-1.031-3.18q-.086-.877-.086-2.046a19.374,19.374,0,0,1,.094-2.046,9.44,9.44,0,0,1,.353-1.728,4.061,4.061,0,0,1,.7-1.4,3.472,3.472,0,0,1,2.905-1.221,21.1,21.1,0,0,1,2.183.138q1.29.138,2.3.344v1.255l-.31-.026c-.195-.017-.447-.037-.756-.06s-.642-.046-1-.069q-1.289-.085-2.106-.086a3.281,3.281,0,0,0-1.272.2,2,2,0,0,0-.756.559,2.431,2.431,0,0,0-.456.979,14.1,14.1,0,0,0-.31,3.507,7.771,7.771,0,0,0,.567,3.473,2.2,2.2,0,0,0,2.115,1.065,5.3,5.3,0,0,0,1.289-.188,7.742,7.742,0,0,0,1.2-.4l.464-.206v-3.112h-2.579V447.9a9.753,9.753,0,0,1,2.991-.43q.55,0,1.169.051v6.773h-1.169Z" transform="translate(-315.68 -81.015)"/>
      <path class="cls-1" d="M712.211,451.043V440.832h1.581v10.107a3.016,3.016,0,0,0,.232,1.41,1.089,1.089,0,0,0,.7.516q1.306.36,1.427.361v1.065h-1.633Q712.211,454.292,712.211,451.043Z" transform="translate(-315.68 -81.015)"/>
      <path class="cls-1" d="M718.3,449.856a8.413,8.413,0,0,1,.4-2.9,2.547,2.547,0,0,1,1.255-1.453,5.588,5.588,0,0,1,2.407-.421,4.02,4.02,0,0,1,3.189,1.031,5.825,5.825,0,0,1,.868,3.67,5.589,5.589,0,0,1-.868,3.619,5.571,5.571,0,0,1-6.36-.035A5.368,5.368,0,0,1,718.3,449.856Zm1.831-2.234a3.486,3.486,0,0,0-.2.92c-.034.36-.051.788-.051,1.28a10.971,10.971,0,0,0,.06,1.255,2.838,2.838,0,0,0,.215.852,2.079,2.079,0,0,0,.335.532,1.128,1.128,0,0,0,.507.3,3.617,3.617,0,0,0,1.221.164,10.61,10.61,0,0,0,1.065-.052,2.158,2.158,0,0,0,.679-.206,1.091,1.091,0,0,0,.507-.508,5.533,5.533,0,0,0,.361-2.3,7.266,7.266,0,0,0-.189-2.088,3.029,3.029,0,0,0-.353-.723,1.061,1.061,0,0,0-.473-.335,3.375,3.375,0,0,0-1.221-.189q-.739,0-1.048.035a2.818,2.818,0,0,0-.627.146,1,1,0,0,0-.481.327A2.43,2.43,0,0,0,720.127,447.622Z" transform="translate(-315.68 -81.015)"/>
      <path class="cls-1" d="M731.429,440.8v4.9a8.475,8.475,0,0,1,1.667-.49,8.3,8.3,0,0,1,1.513-.181,3.424,3.424,0,0,1,1.023.138,2.475,2.475,0,0,1,.748.369,2.3,2.3,0,0,1,.542.585,3.42,3.42,0,0,1,.37.739,5.34,5.34,0,0,1,.224.9,12.669,12.669,0,0,1,.138,2.011q0,4.625-2.991,4.625a5.062,5.062,0,0,1-1.771-.379,5.912,5.912,0,0,1-1.444-.722l-.361,1h-1.2V440.8Zm3.06,12.119q1.581,0,1.582-3.163a5.736,5.736,0,0,0-.413-2.647,1.29,1.29,0,0,0-1.169-.636,11.377,11.377,0,0,0-3.043.412v5.295A7.416,7.416,0,0,0,734.489,452.917Z" transform="translate(-315.68 -81.015)"/>
      <path class="cls-1" d="M741.091,445.542a15.092,15.092,0,0,1,4.435-.55,2.548,2.548,0,0,1,2.373,1.135,3.087,3.087,0,0,1,.378,1.6v6.566h-1.2l-.378-1.065a4.574,4.574,0,0,1-.567.317,9.984,9.984,0,0,1-1.392.559,4.968,4.968,0,0,1-1.547.293,2.386,2.386,0,0,1-1.728-.637,2.227,2.227,0,0,1-.662-1.685v-1a2.2,2.2,0,0,1,2.389-2.338h3.507q.017-.5.017-.747c0-.166,0-.3-.008-.4a1.91,1.91,0,0,0-.069-.378,1.159,1.159,0,0,0-.172-.379.781.781,0,0,0-.284-.24,1.511,1.511,0,0,0-.842-.172q-1.41,0-4.246.188Zm1.29,6.378q0,1.031.979,1.031a5.786,5.786,0,0,0,1.4-.215,14.316,14.316,0,0,0,1.384-.421l.55-.207v-2.234l-3.369.24a.943.943,0,0,0-.945,1.066Z" transform="translate(-315.68 -81.015)"/>
      <path class="cls-1" d="M751.766,451.043V440.832h1.581v10.107a3.016,3.016,0,0,0,.232,1.41,1.089,1.089,0,0,0,.7.516q1.306.36,1.427.361v1.065h-1.633Q751.766,454.292,751.766,451.043Z" transform="translate(-315.68 -81.015)"/>
      <path class="cls-1" d="M766.841,441.752a4.189,4.189,0,0,1,.988-.146h.817q.412,0,1.874.154t2.132.275v1.272q-.722-.053-2.373-.1-1.839-.069-2.174-.068a5.923,5.923,0,0,0-.593.025,1.66,1.66,0,0,0-.567.181q-.567.293-.567,1.427v1q0,.98.387,1.264a2.181,2.181,0,0,0,1.263.283h2.3q2.767,0,2.768,3.061v1.083a2.561,2.561,0,0,1-1.53,2.664,4.82,4.82,0,0,1-1.8.31,24.5,24.5,0,0,1-2.45-.146,21.265,21.265,0,0,1-2.149-.3v-1.271q1.891.189,3.249.188t1.564-.017a3.377,3.377,0,0,0,.516-.095,1.65,1.65,0,0,0,.516-.215,1.269,1.269,0,0,0,.5-1.1v-1.031a1.931,1.931,0,0,0-.292-1.144,1.215,1.215,0,0,0-1.049-.4h-2.269q-2.235,0-2.836-1.41a4.352,4.352,0,0,1-.275-1.65v-1.117a2.84,2.84,0,0,1,.979-2.492A3.3,3.3,0,0,1,766.841,441.752Z" transform="translate(-315.68 -81.015)"/>
      <path class="cls-1" d="M776.554,446.711a2.968,2.968,0,0,1,.516-.834,1.884,1.884,0,0,1,.773-.489,7.148,7.148,0,0,1,2.3-.293,5.755,5.755,0,0,1,2.373.327,1.9,1.9,0,0,1,.911.963,5.3,5.3,0,0,1,.309,1.977q0,2.149-2.406,2.148H777.74a3.405,3.405,0,0,0,.378,1.942,1.71,1.71,0,0,0,1.41.481,29.663,29.663,0,0,0,4.04-.188V453.9a15.762,15.762,0,0,1-4.4.481,2.578,2.578,0,0,1-2.373-1.015,6.638,6.638,0,0,1-.636-3.369A9.374,9.374,0,0,1,776.554,446.711Zm5.6,1.616a5.188,5.188,0,0,0-.069-.98.916.916,0,0,0-.3-.523,1.125,1.125,0,0,0-.576-.25,6.206,6.206,0,0,0-.885-.052q-.541,0-.748.009c-.138.006-.307.021-.507.043a1.667,1.667,0,0,0-.438.095,2.089,2.089,0,0,0-.327.189.7.7,0,0,0-.266.317c-.052.127-.106.281-.164.465a5.577,5.577,0,0,0-.137,1.479h3.421Q782.158,449.118,782.158,448.327Z" transform="translate(-315.68 -81.015)"/>
      <path class="cls-1" d="M789.721,445.645a5.923,5.923,0,0,1,.929-.387,4.174,4.174,0,0,1,1.341-.2,2.742,2.742,0,0,1,1.048.138v1.547a7.627,7.627,0,0,0-1.324-.086,4.841,4.841,0,0,0-1.521.215,7.715,7.715,0,0,0-1.556.782v6.636h-1.581v-9.128h1.2l.378,1.151.4-.258Q789.377,445.835,789.721,445.645Z" transform="translate(-315.68 -81.015)"/>
      <path class="cls-1" d="M795.411,445.164h1.7l2.63,7,2.665-7h1.7l-3.559,9.128h-1.667Z" transform="translate(-315.68 -81.015)"/>
      <path class="cls-1" d="M806.946,443.72v-1.083q0-.447.413-.446h1.117a.353.353,0,0,1,.292.129.493.493,0,0,1,.1.317v1.083a.35.35,0,0,1-.4.4h-1.117a.406.406,0,0,1-.3-.111A.385.385,0,0,1,806.946,443.72Zm.137,10.572v-9.128h1.582v9.128Z" transform="translate(-315.68 -81.015)"/>
      <path class="cls-1" d="M812.344,451.714a11.153,11.153,0,0,1-.155-1.994,11.669,11.669,0,0,1,.146-1.986,5.068,5.068,0,0,1,.4-1.341,2.314,2.314,0,0,1,.645-.816,3.039,3.039,0,0,1,1.822-.5,16.2,16.2,0,0,1,2.209.163,17.177,17.177,0,0,1,1.779.318v1.065q-2.183-.1-3.137-.1a8.87,8.87,0,0,0-1.169.043,1.214,1.214,0,0,0-.456.216,1.021,1.021,0,0,0-.361.516,7,7,0,0,0-.292,2.286,9.665,9.665,0,0,0,.172,2.157,1.56,1.56,0,0,0,.524.929,1.8,1.8,0,0,0,1.04.249q1.375,0,3.2-.12l.6-.052v1.117a9.616,9.616,0,0,1-2.682.481,10.361,10.361,0,0,1-2.3-.043,2.565,2.565,0,0,1-.919-.43,2.178,2.178,0,0,1-.653-.809A5.253,5.253,0,0,1,812.344,451.714Z" transform="translate(-315.68 -81.015)"/>
      <path class="cls-1" d="M822.52,446.711a2.968,2.968,0,0,1,.516-.834,1.884,1.884,0,0,1,.773-.489,7.148,7.148,0,0,1,2.3-.293,5.755,5.755,0,0,1,2.373.327,1.9,1.9,0,0,1,.911.963,5.3,5.3,0,0,1,.309,1.977q0,2.149-2.406,2.148h-3.593a3.405,3.405,0,0,0,.378,1.942,1.71,1.71,0,0,0,1.41.481,29.663,29.663,0,0,0,4.04-.188V453.9a15.762,15.762,0,0,1-4.4.481,2.578,2.578,0,0,1-2.373-1.015,6.638,6.638,0,0,1-.636-3.369A9.374,9.374,0,0,1,822.52,446.711Zm5.6,1.616a5.188,5.188,0,0,0-.069-.98.916.916,0,0,0-.3-.523,1.125,1.125,0,0,0-.576-.25,6.206,6.206,0,0,0-.885-.052q-.541,0-.748.009c-.138.006-.307.021-.507.043a1.667,1.667,0,0,0-.438.095,2.089,2.089,0,0,0-.327.189.7.7,0,0,0-.266.317c-.052.127-.106.281-.164.465a5.577,5.577,0,0,0-.137,1.479h3.421Q828.124,449.118,828.125,448.327Z" transform="translate(-315.68 -81.015)"/>
      <path class="cls-1" d="M835.129,445.078q1.332,0,2.733.12t1.8.206v1.135h-4.383q-.654,0-.825.206a1.08,1.08,0,0,0-.172.688v.688q0,.618.292.756a1.627,1.627,0,0,0,.705.12h2.561a2.53,2.53,0,0,1,1.29.31,2.065,2.065,0,0,1,1,1.96v.859a1.983,1.983,0,0,1-2.235,2.252q-.877,0-2.613-.129a16.79,16.79,0,0,1-2.2-.249v-1.1h4.607q.86,0,.86-.825v-.722a.8.8,0,0,0-.327-.757,1.2,1.2,0,0,0-.533-.1h-2.561a2.76,2.76,0,0,1-1.839-.508,2.288,2.288,0,0,1-.584-1.8V447.4a2.063,2.063,0,0,1,2.432-2.32Z" transform="translate(-315.68 -81.015)"/>
      <path class="cls-1" d="M849.784,452.057V441.709h1.582v10.159q0,.653.361.791a1.958,1.958,0,0,0,.7.1h5v1.53h-5.243q-1.753,0-2.217-1.083A3.057,3.057,0,0,1,849.784,452.057Z" transform="translate(-315.68 -81.015)"/>
      <path class="cls-1" d="M862.384,442.6v2.544h2.493v1.427h-2.493v4.35a3.014,3.014,0,0,0,.232,1.409,1.089,1.089,0,0,0,.7.516q1.306.362,1.427.361v1.065h-1.667q-2.269,0-2.27-3.249v-4.452H859.17v-1.065l1.633-.361.344-2.544Z" transform="translate(-315.68 -81.015)"/>
      <path class="cls-1" d="M867.886,449.77a6.487,6.487,0,0,1,.825-3.8,2.554,2.554,0,0,1,2.166-.945,7.264,7.264,0,0,1,1.8.232,10.85,10.85,0,0,1,1.41.438v-4.9h1.564v13.494h-1.2l-.361-1a5.926,5.926,0,0,1-1.444.722,5.064,5.064,0,0,1-1.771.379Q867.886,454.4,867.886,449.77Zm1.582-.017q0,3.163,1.582,3.163a7.416,7.416,0,0,0,3.042-.739v-5.295a11.376,11.376,0,0,0-3.042-.412,1.417,1.417,0,0,0-.86.24Q869.468,447.278,869.467,449.754Z" transform="translate(-315.68 -81.015)"/>
      <path class="cls-1" d="M879.678,453.9v-1.135q0-.429.413-.43h1.066a.38.38,0,0,1,.43.43V453.9q0,.4-.43.4h-1.066a.414.414,0,0,1-.292-.111A.371.371,0,0,1,879.678,453.9Z" transform="translate(-315.68 -81.015)"/>
      <path class="cls-1" d="M892.055,455.529V441.056h1.479v14.474Z" transform="translate(-315.68 -81.015)"/>
      <path class="cls-1" d="M903.349,454.292l4.521-12.583h1.667l4.332,12.583h-1.805l-1.031-3.317h-4.762l-1.083,3.317Zm3.421-4.813h3.782l-1.856-5.5Z" transform="translate(-315.68 -81.015)"/>
      <path class="cls-1" d="M916.929,451.043V440.832h1.581v10.107a3.016,3.016,0,0,0,.232,1.41,1.089,1.089,0,0,0,.7.516q1.306.36,1.427.361v1.065h-1.633Q916.929,454.292,916.929,451.043Z" transform="translate(-315.68 -81.015)"/>
      <path class="cls-1" d="M923.857,451.043V440.832h1.581v10.107a3.016,3.016,0,0,0,.232,1.41,1.089,1.089,0,0,0,.7.516q1.306.36,1.427.361v1.065H926.16Q923.857,454.292,923.857,451.043Z" transform="translate(-315.68 -81.015)"/>
      <path class="cls-1" d="M942.234,441.709q3.042,0,3.042,3.815a5.441,5.441,0,0,1-.2,1.745q-.2.524-.335.8a1.535,1.535,0,0,1-.335.455q-.2.18-.344.292a1.477,1.477,0,0,1-.37.2,4.068,4.068,0,0,1-.55.154l2.578,5.123h-1.736l-2.493-5.037-3.077-.24v5.277h-1.582V441.709Zm-3.816,5.965h3.748q.945,0,1.22-.5a3.032,3.032,0,0,0,.292-1.452,6.168,6.168,0,0,0-.121-1.4,1.329,1.329,0,0,0-1.392-1.1h-3.748Z" transform="translate(-315.68 -81.015)"/>
      <path class="cls-1" d="M948.611,443.72v-1.083q0-.447.413-.446h1.117a.353.353,0,0,1,.292.129.493.493,0,0,1,.1.317v1.083a.35.35,0,0,1-.4.4h-1.117a.406.406,0,0,1-.3-.111A.385.385,0,0,1,948.611,443.72Zm.137,10.572v-9.128h1.582v9.128Z" transform="translate(-315.68 -81.015)"/>
      <path class="cls-1" d="M953.819,452.366a1.771,1.771,0,0,1,.258-.928,1.165,1.165,0,0,1,.756-.55,2.607,2.607,0,0,1-1-2.381,3.57,3.57,0,0,1,.791-2.562,2.968,2.968,0,0,1,2.235-.816h5.415v1.083l-1.29.309c.011.023.052.1.121.224a2.416,2.416,0,0,1,.137.284c.023.063.057.169.1.317a3.279,3.279,0,0,1,.121.946,6.224,6.224,0,0,1-.06.937,3.882,3.882,0,0,1-.25.851,2.845,2.845,0,0,1-.5.816,2.407,2.407,0,0,1-.851.594,3.049,3.049,0,0,1-1.247.24h-2.527q-.705,0-.705.481,0,.551.705.55h3.421a2.277,2.277,0,0,1,1.736.653,2.519,2.519,0,0,1,.619,1.806v1.065a2.322,2.322,0,0,1-1.53,2.476,3.387,3.387,0,0,1-1.135.172H956.57a2.558,2.558,0,0,1-2.407-1.169,2.833,2.833,0,0,1-.361-1.479v-1.375l.705-1.049A1.672,1.672,0,0,1,953.819,452.366Zm2.321,1.857a2.162,2.162,0,0,1-.756-.121v2.1q0,.842.464,1.083a1.874,1.874,0,0,0,.911.206h2.252a1.158,1.158,0,0,0,.954-.335,1.47,1.47,0,0,0,.267-.937v-.911a1.24,1.24,0,0,0-.224-.834,1.169,1.169,0,0,0-.876-.249Zm.739-3.937h1.479a1.407,1.407,0,0,0,1.478-1.272,2.2,2.2,0,0,0,.052-.413,2.659,2.659,0,0,0-.344-1.556,1.421,1.421,0,0,0-1.2-.455h-1.375q-1.547,0-1.547,1.848T956.879,450.287Z" transform="translate(-315.68 -81.015)"/>
      <path class="cls-1" d="M966.849,440.814v5.4c.035-.023.129-.083.284-.181s.252-.157.292-.181.131-.077.275-.163a2.206,2.206,0,0,1,.31-.164q.094-.034.3-.129c.138-.062.246-.108.327-.137s.186-.063.318-.1a1.962,1.962,0,0,1,.37-.077,5.185,5.185,0,0,1,.773-.069,2.534,2.534,0,0,1,2.063.868,3.211,3.211,0,0,1,.722,2.123v6.292H971.3V448a1.6,1.6,0,0,0-.378-1.16,1.52,1.52,0,0,0-1.134-.387,4.012,4.012,0,0,0-1.341.206,14.37,14.37,0,0,0-1.6.723v6.91h-1.581V440.814Z" transform="translate(-315.68 -81.015)"/>
      <path class="cls-1" d="M978.762,442.6v2.544h2.493v1.427h-2.493v4.35a3.014,3.014,0,0,0,.232,1.409,1.089,1.089,0,0,0,.7.516q1.306.362,1.427.361v1.065H979.45q-2.269,0-2.27-3.249v-4.452h-1.633v-1.065l1.633-.361.344-2.544Z" transform="translate(-315.68 -81.015)"/>
      <path class="cls-1" d="M986.524,445.078q1.332,0,2.733.12t1.8.206v1.135H986.67q-.654,0-.825.206a1.08,1.08,0,0,0-.172.688v.688q0,.618.292.756a1.627,1.627,0,0,0,.705.12h2.561a2.53,2.53,0,0,1,1.29.31,2.065,2.065,0,0,1,1,1.96v.859a1.983,1.983,0,0,1-2.235,2.252q-.877,0-2.613-.129a16.79,16.79,0,0,1-2.2-.249v-1.1h4.607q.86,0,.86-.825v-.722a.8.8,0,0,0-.327-.757,1.2,1.2,0,0,0-.533-.1h-2.561a2.76,2.76,0,0,1-1.839-.508,2.288,2.288,0,0,1-.584-1.8V447.4a2.063,2.063,0,0,1,2.432-2.32Z" transform="translate(-315.68 -81.015)"/>
      <path class="cls-1" d="M1006.284,441.709q3.042,0,3.042,3.815a5.441,5.441,0,0,1-.2,1.745q-.2.524-.335.8a1.535,1.535,0,0,1-.335.455q-.2.18-.344.292a1.477,1.477,0,0,1-.37.2,4.068,4.068,0,0,1-.55.154l2.578,5.123h-1.736l-2.493-5.037-3.077-.24v5.277h-1.582V441.709Zm-3.816,5.965h3.748q.945,0,1.22-.5a3.032,3.032,0,0,0,.292-1.452,6.168,6.168,0,0,0-.121-1.4,1.329,1.329,0,0,0-1.392-1.1h-3.748Z" transform="translate(-315.68 -81.015)"/>
      <path class="cls-1" d="M1012.713,446.711a2.968,2.968,0,0,1,.516-.834,1.884,1.884,0,0,1,.773-.489,7.148,7.148,0,0,1,2.3-.293,5.755,5.755,0,0,1,2.373.327,1.9,1.9,0,0,1,.911.963,5.3,5.3,0,0,1,.309,1.977q0,2.149-2.406,2.148H1013.9a3.405,3.405,0,0,0,.378,1.942,1.71,1.71,0,0,0,1.41.481,29.663,29.663,0,0,0,4.04-.188V453.9a15.762,15.762,0,0,1-4.4.481,2.578,2.578,0,0,1-2.373-1.015,6.638,6.638,0,0,1-.636-3.369A9.374,9.374,0,0,1,1012.713,446.711Zm5.6,1.616a5.188,5.188,0,0,0-.069-.98.916.916,0,0,0-.3-.523,1.125,1.125,0,0,0-.576-.25,6.206,6.206,0,0,0-.885-.052q-.541,0-.748.009c-.138.006-.307.021-.507.043a1.667,1.667,0,0,0-.438.095,2.089,2.089,0,0,0-.327.189.7.7,0,0,0-.266.317c-.052.127-.106.281-.164.465a5.577,5.577,0,0,0-.137,1.479h3.421Q1018.317,449.118,1018.318,448.327Z" transform="translate(-315.68 -81.015)"/>
      <path class="cls-1" d="M1025.322,445.078q1.332,0,2.733.12t1.8.206v1.135h-4.383q-.654,0-.825.206a1.08,1.08,0,0,0-.172.688v.688q0,.618.292.756a1.627,1.627,0,0,0,.705.12h2.561a2.53,2.53,0,0,1,1.29.31,2.065,2.065,0,0,1,1,1.96v.859a1.983,1.983,0,0,1-2.235,2.252q-.877,0-2.613-.129a16.79,16.79,0,0,1-2.2-.249v-1.1h4.607q.86,0,.86-.825v-.722a.8.8,0,0,0-.327-.757,1.2,1.2,0,0,0-.533-.1h-2.561a2.76,2.76,0,0,1-1.839-.508,2.288,2.288,0,0,1-.584-1.8V447.4a2.063,2.063,0,0,1,2.432-2.32Z" transform="translate(-315.68 -81.015)"/>
      <path class="cls-1" d="M1033.875,446.711a2.968,2.968,0,0,1,.516-.834,1.884,1.884,0,0,1,.773-.489,7.148,7.148,0,0,1,2.3-.293,5.755,5.755,0,0,1,2.373.327,1.9,1.9,0,0,1,.911.963,5.3,5.3,0,0,1,.309,1.977q0,2.149-2.406,2.148h-3.593a3.405,3.405,0,0,0,.378,1.942,1.71,1.71,0,0,0,1.41.481,29.663,29.663,0,0,0,4.04-.188V453.9a15.762,15.762,0,0,1-4.4.481,2.578,2.578,0,0,1-2.373-1.015,6.638,6.638,0,0,1-.636-3.369A9.374,9.374,0,0,1,1033.875,446.711Zm5.6,1.616a5.188,5.188,0,0,0-.069-.98.916.916,0,0,0-.3-.523,1.125,1.125,0,0,0-.576-.25,6.206,6.206,0,0,0-.885-.052q-.541,0-.748.009c-.138.006-.307.021-.507.043a1.667,1.667,0,0,0-.438.095,2.089,2.089,0,0,0-.327.189.7.7,0,0,0-.266.317c-.052.127-.106.281-.164.465a5.577,5.577,0,0,0-.137,1.479h3.421Q1039.479,449.118,1039.479,448.327Z" transform="translate(-315.68 -81.015)"/>
      <path class="cls-1" d="M1047.042,445.645a5.923,5.923,0,0,1,.929-.387,4.174,4.174,0,0,1,1.341-.2,2.742,2.742,0,0,1,1.048.138v1.547a7.627,7.627,0,0,0-1.324-.086,4.841,4.841,0,0,0-1.521.215,7.715,7.715,0,0,0-1.556.782v6.636h-1.581v-9.128h1.2l.378,1.151.4-.258Q1046.7,445.835,1047.042,445.645Z" transform="translate(-315.68 -81.015)"/>
      <path class="cls-1" d="M1052.732,445.164h1.7l2.63,7,2.665-7h1.7l-3.559,9.128H1056.2Z" transform="translate(-315.68 -81.015)"/>
      <path class="cls-1" d="M1064.319,446.711a2.968,2.968,0,0,1,.516-.834,1.884,1.884,0,0,1,.773-.489,7.148,7.148,0,0,1,2.3-.293,5.755,5.755,0,0,1,2.373.327,1.9,1.9,0,0,1,.911.963,5.3,5.3,0,0,1,.309,1.977q0,2.149-2.406,2.148h-3.593a3.405,3.405,0,0,0,.378,1.942,1.71,1.71,0,0,0,1.41.481,29.663,29.663,0,0,0,4.04-.188V453.9a15.762,15.762,0,0,1-4.4.481,2.578,2.578,0,0,1-2.373-1.015,6.638,6.638,0,0,1-.636-3.369A9.374,9.374,0,0,1,1064.319,446.711Zm5.6,1.616a5.188,5.188,0,0,0-.069-.98.916.916,0,0,0-.3-.523,1.125,1.125,0,0,0-.576-.25,6.206,6.206,0,0,0-.885-.052q-.541,0-.748.009c-.138.006-.307.021-.507.043a1.667,1.667,0,0,0-.438.095,2.089,2.089,0,0,0-.327.189.7.7,0,0,0-.266.317c-.052.127-.106.281-.164.465a5.577,5.577,0,0,0-.137,1.479h3.421Q1069.923,449.118,1069.923,448.327Z" transform="translate(-315.68 -81.015)"/>
      <path class="cls-1" d="M1074.667,449.77a6.487,6.487,0,0,1,.825-3.8,2.554,2.554,0,0,1,2.166-.945,7.264,7.264,0,0,1,1.8.232,10.85,10.85,0,0,1,1.41.438v-4.9h1.564v13.494h-1.2l-.361-1a5.926,5.926,0,0,1-1.444.722,5.064,5.064,0,0,1-1.771.379Q1074.667,454.4,1074.667,449.77Zm1.582-.017q0,3.163,1.582,3.163a7.416,7.416,0,0,0,3.042-.739v-5.295a11.376,11.376,0,0,0-3.042-.412,1.417,1.417,0,0,0-.86.24Q1076.249,447.278,1076.249,449.754Z" transform="translate(-315.68 -81.015)"/>
      <path class="cls-1" d="M1092.493,455.529V441.056h1.479v14.474Z" transform="translate(-315.68 -81.015)"/>
      <path class="cls-1" d="M1104.062,454.292V441.709h5.226q3.146,0,3.146,3.713,0,3.249-1.942,3.747a3.04,3.04,0,0,1-.808.138q-.327,0-.6-.009t-1.822-.154q-1.547-.146-1.616-.181v5.329Zm5.174-11.07h-3.593v4.572h3.593a1.547,1.547,0,0,0,1.117-.4,2.886,2.886,0,0,0,.481-1.977,2.344,2.344,0,0,0-.584-1.874A1.676,1.676,0,0,0,1109.236,443.222Z" transform="translate(-315.68 -81.015)"/>
      <path class="cls-1" d="M1118.485,445.645a5.923,5.923,0,0,1,.929-.387,4.174,4.174,0,0,1,1.341-.2,2.742,2.742,0,0,1,1.048.138v1.547a7.627,7.627,0,0,0-1.324-.086,4.841,4.841,0,0,0-1.521.215,7.715,7.715,0,0,0-1.556.782v6.636h-1.581v-9.128h1.2l.378,1.151.4-.258Q1118.141,445.835,1118.485,445.645Z" transform="translate(-315.68 -81.015)"/>
      <path class="cls-1" d="M1124.656,443.72v-1.083q0-.447.413-.446h1.117a.353.353,0,0,1,.292.129.493.493,0,0,1,.1.317v1.083a.35.35,0,0,1-.4.4h-1.117a.406.406,0,0,1-.3-.111A.385.385,0,0,1,1124.656,443.72Zm.137,10.572v-9.128h1.582v9.128Z" transform="translate(-315.68 -81.015)"/>
      <path class="cls-1" d="M1129.418,445.164h1.7l2.63,7,2.665-7h1.7l-3.559,9.128h-1.667Z" transform="translate(-315.68 -81.015)"/>
      <path class="cls-1" d="M1140.729,445.542a15.092,15.092,0,0,1,4.435-.55,2.548,2.548,0,0,1,2.373,1.135,3.087,3.087,0,0,1,.378,1.6v6.566h-1.2l-.378-1.065a4.574,4.574,0,0,1-.567.317,9.984,9.984,0,0,1-1.392.559,4.968,4.968,0,0,1-1.547.293,2.386,2.386,0,0,1-1.728-.637,2.227,2.227,0,0,1-.662-1.685v-1a2.2,2.2,0,0,1,2.389-2.338h3.507q.017-.5.017-.747c0-.166,0-.3-.008-.4a1.91,1.91,0,0,0-.069-.378,1.159,1.159,0,0,0-.172-.379.781.781,0,0,0-.284-.24,1.511,1.511,0,0,0-.842-.172q-1.41,0-4.246.188Zm1.29,6.378q0,1.031.979,1.031a5.786,5.786,0,0,0,1.4-.215,14.316,14.316,0,0,0,1.384-.421l.55-.207v-2.234l-3.369.24a.943.943,0,0,0-.945,1.066Z" transform="translate(-315.68 -81.015)"/>
      <path class="cls-1" d="M1151.4,451.714a11.153,11.153,0,0,1-.155-1.994,11.669,11.669,0,0,1,.146-1.986,5.068,5.068,0,0,1,.4-1.341,2.314,2.314,0,0,1,.645-.816,3.039,3.039,0,0,1,1.822-.5,16.2,16.2,0,0,1,2.209.163,17.177,17.177,0,0,1,1.779.318v1.065q-2.183-.1-3.137-.1a8.87,8.87,0,0,0-1.169.043,1.214,1.214,0,0,0-.456.216,1.021,1.021,0,0,0-.361.516,7,7,0,0,0-.292,2.286,9.665,9.665,0,0,0,.172,2.157,1.56,1.56,0,0,0,.524.929,1.8,1.8,0,0,0,1.04.249q1.375,0,3.2-.12l.6-.052v1.117a9.616,9.616,0,0,1-2.682.481,10.361,10.361,0,0,1-2.3-.043,2.565,2.565,0,0,1-.919-.43,2.178,2.178,0,0,1-.653-.809A5.253,5.253,0,0,1,1151.4,451.714Z" transform="translate(-315.68 -81.015)"/>
      <path class="cls-1" d="M1161.065,445.164h1.7l2.028,6.928a.838.838,0,0,0,1.048.688l.035-.018,2.407-7.6H1170l-3.8,12.016-1.272,1.754h-1.048l1.53-4.642q-1.65,0-2.235-2.012Z" transform="translate(-315.68 -81.015)"/>
      <path class="cls-1" d="M1181.178,441.752a4.189,4.189,0,0,1,.988-.146h.817q.412,0,1.874.154t2.132.275v1.272q-.722-.053-2.373-.1-1.839-.069-2.174-.068a5.923,5.923,0,0,0-.593.025,1.66,1.66,0,0,0-.567.181q-.567.293-.567,1.427v1q0,.98.387,1.264a2.181,2.181,0,0,0,1.263.283h2.3q2.767,0,2.768,3.061v1.083a2.561,2.561,0,0,1-1.53,2.664,4.82,4.82,0,0,1-1.8.31,24.5,24.5,0,0,1-2.45-.146,21.265,21.265,0,0,1-2.149-.3v-1.271q1.891.189,3.249.188t1.564-.017a3.377,3.377,0,0,0,.516-.095,1.65,1.65,0,0,0,.516-.215,1.269,1.269,0,0,0,.5-1.1v-1.031a1.931,1.931,0,0,0-.292-1.144,1.215,1.215,0,0,0-1.049-.4h-2.269q-2.235,0-2.836-1.41a4.352,4.352,0,0,1-.275-1.65v-1.117a2.84,2.84,0,0,1,.979-2.492A3.3,3.3,0,0,1,1181.178,441.752Z" transform="translate(-315.68 -81.015)"/>
      <path class="cls-1" d="M1192.97,442.6v2.544h2.493v1.427h-2.493v4.35a3.014,3.014,0,0,0,.232,1.409,1.089,1.089,0,0,0,.7.516q1.306.362,1.427.361v1.065h-1.667q-2.269,0-2.27-3.249v-4.452h-1.633v-1.065l1.633-.361.344-2.544Z" transform="translate(-315.68 -81.015)"/>
      <path class="cls-1" d="M1198.591,445.542a15.092,15.092,0,0,1,4.435-.55,2.548,2.548,0,0,1,2.373,1.135,3.087,3.087,0,0,1,.378,1.6v6.566h-1.2l-.378-1.065a4.574,4.574,0,0,1-.567.317,9.984,9.984,0,0,1-1.392.559,4.968,4.968,0,0,1-1.547.293,2.386,2.386,0,0,1-1.728-.637,2.227,2.227,0,0,1-.662-1.685v-1a2.2,2.2,0,0,1,2.389-2.338h3.507q.017-.5.017-.747c0-.166,0-.3-.008-.4a1.91,1.91,0,0,0-.069-.378,1.159,1.159,0,0,0-.172-.379.781.781,0,0,0-.284-.24,1.511,1.511,0,0,0-.842-.172q-1.41,0-4.246.188Zm1.29,6.378q0,1.031.979,1.031a5.786,5.786,0,0,0,1.4-.215,14.316,14.316,0,0,0,1.384-.421l.55-.207v-2.234l-3.369.24a.943.943,0,0,0-.945,1.066Z" transform="translate(-315.68 -81.015)"/>
      <path class="cls-1" d="M1211.845,442.6v2.544h2.493v1.427h-2.493v4.35a3.014,3.014,0,0,0,.232,1.409,1.089,1.089,0,0,0,.7.516q1.306.362,1.427.361v1.065h-1.667q-2.269,0-2.27-3.249v-4.452h-1.633v-1.065l1.633-.361.344-2.544Z" transform="translate(-315.68 -81.015)"/>
      <path class="cls-1" d="M1217.741,446.711a2.968,2.968,0,0,1,.516-.834,1.884,1.884,0,0,1,.773-.489,7.148,7.148,0,0,1,2.3-.293,5.755,5.755,0,0,1,2.373.327,1.9,1.9,0,0,1,.911.963,5.3,5.3,0,0,1,.309,1.977q0,2.149-2.406,2.148h-3.593a3.405,3.405,0,0,0,.378,1.942,1.71,1.71,0,0,0,1.41.481,29.663,29.663,0,0,0,4.04-.188V453.9a15.762,15.762,0,0,1-4.4.481,2.578,2.578,0,0,1-2.373-1.015,6.638,6.638,0,0,1-.636-3.369A9.374,9.374,0,0,1,1217.741,446.711Zm5.6,1.616a5.188,5.188,0,0,0-.069-.98.916.916,0,0,0-.3-.523,1.125,1.125,0,0,0-.576-.25,6.206,6.206,0,0,0-.885-.052q-.541,0-.748.009c-.138.006-.307.021-.507.043a1.667,1.667,0,0,0-.438.095,2.089,2.089,0,0,0-.327.189.7.7,0,0,0-.266.317c-.052.127-.106.281-.164.465a5.577,5.577,0,0,0-.137,1.479h3.421Q1223.346,449.118,1223.346,448.327Z" transform="translate(-315.68 -81.015)"/>
      <path class="cls-1" d="M1235.775,447.4v6.894h-1.582v-6.24a1.579,1.579,0,0,0-.4-1.126,1.311,1.311,0,0,0-1-.421,4.694,4.694,0,0,0-1.1.12,5.094,5.094,0,0,0-.834.267q-.335.146-1.04.524v6.876h-1.581v-9.128h1.186l.4,1.065c.069-.034.166-.092.292-.172l.284-.181c.063-.04.155-.094.275-.163s.218-.12.292-.154.169-.08.284-.138a2.025,2.025,0,0,1,.309-.129l.31-.095c.114-.034.229-.062.344-.086a6.63,6.63,0,0,1,.851-.052,3.586,3.586,0,0,1,.954.138,2.23,2.23,0,0,1,1.427,1.151,5.6,5.6,0,0,1,3.576-1.289,2.611,2.611,0,0,1,2.02.834,3.091,3.091,0,0,1,.765,2.175v6.223h-1.582v-6.24a1.449,1.449,0,0,0-.67-1.358,1.989,1.989,0,0,0-1-.188A4.844,4.844,0,0,0,1235.775,447.4Z" transform="translate(-315.68 -81.015)"/>
      <path class="cls-1" d="M1245.349,446.711a2.968,2.968,0,0,1,.516-.834,1.884,1.884,0,0,1,.773-.489,7.148,7.148,0,0,1,2.3-.293,5.755,5.755,0,0,1,2.373.327,1.9,1.9,0,0,1,.911.963,5.3,5.3,0,0,1,.309,1.977q0,2.149-2.406,2.148h-3.593a3.405,3.405,0,0,0,.378,1.942,1.71,1.71,0,0,0,1.41.481,29.663,29.663,0,0,0,4.04-.188V453.9a15.762,15.762,0,0,1-4.4.481,2.578,2.578,0,0,1-2.373-1.015,6.638,6.638,0,0,1-.636-3.369A9.374,9.374,0,0,1,1245.349,446.711Zm5.6,1.616a5.188,5.188,0,0,0-.069-.98.916.916,0,0,0-.3-.523,1.125,1.125,0,0,0-.576-.25,6.206,6.206,0,0,0-.885-.052q-.541,0-.748.009c-.138.006-.307.021-.507.043a1.667,1.667,0,0,0-.438.095,2.089,2.089,0,0,0-.327.189.7.7,0,0,0-.266.317c-.052.127-.106.281-.164.465a5.577,5.577,0,0,0-.137,1.479h3.421Q1250.954,449.118,1250.954,448.327Z" transform="translate(-315.68 -81.015)"/>
      <path class="cls-1" d="M1255.853,454.292v-9.128h1.186l.4,1.049c.035-.023.129-.083.284-.181s.255-.157.3-.181.141-.077.284-.163a2.749,2.749,0,0,1,.3-.164c.058-.022.155-.068.292-.137a1.954,1.954,0,0,1,.327-.138l.318-.095a1.962,1.962,0,0,1,.37-.077,5.185,5.185,0,0,1,.773-.069,2.534,2.534,0,0,1,2.063.868,3.211,3.211,0,0,1,.722,2.123v6.292h-1.582V448a1.358,1.358,0,0,0-.842-1.443,2.332,2.332,0,0,0-.834-.1,3.51,3.51,0,0,0-1.177.206,14.37,14.37,0,0,0-1.6.723v6.91Z" transform="translate(-315.68 -81.015)"/>
      <path class="cls-1" d="M1269.347,442.6v2.544h2.493v1.427h-2.493v4.35a3.014,3.014,0,0,0,.232,1.409,1.089,1.089,0,0,0,.7.516q1.306.362,1.427.361v1.065h-1.667q-2.269,0-2.27-3.249v-4.452h-1.633v-1.065l1.633-.361.344-2.544Z" transform="translate(-315.68 -81.015)"/>
      <path class="cls-1" d="M1281.431,455.529V441.056h1.479v14.474Z" transform="translate(-315.68 -81.015)"/>
      <path class="cls-1" d="M1292.708,443.238v-1.529h8.888v1.529h-3.7v11.054h-1.582V443.238Z" transform="translate(-315.68 -81.015)"/>
      <path class="cls-1" d="M1302.18,446.711a2.968,2.968,0,0,1,.516-.834,1.884,1.884,0,0,1,.773-.489,7.148,7.148,0,0,1,2.3-.293,5.755,5.755,0,0,1,2.373.327,1.9,1.9,0,0,1,.911.963,5.3,5.3,0,0,1,.309,1.977q0,2.149-2.406,2.148h-3.593a3.405,3.405,0,0,0,.378,1.942,1.71,1.71,0,0,0,1.41.481,29.663,29.663,0,0,0,4.04-.188V453.9a15.762,15.762,0,0,1-4.4.481,2.578,2.578,0,0,1-2.373-1.015,6.638,6.638,0,0,1-.636-3.369A9.374,9.374,0,0,1,1302.18,446.711Zm5.6,1.616a5.188,5.188,0,0,0-.069-.98.916.916,0,0,0-.3-.523,1.125,1.125,0,0,0-.576-.25,6.206,6.206,0,0,0-.885-.052q-.541,0-.748.009c-.138.006-.307.021-.507.043a1.667,1.667,0,0,0-.438.095,2.089,2.089,0,0,0-.327.189.7.7,0,0,0-.266.317c-.052.127-.106.281-.164.465a5.577,5.577,0,0,0-.137,1.479h3.421Q1307.785,449.118,1307.785,448.327Z" transform="translate(-315.68 -81.015)"/>
      <path class="cls-1" d="M1315.348,445.645a5.923,5.923,0,0,1,.929-.387,4.174,4.174,0,0,1,1.341-.2,2.742,2.742,0,0,1,1.048.138v1.547a7.627,7.627,0,0,0-1.324-.086,4.841,4.841,0,0,0-1.521.215,7.715,7.715,0,0,0-1.556.782v6.636h-1.581v-9.128h1.2l.378,1.151.4-.258Q1315,445.835,1315.348,445.645Z" transform="translate(-315.68 -81.015)"/>
      <path class="cls-1" d="M1329.2,447.4v6.894h-1.582v-6.24a1.579,1.579,0,0,0-.4-1.126,1.311,1.311,0,0,0-1-.421,4.694,4.694,0,0,0-1.1.12,5.094,5.094,0,0,0-.834.267q-.335.146-1.04.524v6.876h-1.581v-9.128h1.186l.4,1.065c.069-.034.166-.092.292-.172l.284-.181c.063-.04.155-.094.275-.163s.218-.12.292-.154.169-.08.284-.138a2.025,2.025,0,0,1,.309-.129l.31-.095c.114-.034.229-.062.344-.086a6.63,6.63,0,0,1,.851-.052,3.586,3.586,0,0,1,.954.138,2.23,2.23,0,0,1,1.427,1.151,5.6,5.6,0,0,1,3.576-1.289,2.611,2.611,0,0,1,2.02.834,3.091,3.091,0,0,1,.765,2.175v6.223h-1.582v-6.24a1.449,1.449,0,0,0-.67-1.358,1.989,1.989,0,0,0-1-.188A4.844,4.844,0,0,0,1329.2,447.4Z" transform="translate(-315.68 -81.015)"/>
      <path class="cls-1" d="M1340.644,445.078q1.332,0,2.733.12t1.8.206v1.135h-4.383q-.654,0-.825.206a1.08,1.08,0,0,0-.172.688v.688q0,.618.292.756a1.627,1.627,0,0,0,.705.12h2.561a2.53,2.53,0,0,1,1.29.31,2.065,2.065,0,0,1,1,1.96v.859a1.983,1.983,0,0,1-2.235,2.252q-.877,0-2.613-.129a16.79,16.79,0,0,1-2.2-.249v-1.1h4.607q.86,0,.86-.825v-.722a.8.8,0,0,0-.327-.757,1.2,1.2,0,0,0-.533-.1h-2.561a2.76,2.76,0,0,1-1.839-.508,2.288,2.288,0,0,1-.584-1.8V447.4a2.063,2.063,0,0,1,2.432-2.32Z" transform="translate(-315.68 -81.015)"/>
      <path class="cls-1" d="M1354.818,449.856a8.413,8.413,0,0,1,.4-2.9,2.547,2.547,0,0,1,1.255-1.453,5.588,5.588,0,0,1,2.407-.421,4.02,4.02,0,0,1,3.189,1.031,5.825,5.825,0,0,1,.868,3.67,5.589,5.589,0,0,1-.868,3.619,5.571,5.571,0,0,1-6.36-.035A5.368,5.368,0,0,1,1354.818,449.856Zm1.831-2.234a3.486,3.486,0,0,0-.2.92c-.034.36-.051.788-.051,1.28a10.971,10.971,0,0,0,.06,1.255,2.838,2.838,0,0,0,.215.852,2.079,2.079,0,0,0,.335.532,1.128,1.128,0,0,0,.507.3,3.617,3.617,0,0,0,1.221.164,10.61,10.61,0,0,0,1.065-.052,2.158,2.158,0,0,0,.679-.206,1.091,1.091,0,0,0,.507-.508,5.533,5.533,0,0,0,.361-2.3,7.266,7.266,0,0,0-.189-2.088,3.029,3.029,0,0,0-.353-.723,1.061,1.061,0,0,0-.473-.335,3.375,3.375,0,0,0-1.221-.189q-.739,0-1.048.035a2.818,2.818,0,0,0-.627.146,1,1,0,0,0-.481.327A2.43,2.43,0,0,0,1356.648,447.622Z" transform="translate(-315.68 -81.015)"/>
      <path class="cls-1" d="M1365.424,446.591v-1.135l1.6-.292v-1.7a4.1,4.1,0,0,1,.121-1.2,3.722,3.722,0,0,1,.232-.55,1.393,1.393,0,0,1,.292-.37,2.778,2.778,0,0,1,.4-.3,2.908,2.908,0,0,1,1.4-.258,7.038,7.038,0,0,1,2.192.413v1l-1.977-.018q-.86-.018-1.014.567a4.125,4.125,0,0,0-.069.877v1.547h2.407v1.427H1368.6v7.7h-1.582v-7.7Z" transform="translate(-315.68 -81.015)"/>
      <path class="cls-1" d="M1385.725,454.378h-.241a5.515,5.515,0,0,1-2.682-.43,4.616,4.616,0,0,1-.705-.61,2.654,2.654,0,0,1-.6-.988,11.372,11.372,0,0,1-.481-3.559v-7.082h1.582v7.082a9.963,9.963,0,0,0,.112,1.8q.112.533.189.834a1.516,1.516,0,0,0,.232.516q.155.215.284.37a.987.987,0,0,0,.361.258,3.509,3.509,0,0,0,.4.154,2.812,2.812,0,0,0,.464.086c.3.023.622.034.971.034s.619,0,.808-.017a3.089,3.089,0,0,0,.627-.112,1.845,1.845,0,0,0,.567-.249,2.321,2.321,0,0,0,.464-.455,2.037,2.037,0,0,0,.361-.731,8.31,8.31,0,0,0,.31-2.492v-7.082h1.6v7.082q0,3.369-1.186,4.521a4.453,4.453,0,0,1-.739.618,2.523,2.523,0,0,1-.894.31A9.865,9.865,0,0,1,1385.725,454.378Z" transform="translate(-315.68 -81.015)"/>
      <path class="cls-1" d="M1396.082,445.078q1.332,0,2.733.12t1.8.206v1.135h-4.383q-.654,0-.825.206a1.08,1.08,0,0,0-.172.688v.688q0,.618.292.756a1.627,1.627,0,0,0,.705.12h2.561a2.53,2.53,0,0,1,1.29.31,2.065,2.065,0,0,1,1,1.96v.859a1.983,1.983,0,0,1-2.235,2.252q-.877,0-2.613-.129a16.79,16.79,0,0,1-2.2-.249v-1.1h4.607q.86,0,.86-.825v-.722a.8.8,0,0,0-.327-.757,1.2,1.2,0,0,0-.533-.1h-2.561a2.76,2.76,0,0,1-1.839-.508,2.288,2.288,0,0,1-.584-1.8V447.4a2.063,2.063,0,0,1,2.432-2.32Z" transform="translate(-315.68 -81.015)"/>
      <path class="cls-1" d="M1404.634,446.711a2.968,2.968,0,0,1,.516-.834,1.884,1.884,0,0,1,.773-.489,7.148,7.148,0,0,1,2.3-.293,5.755,5.755,0,0,1,2.373.327,1.9,1.9,0,0,1,.911.963,5.3,5.3,0,0,1,.309,1.977q0,2.149-2.406,2.148h-3.593a3.405,3.405,0,0,0,.378,1.942,1.71,1.71,0,0,0,1.41.481,29.663,29.663,0,0,0,4.04-.188V453.9a15.762,15.762,0,0,1-4.4.481,2.578,2.578,0,0,1-2.373-1.015,6.638,6.638,0,0,1-.636-3.369A9.374,9.374,0,0,1,1404.634,446.711Zm5.6,1.616a5.188,5.188,0,0,0-.069-.98.916.916,0,0,0-.3-.523,1.125,1.125,0,0,0-.576-.25,6.206,6.206,0,0,0-.885-.052q-.541,0-.748.009c-.138.006-.307.021-.507.043a1.667,1.667,0,0,0-.438.095,2.089,2.089,0,0,0-.327.189.7.7,0,0,0-.266.317c-.052.127-.106.281-.164.465a5.577,5.577,0,0,0-.137,1.479h3.421Q1410.239,449.118,1410.239,448.327Z" transform="translate(-315.68 -81.015)"/>
    </g>
    <rect class="cls-1" x="424.118" y="185.006" width="440.405" height="71.759" rx="12" ry="12"/>
    <g>
      <path class="cls-3" d="M873.7,288.748q-8.279-.46-11.246-.46a8.032,8.032,0,0,0-4.6,1.127,6.891,6.891,0,0,0-2.415,4.094,35.74,35.74,0,0,0-.782,8.579q0,13.708,7.82,13.708l11.224-.322v2.715a61.1,61.1,0,0,1-11.224,1.012q-11.224,0-11.224-17.2,0-8.739,2.369-12.926t8.854-4.187a62.2,62.2,0,0,1,11.224,1.15Z" transform="translate(-315.68 -81.015)"/>
      <path class="cls-3" d="M886.125,319.154q-6.119,0-8.464-2.714t-2.347-9.752q0-7.039,2.347-9.729t8.464-2.69q6.117,0,8.418,2.736t2.3,9.821q0,7.084-2.3,9.706T886.125,319.154ZM879.8,299.972a10.775,10.775,0,0,0-.782,2.737,27.486,27.486,0,0,0-.3,4.531,19.973,19.973,0,0,0,.437,4.6,4.5,4.5,0,0,0,1.519,2.622,5.415,5.415,0,0,0,2.208,1.059,17.136,17.136,0,0,0,3.22.229,17.917,17.917,0,0,0,3.266-.229,4.955,4.955,0,0,0,2.208-1.081,4.627,4.627,0,0,0,1.449-2.622,22.575,22.575,0,0,0,.414-4.9,29.093,29.093,0,0,0-.345-5.014,4.971,4.971,0,0,0-1.357-2.829,4.451,4.451,0,0,0-2.185-1.173,17.421,17.421,0,0,0-3.2-.23,24.282,24.282,0,0,0-3.036.139,6.465,6.465,0,0,0-2.023.644A3.2,3.2,0,0,0,879.8,299.972Z" transform="translate(-315.68 -81.015)"/>
      <path class="cls-3" d="M901.9,318.924V294.5H904.3l1.012,2.852a10.01,10.01,0,0,0,1.012-.574c.582-.353.943-.56,1.081-.621s.468-.237.989-.529a6.456,6.456,0,0,1,1.1-.529q.322-.091,1.059-.367a8.085,8.085,0,0,1,1.2-.368,14.175,14.175,0,0,1,2.576-.276,6.978,6.978,0,0,1,5.521,2.3,8.078,8.078,0,0,1,2.023,5.521v17.02h-3.4V301.9a4.4,4.4,0,0,0-1.15-3.289,4.032,4.032,0,0,0-2.944-1.127,14.642,14.642,0,0,0-3.357.368,16.726,16.726,0,0,0-2.507.759q-.943.391-3.2,1.5v18.813Z" transform="translate(-315.68 -81.015)"/>
      <path class="cls-3" d="M924.626,297.856V295.28l4.554-.828.828-6.808h2.576v6.808h7.13v3.4h-7.13v12.327a8.222,8.222,0,0,0,.645,3.888,3.007,3.007,0,0,0,1.978,1.4q3.772.967,4.094.967v2.438h-4.048q-6.072,0-6.072-8.694V297.856Z" transform="translate(-315.68 -81.015)"/>
      <path class="cls-3" d="M943.716,295.418a45.56,45.56,0,0,1,12.052-1.38,7.145,7.145,0,0,1,4.945,1.748,6.8,6.8,0,0,1,1.955,5.336v17.8h-2.53l-.874-2.943-.689.321q-5.981,2.9-9.522,2.9a6.2,6.2,0,0,1-4.37-1.61,5.76,5.76,0,0,1-1.748-4.462v-2.806a6.077,6.077,0,0,1,1.633-4.462,6.012,6.012,0,0,1,4.485-1.656h10.212q.045-1.518.046-2.277a3.068,3.068,0,0,0-.046-.8q0-3.772-3.956-3.772t-11.592.553Zm2.622,17.48q0,2.9,2.714,2.9a19.218,19.218,0,0,0,4.209-.6q2.553-.6,4.3-1.15l1.7-.6v-6.578l-10.212.736a2.86,2.86,0,0,0-2.047.966,3.119,3.119,0,0,0-.667,2.023Z" transform="translate(-315.68 -81.015)"/>
      <path class="cls-3" d="M967.866,313.128a29.047,29.047,0,0,1-.6-6.439,29.857,29.857,0,0,1,.575-6.417,8.353,8.353,0,0,1,1.725-3.818,6.052,6.052,0,0,1,2.484-1.725,14.521,14.521,0,0,1,4.324-.46,58.063,58.063,0,0,1,9.43,1.2v2.484q-6.394-.277-9.062-.276a14.266,14.266,0,0,0-3.358.23,3.494,3.494,0,0,0-1.426,1.058q-1.289,1.611-1.288,7.337t1.035,7.59a3.776,3.776,0,0,0,3.61,1.863q4.324,0,9.063-.368l1.748-.138v2.576a42.8,42.8,0,0,1-10.811,1.334,9.739,9.739,0,0,1-3.2-.46,6.253,6.253,0,0,1-2.484-1.726A8.363,8.363,0,0,1,967.866,313.128Z" transform="translate(-315.68 -81.015)"/>
      <path class="cls-3" d="M988.888,297.856V295.28l4.554-.828.828-6.808h2.576v6.808h7.13v3.4h-7.13v12.327a8.222,8.222,0,0,0,.645,3.888,3.007,3.007,0,0,0,1.978,1.4q3.772.967,4.094.967v2.438h-4.048q-6.072,0-6.072-8.694V297.856Z" transform="translate(-315.68 -81.015)"/>
      <path class="cls-3" d="M1020.535,304.2V285.252h3.4V304.2a32.947,32.947,0,0,0,.529,6.646,5.448,5.448,0,0,0,1.955,3.474,6.654,6.654,0,0,0,2.575,1.219,14.063,14.063,0,0,0,2.484.207H1033a14.542,14.542,0,0,0,4.048-.322,13.007,13.007,0,0,0,1.472-.713,3.373,3.373,0,0,0,1.1-.966,12.254,12.254,0,0,0,.874-1.449,8.662,8.662,0,0,0,.736-2.023,28.875,28.875,0,0,0,.552-6.072V285.252h3.45V304.2a28.075,28.075,0,0,1-.8,7.245,14.561,14.561,0,0,1-1.84,4.438,6.487,6.487,0,0,1-2.944,2.254,11.548,11.548,0,0,1-3.151.9q-1.241.114-2.437.115H1032.1q-.759,0-1.38-.023t-1.748-.092a6.771,6.771,0,0,1-1.725-.276q-.6-.207-1.541-.552a3.661,3.661,0,0,1-1.473-.92q-.529-.574-1.219-1.357a5.337,5.337,0,0,1-1.058-1.908q-.369-1.126-.736-2.554A29.912,29.912,0,0,1,1020.535,304.2Z" transform="translate(-315.68 -81.015)"/>
      <path class="cls-3" d="M1049.836,302.456V300.34a6.321,6.321,0,0,1,1.472-4.531q1.472-1.54,5.359-1.54t11.523.735v2.622h-12.006q-2.117,0-2.576.782a3.824,3.824,0,0,0-.368,1.932v2.116q0,1.84.874,2.254a4.7,4.7,0,0,0,2.07.368h7.268a5.813,5.813,0,0,1,4.438,1.633,6.011,6.011,0,0,1,1.541,4.3v2.254q0,3.406-1.655,4.646a7.023,7.023,0,0,1-4.324,1.242q-4.279,0-12.6-.874v-2.53h12.6c0-.03.084-.03.253,0a1.3,1.3,0,0,0,.644-.092,6.589,6.589,0,0,0,.76-.322q.918-.458.92-2.07v-2.254a2.734,2.734,0,0,0-.575-1.908,2.649,2.649,0,0,0-2-.621h-7.268q-3.359,0-4.854-1.288T1049.836,302.456Z" transform="translate(-315.68 -81.015)"/>
    </g>
  </g>
</svg>
