<svg id="Layer_1" data-name="Layer 1" xmlns="http://www.w3.org/2000/svg" viewBox="0 0 672.453 377.34">
  <defs>
    <style>
      .cls-1 {
        fill: #4d575d;
      }
    </style>
  </defs>
  <title>top left text</title>
  <g>
    <path class="cls-1" d="M25.557,31.813h2.52l9.04,25.56,8.12-25.56H47.8l-3.2,10.28,5.76,15.44,8.28-25.72h2.48l-9.48,29.28H49.2l-5.8-15.24-5.04,15.24h-2.44Z" transform="translate(-23.557 -26.453)"/>
    <path class="cls-1" d="M63.357,60.233a5.715,5.715,0,0,1-2.14-3.36,21.691,21.691,0,0,1-.62-5.58,45.943,45.943,0,0,1,.2-4.98,10.86,10.86,0,0,1,.7-2.9,6.82,6.82,0,0,1,1.14-1.92,4.2,4.2,0,0,1,1.72-1.12,15.09,15.09,0,0,1,5.12-.68q3.879,0,5.28.76a4.267,4.267,0,0,1,2.08,2.2,9.849,9.849,0,0,1,.76,3.94,6.414,6.414,0,0,1-.6,3.18q-1.2,1.96-4.88,1.96h-9.24q0,5.6,2.04,6.72a5.2,5.2,0,0,0,2.68.56,71.218,71.218,0,0,0,9.6-.52v1.68a34.8,34.8,0,0,1-9.4,1.12A7.743,7.743,0,0,1,63.357,60.233Zm-.48-10.74h9.24a4.613,4.613,0,0,0,2.38-.5,2.232,2.232,0,0,0,.82-2.06,10.71,10.71,0,0,0-.26-2.58,2.638,2.638,0,0,0-1.02-1.56,3.9,3.9,0,0,0-1.72-.68,18.744,18.744,0,0,0-2.58-.14q-1.62,0-2.44.06a7.47,7.47,0,0,0-1.66.32,2.835,2.835,0,0,0-1.28.74,5.337,5.337,0,0,0-.84,1.32A13.909,13.909,0,0,0,62.877,49.493Z" transform="translate(-23.557 -26.453)"/>
    <path class="cls-1" d="M93.357,61.093V31.813h2.28v29.28Z" transform="translate(-23.557 -26.453)"/>
    <path class="cls-1" d="M105.557,40.973a14.5,14.5,0,0,1,2.44-.94,11.219,11.219,0,0,1,3.26-.46,6.742,6.742,0,0,1,3.3.86,5.344,5.344,0,0,1,2.28,2.3,14.618,14.618,0,0,1,4.06-2.26,14.071,14.071,0,0,1,5.02-.9,5.943,5.943,0,0,1,4.48,1.94,6.839,6.839,0,0,1,1.84,4.9v14.68h-2.28V46.413a4.652,4.652,0,0,0-1.18-3.28,3.837,3.837,0,0,0-2.94-1.28,16.2,16.2,0,0,0-3.16.28,15.579,15.579,0,0,0-5.28,2.16,6.723,6.723,0,0,1,.2,2.04v14.76h-2.28V46.413a4.605,4.605,0,0,0-1.2-3.28,3.875,3.875,0,0,0-2.94-1.28,13.894,13.894,0,0,0-3.06.3,14.113,14.113,0,0,0-2.28.7q-.96.4-2.76,1.32v16.92H100.8V39.853h1.56l.72,2.52Q104.637,41.454,105.557,40.973Z" transform="translate(-23.557 -26.453)"/>
    <path class="cls-1" d="M143.417,40.333a16.114,16.114,0,0,1,4.04-.72,6.1,6.1,0,0,1,4.8,2.36,8.58,8.58,0,0,1,1.26,2.52,15.379,15.379,0,0,1,.88,5.1,39.348,39.348,0,0,1-.16,4.04,15.092,15.092,0,0,1-.64,2.96,8.271,8.271,0,0,1-1.24,2.5,5.967,5.967,0,0,1-5.12,2.32,18.173,18.173,0,0,1-4.38-.56,30.564,30.564,0,0,1-3.5-1.04v12.04h-2.2v-32h1.6l.64,2.36A11.182,11.182,0,0,1,143.417,40.333Zm3.82,18.8a4.044,4.044,0,0,0,3.48-1.72q1.4-1.879,1.4-6.56t-1.32-6.82a4.023,4.023,0,0,0-3.56-2.14,19.85,19.85,0,0,0-7.84,1.96v14.2A31.575,31.575,0,0,0,147.237,59.133Z" transform="translate(-23.557 -26.453)"/>
    <path class="cls-1" d="M159.277,61.093V39.853h1.56l.72,2.68q.08-.04.72-.4l.78-.44.7-.4a6.25,6.25,0,0,1,.78-.4q.22-.079.76-.34a5.285,5.285,0,0,1,.84-.34q.3-.08.8-.24a4.5,4.5,0,0,1,.9-.2,19.511,19.511,0,0,1,2.64-.16,6.05,6.05,0,0,1,2.24.32v2.24a10.845,10.845,0,0,0-2.28-.24q-1.16,0-1.64.04t-.84.06a4.146,4.146,0,0,0-.86.16,4.344,4.344,0,0,1-.74.16,3.4,3.4,0,0,0-.8.24q-.56.22-.72.28t-.8.34q-.64.28-.74.34t-.86.42q-.76.36-.88.4v16.72Z" transform="translate(-23.557 -26.453)"/>
    <path class="cls-1" d="M176.937,58.873a7.555,7.555,0,0,1-1.48-3.22,27.892,27.892,0,0,1-.42-5.58,17.443,17.443,0,0,1,.9-6.06,5.9,5.9,0,0,1,2.84-3.38,12.226,12.226,0,0,1,5.42-.98q5.2,0,7.18,2.46t1.98,8.52q0,6.06-1.98,8.36t-7.18,2.3a14.852,14.852,0,0,1-4.46-.56A5.8,5.8,0,0,1,176.937,58.873Zm1.16-14.04a9.06,9.06,0,0,0-.6,2.44,26.057,26.057,0,0,0-.18,3.18q0,1.72.1,2.84a10.557,10.557,0,0,0,.34,1.96,8.392,8.392,0,0,0,.54,1.44,3.308,3.308,0,0,0,.78,1.02,5.3,5.3,0,0,0,.96.68,3.838,3.838,0,0,0,1.2.38,13.859,13.859,0,0,0,2.7.24,21.526,21.526,0,0,0,2.36-.1,7.629,7.629,0,0,0,1.7-.4,3.357,3.357,0,0,0,1.36-.86,5.222,5.222,0,0,0,.92-1.48,10.7,10.7,0,0,0,.8-4.54,37.148,37.148,0,0,0-.18-4.28,9.637,9.637,0,0,0-.58-2.4,6.047,6.047,0,0,0-.9-1.58,3.168,3.168,0,0,0-1.36-.92,7.4,7.4,0,0,0-1.72-.42,19.334,19.334,0,0,0-2.16-.1q-1.3,0-2.12.08a7.259,7.259,0,0,0-1.68.38,3.1,3.1,0,0,0-1.36.88A6.01,6.01,0,0,0,178.1,44.833Z" transform="translate(-23.557 -26.453)"/>
    <path class="cls-1" d="M195.236,39.853h2.48l7.2,17.92,7.32-17.92h2.44l-8.64,21.24h-2.32Z" transform="translate(-23.557 -26.453)"/>
    <path class="cls-1" d="M219.756,60.233a5.715,5.715,0,0,1-2.14-3.36,21.691,21.691,0,0,1-.62-5.58,45.943,45.943,0,0,1,.2-4.98,10.86,10.86,0,0,1,.7-2.9,6.82,6.82,0,0,1,1.14-1.92,4.2,4.2,0,0,1,1.72-1.12,15.09,15.09,0,0,1,5.12-.68q3.879,0,5.28.76a4.267,4.267,0,0,1,2.08,2.2,9.849,9.849,0,0,1,.76,3.94,6.414,6.414,0,0,1-.6,3.18q-1.2,1.96-4.88,1.96h-9.24q0,5.6,2.04,6.72a5.2,5.2,0,0,0,2.68.56,71.218,71.218,0,0,0,9.6-.52v1.68a34.8,34.8,0,0,1-9.4,1.12A7.743,7.743,0,0,1,219.756,60.233Zm-.48-10.74h9.24a4.613,4.613,0,0,0,2.38-.5,2.232,2.232,0,0,0,.82-2.06,10.71,10.71,0,0,0-.26-2.58,2.638,2.638,0,0,0-1.02-1.56,3.9,3.9,0,0,0-1.72-.68,18.744,18.744,0,0,0-2.58-.14q-1.62,0-2.44.06a7.47,7.47,0,0,0-1.66.32,2.835,2.835,0,0,0-1.28.74,5.337,5.337,0,0,0-.84,1.32A13.909,13.909,0,0,0,219.276,49.493Z" transform="translate(-23.557 -26.453)"/>
    <path class="cls-1" d="M259.916,61.093h-2.28v-10.4l-9.48-18.88h2.52l8.08,16.12,8.92-16.12h2.48l-10.24,18.88Z" transform="translate(-23.557 -26.453)"/>
    <path class="cls-1" d="M270.536,58.873a7.555,7.555,0,0,1-1.48-3.22,27.892,27.892,0,0,1-.42-5.58,17.443,17.443,0,0,1,.9-6.06,5.9,5.9,0,0,1,2.84-3.38,12.226,12.226,0,0,1,5.42-.98q5.2,0,7.18,2.46t1.98,8.52q0,6.06-1.98,8.36t-7.18,2.3a14.852,14.852,0,0,1-4.46-.56A5.8,5.8,0,0,1,270.536,58.873Zm1.16-14.04a9.06,9.06,0,0,0-.6,2.44,26.057,26.057,0,0,0-.18,3.18q0,1.72.1,2.84a10.557,10.557,0,0,0,.34,1.96,8.392,8.392,0,0,0,.54,1.44,3.308,3.308,0,0,0,.78,1.02,5.3,5.3,0,0,0,.96.68,3.838,3.838,0,0,0,1.2.38,13.859,13.859,0,0,0,2.7.24,21.526,21.526,0,0,0,2.36-.1,7.629,7.629,0,0,0,1.7-.4,3.357,3.357,0,0,0,1.36-.86,5.222,5.222,0,0,0,.92-1.48,10.7,10.7,0,0,0,.8-4.54,37.148,37.148,0,0,0-.18-4.28,9.637,9.637,0,0,0-.58-2.4,6.047,6.047,0,0,0-.9-1.58,3.168,3.168,0,0,0-1.36-.92,7.4,7.4,0,0,0-1.72-.42,19.335,19.335,0,0,0-2.16-.1q-1.3,0-2.12.08a7.259,7.259,0,0,0-1.68.38,3.1,3.1,0,0,0-1.36.88A6.01,6.01,0,0,0,271.7,44.833Z" transform="translate(-23.557 -26.453)"/>
    <path class="cls-1" d="M293.675,39.853v14.8a4.543,4.543,0,0,0,1.18,3.3,4.114,4.114,0,0,0,3.1,1.22,12.1,12.1,0,0,0,3.8-.48,38.776,38.776,0,0,0,4.32-1.88V39.853h2.28v21.24H306.8l-.72-2.48q-1.521.88-2.52,1.4a12.176,12.176,0,0,1-5.7,1.44,5.948,5.948,0,0,1-4.7-2,7.015,7.015,0,0,1-1.76-4.8v-14.8Z" transform="translate(-23.557 -26.453)"/>
    <path class="cls-1" d="M313.675,61.093V39.853h1.56l.72,2.68q.08-.04.72-.4l.78-.44.7-.4a6.25,6.25,0,0,1,.78-.4q.22-.079.76-.34a5.285,5.285,0,0,1,.84-.34q.3-.08.8-.24a4.5,4.5,0,0,1,.9-.2,19.511,19.511,0,0,1,2.64-.16,6.05,6.05,0,0,1,2.24.32v2.24a10.845,10.845,0,0,0-2.28-.24q-1.16,0-1.64.04t-.84.06a4.146,4.146,0,0,0-.86.16,4.344,4.344,0,0,1-.74.16,3.4,3.4,0,0,0-.8.24q-.56.22-.72.28t-.8.34q-.64.28-.74.34t-.86.42q-.76.36-.88.4v16.72Z" transform="translate(-23.557 -26.453)"/>
    <path class="cls-1" d="M352.594,61.293h-.44q-4.72,0-6.2-1a10.7,10.7,0,0,1-1.56-1.42,6.008,6.008,0,0,1-1.32-2.3,27.591,27.591,0,0,1-1.08-8.28V31.813h2.28v16.48q0,6.76,1.72,8.72a7.813,7.813,0,0,0,1.16,1.16,5.844,5.844,0,0,0,3.28.8q.639.04,1.96.04h.2a13.132,13.132,0,0,0,3.74-.32,8.991,8.991,0,0,0,1.439-.7,3.31,3.31,0,0,0,1-.92,11.437,11.437,0,0,0,.8-1.36,8.057,8.057,0,0,0,.66-1.86,26.523,26.523,0,0,0,.52-5.56V31.813h2.28v16.48q0,7.84-2.6,10.52a9.794,9.794,0,0,1-1.66,1.44,5.632,5.632,0,0,1-2.02.72A22.329,22.329,0,0,1,352.594,61.293Z" transform="translate(-23.557 -26.453)"/>
    <path class="cls-1" d="M367.354,46.693v-1.84a5.415,5.415,0,0,1,1.26-3.88q1.26-1.32,4.26-1.32,1.479,0,4.92.2t5.12.36v1.68h-10.04a3.538,3.538,0,0,0-2.619.7,3.363,3.363,0,0,0-.621,2.26v1.84q0,1.92.881,2.36a6.455,6.455,0,0,0,2.359.32h5.92a5.254,5.254,0,0,1,3.82,1.34,4.813,4.813,0,0,1,1.38,3.62v1.96q0,3.16-1.681,4.16a5.982,5.982,0,0,1-3.139.84q-1.74,0-5.681-.24t-5.26-.4v-1.64h10.56a2.979,2.979,0,0,0,1.92-.4,2.868,2.868,0,0,0,1-2.32v-1.96q0-2.68-2.92-2.68h-5.92a6.964,6.964,0,0,1-4.26-1Q367.354,49.654,367.354,46.693Z" transform="translate(-23.557 -26.453)"/>
    <path class="cls-1" d="M390.753,60.233a5.71,5.71,0,0,1-2.14-3.36,21.667,21.667,0,0,1-.62-5.58,45.664,45.664,0,0,1,.2-4.98,10.843,10.843,0,0,1,.7-2.9,6.821,6.821,0,0,1,1.141-1.92,4.2,4.2,0,0,1,1.72-1.12,15.09,15.09,0,0,1,5.12-.68q3.879,0,5.279.76a4.263,4.263,0,0,1,2.08,2.2,9.841,9.841,0,0,1,.761,3.94,6.408,6.408,0,0,1-.6,3.18q-1.2,1.96-4.88,1.96h-9.239q0,5.6,2.039,6.72a5.206,5.206,0,0,0,2.681.56,71.218,71.218,0,0,0,9.6-.52v1.68a34.8,34.8,0,0,1-9.4,1.12A7.742,7.742,0,0,1,390.753,60.233Zm-.479-10.74h9.239a4.611,4.611,0,0,0,2.38-.5,2.23,2.23,0,0,0,.82-2.06,10.71,10.71,0,0,0-.26-2.58,2.637,2.637,0,0,0-1.02-1.56,3.9,3.9,0,0,0-1.721-.68,18.749,18.749,0,0,0-2.58-.14q-1.62,0-2.439.06a7.465,7.465,0,0,0-1.66.32,2.832,2.832,0,0,0-1.28.74,5.351,5.351,0,0,0-.84,1.32A13.923,13.923,0,0,0,390.273,49.493Z" transform="translate(-23.557 -26.453)"/>
    <path class="cls-1" d="M409.433,61.093V39.853h1.56l.721,2.68q.079-.04.72-.4l.78-.44.7-.4a6.211,6.211,0,0,1,.78-.4c.146-.053.4-.166.761-.34a5.23,5.23,0,0,1,.84-.34q.3-.08.8-.24a4.518,4.518,0,0,1,.9-.2,19.526,19.526,0,0,1,2.641-.16,6.054,6.054,0,0,1,2.24.32v2.24a10.861,10.861,0,0,0-2.281-.24q-1.16,0-1.639.04t-.841.06a4.167,4.167,0,0,0-.86.16,4.344,4.344,0,0,1-.74.16,3.405,3.405,0,0,0-.8.24q-.561.22-.721.28t-.8.34c-.427.187-.674.3-.739.34s-.354.18-.861.42-.8.374-.879.4v16.72Z" transform="translate(-23.557 -26.453)"/>
    <path class="cls-1" d="M439.152,60.233a5.715,5.715,0,0,1-2.141-3.36,21.671,21.671,0,0,1-.619-5.58,45.969,45.969,0,0,1,.2-4.98,10.842,10.842,0,0,1,.7-2.9,6.82,6.82,0,0,1,1.14-1.92,4.2,4.2,0,0,1,1.721-1.12,15.084,15.084,0,0,1,5.119-.68q3.879,0,5.28.76a4.271,4.271,0,0,1,2.08,2.2,9.841,9.841,0,0,1,.761,3.94,6.419,6.419,0,0,1-.6,3.18q-1.2,1.96-4.88,1.96h-9.24q0,5.6,2.04,6.72a5.206,5.206,0,0,0,2.681.56,71.229,71.229,0,0,0,9.6-.52v1.68a34.806,34.806,0,0,1-9.4,1.12A7.739,7.739,0,0,1,439.152,60.233Zm-.48-10.74h9.24a4.613,4.613,0,0,0,2.38-.5,2.232,2.232,0,0,0,.819-2.06,10.66,10.66,0,0,0-.26-2.58,2.637,2.637,0,0,0-1.02-1.56,3.9,3.9,0,0,0-1.721-.68,18.739,18.739,0,0,0-2.58-.14q-1.62,0-2.439.06a7.476,7.476,0,0,0-1.66.32,2.833,2.833,0,0,0-1.279.74,5.3,5.3,0,0,0-.84,1.32A13.9,13.9,0,0,0,438.672,49.493Z" transform="translate(-23.557 -26.453)"/>
    <path class="cls-1" d="M462.632,40.913a16.108,16.108,0,0,1,2.54-.96,11.564,11.564,0,0,1,3.32-.46,6.069,6.069,0,0,1,3.3.96,6.46,6.46,0,0,1,3,5.84v14.8h-2.28v-14.8a4.55,4.55,0,0,0-1.18-3.3,3.926,3.926,0,0,0-2.939-1.22,14.565,14.565,0,0,0-3.121.3,13.8,13.8,0,0,0-2.359.72q-1,.42-2.8,1.3v17h-2.279V39.853h1.561l.719,2.48Q461.632,41.414,462.632,40.913Z" transform="translate(-23.557 -26.453)"/>
    <path class="cls-1" d="M479.111,56.413a3.177,3.177,0,0,1,.721-2,3.026,3.026,0,0,1,2-1.12q-2.722-1.44-2.721-5.96,0-7.56,6.92-7.56h12.48v1.68l-3.641.6a1.541,1.541,0,0,0,.24.34,4.088,4.088,0,0,1,.32.44c.053.094.153.26.3.5a3.022,3.022,0,0,1,.319.7q.1.341.22.86a7.96,7.96,0,0,1,.24,2.08,12.976,12.976,0,0,1-.141,2.06,9.77,9.77,0,0,1-.56,1.94,6.821,6.821,0,0,1-1.1,1.9,5.244,5.244,0,0,1-1.921,1.38,6.929,6.929,0,0,1-2.879.56h-6.24a2.689,2.689,0,0,0-1.7.46,1.459,1.459,0,0,0-.58,1.2,1.307,1.307,0,0,0,.66,1.16,2.738,2.738,0,0,0,1.5.42h8.44a5.229,5.229,0,0,1,3.959,1.46,5.511,5.511,0,0,1,1.4,3.98v2.36a6.358,6.358,0,0,1-1.04,3.92,4.432,4.432,0,0,1-2.36,1.76,9.832,9.832,0,0,1-2.6.36h-6q-3.959,0-5.52-2.76a6.49,6.49,0,0,1-.84-3.4v-3.52l1.24-3.16A3.082,3.082,0,0,1,479.111,56.413Zm4.48,3.88a4.091,4.091,0,0,1-2.28-.6v6.04q0,2.439,1.479,3.24a5.37,5.37,0,0,0,2.561.64h6q3.721,0,3.721-3.76v-2.24a3.655,3.655,0,0,0-.74-2.48,3.5,3.5,0,0,0-2.7-.84Zm-1.2-16.8a6.5,6.5,0,0,0-1,3.78,6.312,6.312,0,0,0,1.06,3.8,3.8,3.8,0,0,0,3.3,1.46h3.96a4.058,4.058,0,0,0,4.319-3.44,6.241,6.241,0,0,0,.2-1.6q0-5.439-3.961-5.44h-4.359A3.987,3.987,0,0,0,482.392,43.493Z" transform="translate(-23.557 -26.453)"/>
    <path class="cls-1" d="M501.871,40.653a38.812,38.812,0,0,1,10.041-1.2,6.27,6.27,0,0,1,4.34,1.52,5.914,5.914,0,0,1,1.7,4.64v15.48h-1.68l-.6-2.56a6.113,6.113,0,0,0-.641.28q-.6.28-1.58.7t-2.14.82a14.38,14.38,0,0,1-4.9,1,5.262,5.262,0,0,1-3.7-1.4,5.01,5.01,0,0,1-1.52-3.88v-2.44a4.836,4.836,0,0,1,2.48-4.68,5.955,5.955,0,0,1,2.84-.64h9.16v-2.68q0-3.96-4.12-3.96-3.321,0-9.681.64Zm1.6,15.2a3.146,3.146,0,0,0,.84,2.44,2.974,2.974,0,0,0,2,.76,13.883,13.883,0,0,0,2.38-.22q1.26-.22,2.42-.54,2.44-.639,3.92-1.16l.641-.24v-6.88l-9.16.56a2.874,2.874,0,0,0-3.04,3.2Z" transform="translate(-23.557 -26.453)"/>
    <path class="cls-1" d="M522.271,56.413a3.182,3.182,0,0,1,.72-2,3.026,3.026,0,0,1,2-1.12q-2.72-1.44-2.72-5.96,0-7.56,6.92-7.56h12.48v1.68l-3.641.6a1.541,1.541,0,0,0,.24.34,4.233,4.233,0,0,1,.32.44c.053.094.152.26.3.5a2.982,2.982,0,0,1,.319.7c.066.227.141.514.221.86a7.96,7.96,0,0,1,.24,2.08,12.976,12.976,0,0,1-.141,2.06,9.713,9.713,0,0,1-.561,1.94,6.8,6.8,0,0,1-1.1,1.9,5.24,5.24,0,0,1-1.92,1.38,6.934,6.934,0,0,1-2.88.56h-6.239a2.693,2.693,0,0,0-1.7.46,1.459,1.459,0,0,0-.58,1.2,1.309,1.309,0,0,0,.66,1.16,2.738,2.738,0,0,0,1.5.42h8.44a5.23,5.23,0,0,1,3.96,1.46,5.511,5.511,0,0,1,1.4,3.98v2.36a6.358,6.358,0,0,1-1.041,3.92,4.434,4.434,0,0,1-2.359,1.76,9.843,9.843,0,0,1-2.6.36h-6q-3.961,0-5.521-2.76a6.5,6.5,0,0,1-.84-3.4v-3.52l1.24-3.16A3.084,3.084,0,0,1,522.271,56.413Zm4.48,3.88a4.092,4.092,0,0,1-2.281-.6v6.04q0,2.439,1.48,3.24a5.367,5.367,0,0,0,2.561.64h6q3.719,0,3.72-3.76v-2.24a3.65,3.65,0,0,0-.74-2.48,3.5,3.5,0,0,0-2.7-.84Zm-1.2-16.8a6.5,6.5,0,0,0-1,3.78,6.312,6.312,0,0,0,1.061,3.8,3.8,3.8,0,0,0,3.3,1.46h3.96a4.059,4.059,0,0,0,4.32-3.44,6.285,6.285,0,0,0,.2-1.6q0-5.439-3.96-5.44h-4.36A3.987,3.987,0,0,0,525.551,43.493Z" transform="translate(-23.557 -26.453)"/>
    <path class="cls-1" d="M546.552,60.233a5.71,5.71,0,0,1-2.14-3.36,21.667,21.667,0,0,1-.62-5.58,45.664,45.664,0,0,1,.2-4.98,10.843,10.843,0,0,1,.7-2.9,6.821,6.821,0,0,1,1.141-1.92,4.2,4.2,0,0,1,1.72-1.12,15.09,15.09,0,0,1,5.12-.68q3.879,0,5.279.76a4.263,4.263,0,0,1,2.08,2.2,9.841,9.841,0,0,1,.761,3.94,6.408,6.408,0,0,1-.6,3.18q-1.2,1.96-4.88,1.96h-9.239q0,5.6,2.039,6.72a5.206,5.206,0,0,0,2.681.56,71.218,71.218,0,0,0,9.6-.52v1.68a34.8,34.8,0,0,1-9.4,1.12A7.742,7.742,0,0,1,546.552,60.233Zm-.479-10.74h9.239a4.611,4.611,0,0,0,2.38-.5,2.23,2.23,0,0,0,.82-2.06,10.71,10.71,0,0,0-.26-2.58,2.637,2.637,0,0,0-1.02-1.56,3.9,3.9,0,0,0-1.721-.68,18.749,18.749,0,0,0-2.58-.14q-1.62,0-2.439.06a7.465,7.465,0,0,0-1.66.32,2.832,2.832,0,0,0-1.28.74,5.351,5.351,0,0,0-.84,1.32A13.923,13.923,0,0,0,546.072,49.493Z" transform="translate(-23.557 -26.453)"/>
    <path class="cls-1" d="M569.992,40.973a14.488,14.488,0,0,1,2.439-.94,11.218,11.218,0,0,1,3.26-.46,6.747,6.747,0,0,1,3.3.86,5.344,5.344,0,0,1,2.279,2.3,14.625,14.625,0,0,1,4.061-2.26,14.066,14.066,0,0,1,5.02-.9,5.944,5.944,0,0,1,4.48,1.94,6.838,6.838,0,0,1,1.84,4.9v14.68h-2.28V46.413a4.652,4.652,0,0,0-1.18-3.28,3.836,3.836,0,0,0-2.94-1.28,16.2,16.2,0,0,0-3.16.28,15.567,15.567,0,0,0-5.279,2.16,6.749,6.749,0,0,1,.2,2.04v14.76h-2.279V46.413a4.605,4.605,0,0,0-1.2-3.28,3.876,3.876,0,0,0-2.94-1.28,13.889,13.889,0,0,0-3.06.3,14.151,14.151,0,0,0-2.28.7q-.959.4-2.76,1.32v16.92h-2.279V39.853h1.56l.72,2.52Q569.072,41.454,569.992,40.973Z" transform="translate(-23.557 -26.453)"/>
    <path class="cls-1" d="M603.512,60.233a5.72,5.72,0,0,1-2.141-3.36,21.714,21.714,0,0,1-.619-5.58,46.225,46.225,0,0,1,.2-4.98,10.877,10.877,0,0,1,.7-2.9,6.82,6.82,0,0,1,1.139-1.92,4.2,4.2,0,0,1,1.721-1.12,15.09,15.09,0,0,1,5.12-.68q3.879,0,5.28.76a4.271,4.271,0,0,1,2.08,2.2,9.857,9.857,0,0,1,.76,3.94,6.421,6.421,0,0,1-.6,3.18q-1.2,1.96-4.881,1.96h-9.24q0,5.6,2.041,6.72a5.2,5.2,0,0,0,2.68.56,71.218,71.218,0,0,0,9.6-.52v1.68a34.8,34.8,0,0,1-9.4,1.12A7.743,7.743,0,0,1,603.512,60.233Zm-.48-10.74h9.24a4.615,4.615,0,0,0,2.381-.5,2.234,2.234,0,0,0,.819-2.06,10.71,10.71,0,0,0-.26-2.58,2.638,2.638,0,0,0-1.021-1.56,3.892,3.892,0,0,0-1.72-.68,18.739,18.739,0,0,0-2.58-.14q-1.62,0-2.44.06a7.476,7.476,0,0,0-1.66.32,2.839,2.839,0,0,0-1.279.74,5.322,5.322,0,0,0-.84,1.32A13.9,13.9,0,0,0,603.031,49.493Z" transform="translate(-23.557 -26.453)"/>
    <path class="cls-1" d="M626.991,40.913a16.108,16.108,0,0,1,2.54-.96,11.564,11.564,0,0,1,3.32-.46,6.069,6.069,0,0,1,3.3.96,6.46,6.46,0,0,1,3,5.84v14.8h-2.28v-14.8a4.55,4.55,0,0,0-1.18-3.3,3.926,3.926,0,0,0-2.939-1.22,14.565,14.565,0,0,0-3.121.3,13.8,13.8,0,0,0-2.359.72q-1,.42-2.8,1.3v17h-2.279V39.853h1.561l.719,2.48Q625.991,41.414,626.991,40.913Z" transform="translate(-23.557 -26.453)"/>
    <path class="cls-1" d="M641.831,42.093v-1.68l3.761-.6.6-5.92h1.68v5.92h6.48v2.28h-6.48v11.44q0,3.16.92,4.2a3.255,3.255,0,0,0,1.84,1.08q3.079.68,3.36.68v1.6h-3.24q-5.161,0-5.159-7.56V42.093Z" transform="translate(-23.557 -26.453)"/>
  </g>
  <g>
    <path class="cls-1" d="M27.265,121.049a21.665,21.665,0,0,1,.406-4.354,10.708,10.708,0,0,1,1.036-3.08,4.44,4.44,0,0,1,1.75-1.722,6.738,6.738,0,0,1,2.17-.784,15.549,15.549,0,0,1,2.436-.168q1.386,0,2.212.084a9.816,9.816,0,0,1,1.708.336,4.571,4.571,0,0,1,1.484.7,5.791,5.791,0,0,1,1.176,1.232,6.283,6.283,0,0,1,.91,1.876,22.55,22.55,0,0,1,.728,6.3,16.9,16.9,0,0,1-.98,6.664,6.749,6.749,0,0,1-1.106,1.834,3.922,3.922,0,0,1-1.61,1.078,11.962,11.962,0,0,1-4.284.644q-3.836,0-5.292-1.092a5.537,5.537,0,0,1-2.044-3.024A23.868,23.868,0,0,1,27.265,121.049Zm2.8-3.444a12.514,12.514,0,0,0-.182,1.722q-.042.966-.042,2.3t.084,2.408a16.2,16.2,0,0,0,.252,1.918,4.617,4.617,0,0,0,.49,1.4,4.175,4.175,0,0,0,.714.938,2.522,2.522,0,0,0,1.008.574,8.647,8.647,0,0,0,2.534.336,15.7,15.7,0,0,0,2.184-.112,4.62,4.62,0,0,0,1.386-.434,2.838,2.838,0,0,0,1.036-.854,4.9,4.9,0,0,0,.672-1.4,17.489,17.489,0,0,0,.5-4.928,23.586,23.586,0,0,0-.182-3.542q-.182-1.05-.308-1.638a3.462,3.462,0,0,0-.378-1.022q-.252-.434-.476-.742a1.79,1.79,0,0,0-.616-.518,6.059,6.059,0,0,0-.686-.322,3.462,3.462,0,0,0-.826-.168,15.758,15.758,0,0,0-1.68-.084q-.9,0-1.274.014t-.91.07a3.462,3.462,0,0,0-.826.168q-.294.112-.686.308a1.663,1.663,0,0,0-.616.5q-.225.308-.49.742a3.493,3.493,0,0,0-.406,1.022Q30.2,116.849,30.065,117.6Z" transform="translate(-23.557 -26.453)"/>
    <path class="cls-1" d="M51.261,117.017a10.162,10.162,0,0,1,2.66-.476,4.141,4.141,0,0,1,1.876.434,3.939,3.939,0,0,1,1.4,1.134,5.87,5.87,0,0,1,.868,1.708,11.531,11.531,0,0,1,.588,3.668q0,1.9-.1,2.926a11.145,11.145,0,0,1-.406,2.072,5.372,5.372,0,0,1-.84,1.75,4.127,4.127,0,0,1-3.528,1.568,13.756,13.756,0,0,1-2.548-.294,15.388,15.388,0,0,1-2.716-.77v8.4H46V116.708h1.96l.588,1.6A8.179,8.179,0,0,1,51.261,117.017Zm2.24,12.432a2.3,2.3,0,0,0,1.4-.392q1.176-.924,1.176-4.928,0-5.18-2.576-5.18a11.949,11.949,0,0,0-4.956,1.2v8.624A18.355,18.355,0,0,0,53.5,129.449Z" transform="translate(-23.557 -26.453)"/>
    <path class="cls-1" d="M61.621,119.229a4.821,4.821,0,0,1,.84-1.358,3.079,3.079,0,0,1,1.26-.8,11.671,11.671,0,0,1,3.752-.476,9.387,9.387,0,0,1,3.864.532,3.091,3.091,0,0,1,1.484,1.568,8.626,8.626,0,0,1,.5,3.22q0,3.5-3.92,3.5H63.553a5.548,5.548,0,0,0,.616,3.164,2.787,2.787,0,0,0,2.3.784,48.208,48.208,0,0,0,6.58-.308v1.876a25.691,25.691,0,0,1-7.168.784q-2.828,0-3.864-1.652t-1.036-5.488A15.258,15.258,0,0,1,61.621,119.229Zm9.128,2.632a8.426,8.426,0,0,0-.112-1.6,1.489,1.489,0,0,0-.49-.854,1.83,1.83,0,0,0-.938-.406,10.04,10.04,0,0,0-1.442-.084q-.882,0-1.218.014t-.826.07a2.681,2.681,0,0,0-.714.154,3.376,3.376,0,0,0-.532.308,1.148,1.148,0,0,0-.434.518q-.126.308-.266.756a9.067,9.067,0,0,0-.224,2.408h5.572Q70.749,123.148,70.749,121.861Z" transform="translate(-23.557 -26.453)"/>
    <path class="cls-1" d="M75.929,131.577V116.708h1.932l.644,1.708q.084-.056.462-.294t.49-.294q.111-.056.462-.266a4.241,4.241,0,0,1,.49-.266q.14-.056.476-.224a3.335,3.335,0,0,1,.532-.224q.2-.056.518-.154a3.135,3.135,0,0,1,.6-.126,8.448,8.448,0,0,1,1.26-.112,4.124,4.124,0,0,1,3.36,1.414,5.228,5.228,0,0,1,1.176,3.458v10.248H85.757V121.329a2.212,2.212,0,0,0-1.372-2.352,3.825,3.825,0,0,0-1.358-.168,5.735,5.735,0,0,0-1.918.336,23.335,23.335,0,0,0-2.6,1.176v11.256Z" transform="translate(-23.557 -26.453)"/>
    <path class="cls-1" d="M97.181,116.708h2.772l3.3,11.284a1.365,1.365,0,0,0,1.708,1.12l.056-.028,3.92-12.376h2.8l-6.188,19.572-2.072,2.856h-1.708l2.492-7.56q-2.688,0-3.64-3.276Z" transform="translate(-23.557 -26.453)"/>
    <path class="cls-1" d="M113.057,124.353a13.707,13.707,0,0,1,.644-4.732,4.145,4.145,0,0,1,2.044-2.366,9.084,9.084,0,0,1,3.92-.686q3.78,0,5.194,1.68t1.414,5.978q0,4.3-1.414,5.894t-5.166,1.6q-3.753,0-5.194-1.652T113.057,124.353Zm2.982-3.64a5.683,5.683,0,0,0-.322,1.5q-.084.883-.084,2.086a17.891,17.891,0,0,0,.1,2.044,4.6,4.6,0,0,0,.35,1.386,3.376,3.376,0,0,0,.546.868,1.836,1.836,0,0,0,.826.49,5.908,5.908,0,0,0,1.988.266,17.014,17.014,0,0,0,1.736-.084,3.492,3.492,0,0,0,1.106-.336,1.772,1.772,0,0,0,.826-.826,9.007,9.007,0,0,0,.588-3.752,11.841,11.841,0,0,0-.308-3.4,4.921,4.921,0,0,0-.574-1.176,1.724,1.724,0,0,0-.77-.546,5.5,5.5,0,0,0-1.988-.308q-1.2,0-1.708.056a4.62,4.62,0,0,0-1.022.238,1.632,1.632,0,0,0-.784.532A4.009,4.009,0,0,0,116.039,120.713Z" transform="translate(-23.557 -26.453)"/>
    <path class="cls-1" d="M128.877,126.929v-10.22h2.576v10.248a2.551,2.551,0,0,0,.616,1.876,2.508,2.508,0,0,0,1.848.616,6.8,6.8,0,0,0,2.184-.322,19.44,19.44,0,0,0,2.6-1.19V116.708h2.576v14.868h-1.932l-.644-1.68q-.168.084-.672.392t-.714.406q-.209.1-.658.336a5.115,5.115,0,0,1-.742.336q-.294.1-.742.238a6.233,6.233,0,0,1-1.764.224,4.114,4.114,0,0,1-3.374-1.414A5.308,5.308,0,0,1,128.877,126.929Z" transform="translate(-23.557 -26.453)"/>
    <path class="cls-1" d="M148.729,117.493a9.649,9.649,0,0,1,1.512-.63,6.812,6.812,0,0,1,2.184-.322,4.472,4.472,0,0,1,1.708.224v2.52a12.325,12.325,0,0,0-2.156-.14,7.852,7.852,0,0,0-2.478.35,12.566,12.566,0,0,0-2.534,1.274v10.808h-2.576V116.708h1.96l.616,1.876.644-.42Q148.168,117.8,148.729,117.493Z" transform="translate(-23.557 -26.453)"/>
    <path class="cls-1" d="M162.98,124.213q0-4.424,1.344-6.188a4.159,4.159,0,0,1,3.528-1.54,11.882,11.882,0,0,1,2.94.378,17.8,17.8,0,0,1,2.3.714V109.6h2.548v21.98h-1.96l-.588-1.624a9.642,9.642,0,0,1-2.352,1.176,8.261,8.261,0,0,1-2.884.616Q162.98,131.745,162.98,124.213Zm2.576-.028q0,5.153,2.576,5.152a12.085,12.085,0,0,0,4.956-1.2v-8.624a18.543,18.543,0,0,0-4.956-.672,2.3,2.3,0,0,0-1.4.392Q165.557,120.153,165.557,124.185Z" transform="translate(-23.557 -26.453)"/>
    <path class="cls-1" d="M178.492,124.353a13.707,13.707,0,0,1,.644-4.732,4.145,4.145,0,0,1,2.044-2.366,9.084,9.084,0,0,1,3.92-.686q3.78,0,5.194,1.68t1.414,5.978q0,4.3-1.414,5.894t-5.166,1.6q-3.753,0-5.194-1.652T178.492,124.353Zm2.982-3.64a5.683,5.683,0,0,0-.322,1.5q-.084.883-.084,2.086a17.891,17.891,0,0,0,.1,2.044,4.6,4.6,0,0,0,.35,1.386,3.376,3.376,0,0,0,.546.868,1.836,1.836,0,0,0,.826.49,5.908,5.908,0,0,0,1.988.266,17.014,17.014,0,0,0,1.736-.084,3.492,3.492,0,0,0,1.106-.336,1.772,1.772,0,0,0,.826-.826,9.007,9.007,0,0,0,.588-3.752,11.841,11.841,0,0,0-.308-3.4,4.921,4.921,0,0,0-.574-1.176,1.724,1.724,0,0,0-.77-.546,5.5,5.5,0,0,0-1.988-.308q-1.2,0-1.708.056a4.62,4.62,0,0,0-1.022.238,1.632,1.632,0,0,0-.784.532A4.009,4.009,0,0,0,181.474,120.713Z" transform="translate(-23.557 -26.453)"/>
    <path class="cls-1" d="M194.032,124.353a13.707,13.707,0,0,1,.644-4.732,4.145,4.145,0,0,1,2.044-2.366,9.084,9.084,0,0,1,3.92-.686q3.78,0,5.194,1.68t1.414,5.978q0,4.3-1.414,5.894t-5.166,1.6q-3.753,0-5.194-1.652T194.032,124.353Zm2.982-3.64a5.683,5.683,0,0,0-.322,1.5q-.084.883-.084,2.086a17.891,17.891,0,0,0,.1,2.044,4.6,4.6,0,0,0,.35,1.386,3.376,3.376,0,0,0,.546.868,1.836,1.836,0,0,0,.826.49,5.908,5.908,0,0,0,1.988.266,17.014,17.014,0,0,0,1.736-.084,3.492,3.492,0,0,0,1.106-.336,1.772,1.772,0,0,0,.826-.826,9.007,9.007,0,0,0,.588-3.752,11.841,11.841,0,0,0-.308-3.4,4.921,4.921,0,0,0-.574-1.176,1.724,1.724,0,0,0-.77-.546,5.5,5.5,0,0,0-1.988-.308q-1.2,0-1.708.056a4.62,4.62,0,0,0-1.022.238,1.632,1.632,0,0,0-.784.532A4.009,4.009,0,0,0,197.014,120.713Z" transform="translate(-23.557 -26.453)"/>
    <path class="cls-1" d="M214.444,117.493a9.649,9.649,0,0,1,1.512-.63,6.812,6.812,0,0,1,2.184-.322,4.472,4.472,0,0,1,1.708.224v2.52a12.325,12.325,0,0,0-2.156-.14,7.852,7.852,0,0,0-2.478.35,12.566,12.566,0,0,0-2.534,1.274v10.808H210.1V116.708h1.96l.616,1.876.644-.42Q213.883,117.8,214.444,117.493Z" transform="translate(-23.557 -26.453)"/>
    <path class="cls-1" d="M225.377,116.569q2.169,0,4.452.2t2.926.336v1.848h-7.14q-1.064,0-1.344.336a1.757,1.757,0,0,0-.28,1.12v1.12q0,1.008.476,1.232a2.643,2.643,0,0,0,1.148.2h4.172a4.116,4.116,0,0,1,2.1.5,3.365,3.365,0,0,1,1.624,3.192v1.4q0,3.668-3.64,3.668-1.428,0-4.256-.21a27.245,27.245,0,0,1-3.584-.406v-1.792h7.5q1.4,0,1.4-1.344v-1.176a1.3,1.3,0,0,0-.532-1.232,1.947,1.947,0,0,0-.868-.168h-4.172a4.5,4.5,0,0,1-3-.826,3.73,3.73,0,0,1-.952-2.926v-1.288a3.362,3.362,0,0,1,3.962-3.78Z" transform="translate(-23.557 -26.453)"/>
    <path class="cls-1" d="M247.315,112.537v4.144h4.06V119h-4.06v7.084a4.913,4.913,0,0,0,.378,2.3,1.772,1.772,0,0,0,1.134.84q2.128.588,2.324.588v1.736h-2.716q-3.7,0-3.7-5.292V119h-2.66v-1.736l2.66-.588.56-4.144Z" transform="translate(-23.557 -26.453)"/>
    <path class="cls-1" d="M253.476,124.353a13.707,13.707,0,0,1,.644-4.732,4.145,4.145,0,0,1,2.044-2.366,9.084,9.084,0,0,1,3.92-.686q3.78,0,5.194,1.68t1.414,5.978q0,4.3-1.414,5.894t-5.166,1.6q-3.753,0-5.194-1.652T253.476,124.353Zm2.982-3.64a5.683,5.683,0,0,0-.322,1.5q-.084.883-.084,2.086a17.891,17.891,0,0,0,.1,2.044,4.6,4.6,0,0,0,.35,1.386,3.376,3.376,0,0,0,.546.868,1.836,1.836,0,0,0,.826.49,5.908,5.908,0,0,0,1.988.266,17.014,17.014,0,0,0,1.736-.084,3.492,3.492,0,0,0,1.106-.336,1.772,1.772,0,0,0,.826-.826,9.007,9.007,0,0,0,.588-3.752,11.841,11.841,0,0,0-.308-3.4,4.921,4.921,0,0,0-.574-1.176,1.724,1.724,0,0,0-.77-.546,5.5,5.5,0,0,0-1.988-.308q-1.2,0-1.708.056a4.62,4.62,0,0,0-1.022.238,1.632,1.632,0,0,0-.784.532A4.009,4.009,0,0,0,256.458,120.713Z" transform="translate(-23.557 -26.453)"/>
    <path class="cls-1" d="M276.491,117.325a24.555,24.555,0,0,1,7.224-.9,4.15,4.15,0,0,1,3.864,1.848,5.03,5.03,0,0,1,.616,2.6v10.7h-1.96l-.616-1.736a7.49,7.49,0,0,1-.924.518,16.329,16.329,0,0,1-2.268.91,8.112,8.112,0,0,1-2.52.476,3.891,3.891,0,0,1-2.814-1.036,3.629,3.629,0,0,1-1.078-2.744v-1.624a3.576,3.576,0,0,1,3.892-3.808h5.712q.027-.812.028-1.218c0-.27,0-.49-.014-.658a3.1,3.1,0,0,0-.112-.616,1.884,1.884,0,0,0-.28-.616,1.265,1.265,0,0,0-.462-.392,2.471,2.471,0,0,0-1.372-.28q-2.3,0-6.916.308Zm2.1,10.388q0,1.679,1.6,1.68a9.421,9.421,0,0,0,2.282-.35,22.648,22.648,0,0,0,2.254-.686l.9-.336v-3.64l-5.488.392a1.536,1.536,0,0,0-1.54,1.736Z" transform="translate(-23.557 -26.453)"/>
    <path class="cls-1" d="M291.079,131.577V116.708h1.932l.644,1.708q.084-.056.462-.294t.49-.294q.111-.056.462-.266a4.241,4.241,0,0,1,.49-.266q.14-.056.476-.224a3.335,3.335,0,0,1,.532-.224q.2-.056.518-.154a3.135,3.135,0,0,1,.6-.126,8.448,8.448,0,0,1,1.26-.112,4.124,4.124,0,0,1,3.36,1.414,5.228,5.228,0,0,1,1.176,3.458v10.248h-2.576V121.329a2.212,2.212,0,0,0-1.372-2.352,3.825,3.825,0,0,0-1.358-.168,5.735,5.735,0,0,0-1.918.336,23.335,23.335,0,0,0-2.6,1.176v11.256Z" transform="translate(-23.557 -26.453)"/>
    <path class="cls-1" d="M313.087,124.353a13.707,13.707,0,0,1,.644-4.732,4.145,4.145,0,0,1,2.044-2.366,9.084,9.084,0,0,1,3.92-.686q3.78,0,5.194,1.68t1.414,5.978q0,4.3-1.414,5.894t-5.166,1.6q-3.753,0-5.194-1.652T313.087,124.353Zm2.982-3.64a5.683,5.683,0,0,0-.322,1.5q-.084.883-.084,2.086a17.891,17.891,0,0,0,.1,2.044,4.6,4.6,0,0,0,.35,1.386,3.376,3.376,0,0,0,.546.868,1.836,1.836,0,0,0,.826.49,5.908,5.908,0,0,0,1.988.266,17.014,17.014,0,0,0,1.736-.084,3.492,3.492,0,0,0,1.106-.336,1.772,1.772,0,0,0,.826-.826,9.007,9.007,0,0,0,.588-3.752,11.841,11.841,0,0,0-.308-3.4,4.921,4.921,0,0,0-.574-1.176,1.724,1.724,0,0,0-.77-.546,5.5,5.5,0,0,0-1.988-.308q-1.2,0-1.708.056a4.62,4.62,0,0,0-1.022.238,1.632,1.632,0,0,0-.784.532A4.009,4.009,0,0,0,316.069,120.713Z" transform="translate(-23.557 -26.453)"/>
    <path class="cls-1" d="M334.422,117.017a10.162,10.162,0,0,1,2.66-.476,4.141,4.141,0,0,1,1.876.434,3.939,3.939,0,0,1,1.4,1.134,5.87,5.87,0,0,1,.868,1.708,11.531,11.531,0,0,1,.588,3.668q0,1.9-.1,2.926a11.145,11.145,0,0,1-.406,2.072,5.372,5.372,0,0,1-.84,1.75,4.127,4.127,0,0,1-3.528,1.568,13.756,13.756,0,0,1-2.548-.294,15.388,15.388,0,0,1-2.716-.77v8.4h-2.52V116.708h1.96l.588,1.6A8.179,8.179,0,0,1,334.422,117.017Zm2.24,12.432a2.3,2.3,0,0,0,1.4-.392q1.176-.924,1.176-4.928,0-5.18-2.576-5.18a11.949,11.949,0,0,0-4.956,1.2v8.624A18.355,18.355,0,0,0,336.662,129.449Z" transform="translate(-23.557 -26.453)"/>
    <path class="cls-1" d="M348.311,112.537v4.144h4.06V119h-4.06v7.084a4.913,4.913,0,0,0,.378,2.3,1.772,1.772,0,0,0,1.134.84q2.128.588,2.324.588v1.736h-2.716q-3.7,0-3.7-5.292V119h-2.66v-1.736l2.66-.588.56-4.144Z" transform="translate(-23.557 -26.453)"/>
    <path class="cls-1" d="M354.471,114.356v-1.764q0-.728.672-.728h1.82a.574.574,0,0,1,.476.21.8.8,0,0,1,.168.518v1.764a.569.569,0,0,1-.644.644h-1.82a.66.66,0,0,1-.49-.182A.627.627,0,0,1,354.471,114.356Zm.224,17.22V116.708h2.576v14.868Z" transform="translate(-23.557 -26.453)"/>
    <path class="cls-1" d="M372.727,120.349v11.228H370.15V121.413a2.57,2.57,0,0,0-.645-1.834,2.134,2.134,0,0,0-1.624-.686,7.652,7.652,0,0,0-1.792.2,8.354,8.354,0,0,0-1.357.434q-.546.239-1.694.854v11.2h-2.576V116.708h1.933l.644,1.736q.168-.084.476-.28l.463-.294c.1-.065.252-.154.447-.266s.354-.2.477-.252.275-.13.461-.224a3.577,3.577,0,0,1,.5-.21l.5-.154q.28-.084.56-.14a10.808,10.808,0,0,1,1.387-.084,5.844,5.844,0,0,1,1.554.224,3.628,3.628,0,0,1,2.323,1.876,9.123,9.123,0,0,1,5.824-2.1,4.258,4.258,0,0,1,3.291,1.358,5.038,5.038,0,0,1,1.246,3.542v10.136h-2.576V121.413a2.358,2.358,0,0,0-1.092-2.212,3.249,3.249,0,0,0-1.625-.308A7.89,7.89,0,0,0,372.727,120.349Z" transform="translate(-23.557 -26.453)"/>
    <path class="cls-1" d="M385.158,114.356v-1.764q0-.728.672-.728h1.82a.574.574,0,0,1,.476.21.8.8,0,0,1,.168.518v1.764a.569.569,0,0,1-.644.644h-1.82a.66.66,0,0,1-.49-.182A.627.627,0,0,1,385.158,114.356Zm.224,17.22V116.708h2.576v14.868Z" transform="translate(-23.557 -26.453)"/>
    <path class="cls-1" d="M390.365,119.117v-2.408h11.34v2.408l-7.531,10.024h7.531v2.408h-10.92v-2.408l7.7-10.024Z" transform="translate(-23.557 -26.453)"/>
    <path class="cls-1" d="M404.422,119.229a4.8,4.8,0,0,1,.84-1.358,3.067,3.067,0,0,1,1.26-.8,11.673,11.673,0,0,1,3.752-.476,9.383,9.383,0,0,1,3.863.532,3.089,3.089,0,0,1,1.484,1.568,8.626,8.626,0,0,1,.5,3.22q0,3.5-3.92,3.5h-5.852a5.553,5.553,0,0,0,.615,3.164,2.789,2.789,0,0,0,2.3.784,48.212,48.212,0,0,0,6.58-.308v1.876a25.7,25.7,0,0,1-7.168.784q-2.829,0-3.864-1.652t-1.036-5.488A15.255,15.255,0,0,1,404.422,119.229Zm9.127,2.632a8.435,8.435,0,0,0-.111-1.6,1.486,1.486,0,0,0-.49-.854,1.83,1.83,0,0,0-.937-.406,10.052,10.052,0,0,0-1.442-.084q-.882,0-1.218.014t-.826.07a2.69,2.69,0,0,0-.714.154,3.4,3.4,0,0,0-.532.308,1.15,1.15,0,0,0-.434.518c-.084.206-.174.458-.266.756a9.041,9.041,0,0,0-.225,2.408h5.572Q413.549,123.148,413.549,121.861Z" transform="translate(-23.557 -26.453)"/>
    <path class="cls-1" d="M418.477,124.213q0-4.424,1.345-6.188a4.16,4.16,0,0,1,3.528-1.54,11.884,11.884,0,0,1,2.939.378,17.827,17.827,0,0,1,2.3.714V109.6h2.548v21.98h-1.959l-.589-1.624a9.638,9.638,0,0,1-2.353,1.176,8.254,8.254,0,0,1-2.883.616Q418.478,131.745,418.477,124.213Zm2.576-.028q0,5.153,2.576,5.152a12.084,12.084,0,0,0,4.956-1.2v-8.624a18.546,18.546,0,0,0-4.956-.672,2.309,2.309,0,0,0-1.4.392Q421.054,120.153,421.053,124.185Z" transform="translate(-23.557 -26.453)"/>
    <path class="cls-1" d="M441.186,117.325a24.548,24.548,0,0,1,7.223-.9,4.152,4.152,0,0,1,3.865,1.848,5.03,5.03,0,0,1,.615,2.6v10.7h-1.96l-.616-1.736a7.374,7.374,0,0,1-.924.518,16.38,16.38,0,0,1-2.268.91,8.114,8.114,0,0,1-2.52.476,3.89,3.89,0,0,1-2.814-1.036,3.629,3.629,0,0,1-1.078-2.744v-1.624a3.785,3.785,0,0,1,1.021-2.758,3.824,3.824,0,0,1,2.871-1.05h5.711q.028-.812.028-1.218c0-.27,0-.49-.015-.658a3.062,3.062,0,0,0-.111-.616,1.884,1.884,0,0,0-.279-.616,1.274,1.274,0,0,0-.463-.392,2.469,2.469,0,0,0-1.371-.28q-2.3,0-6.916.308Zm2.1,10.388q0,1.679,1.6,1.68a9.418,9.418,0,0,0,2.282-.35,22.608,22.608,0,0,0,2.254-.686l.9-.336v-3.64l-5.488.392a1.536,1.536,0,0,0-1.539,1.736Z" transform="translate(-23.557 -26.453)"/>
    <path class="cls-1" d="M455.772,131.577V116.708h1.933l.644,1.708q.083-.056.462-.294t.49-.294q.111-.056.462-.266a4.332,4.332,0,0,1,.489-.266c.094-.038.252-.112.477-.224a3.353,3.353,0,0,1,.532-.224c.13-.037.3-.088.519-.154a3.113,3.113,0,0,1,.6-.126,8.426,8.426,0,0,1,1.26-.112A4.122,4.122,0,0,1,467,117.871a5.224,5.224,0,0,1,1.177,3.458v10.248H465.6V121.329a2.213,2.213,0,0,0-1.372-2.352,3.824,3.824,0,0,0-1.357-.168,5.73,5.73,0,0,0-1.918.336,23.294,23.294,0,0,0-2.6,1.176v11.256Z" transform="translate(-23.557 -26.453)"/>
    <path class="cls-1" d="M470.5,124.213q0-4.424,1.345-6.188a4.16,4.16,0,0,1,3.528-1.54,11.884,11.884,0,0,1,2.939.378,17.827,17.827,0,0,1,2.3.714V109.6h2.548v21.98H481.2l-.589-1.624a9.638,9.638,0,0,1-2.353,1.176,8.254,8.254,0,0,1-2.883.616Q470.5,131.745,470.5,124.213Zm2.576-.028q0,5.153,2.576,5.152a12.084,12.084,0,0,0,4.956-1.2v-8.624a18.546,18.546,0,0,0-4.956-.672,2.309,2.309,0,0,0-1.4.392Q473.077,120.153,473.076,124.185Z" transform="translate(-23.557 -26.453)"/>
    <path class="cls-1" d="M493.209,117.325a24.548,24.548,0,0,1,7.223-.9,4.152,4.152,0,0,1,3.865,1.848,5.03,5.03,0,0,1,.615,2.6v10.7h-1.96l-.616-1.736a7.374,7.374,0,0,1-.924.518,16.38,16.38,0,0,1-2.268.91,8.114,8.114,0,0,1-2.52.476,3.89,3.89,0,0,1-2.814-1.036,3.629,3.629,0,0,1-1.078-2.744v-1.624a3.785,3.785,0,0,1,1.021-2.758,3.824,3.824,0,0,1,2.871-1.05h5.711q.028-.812.028-1.218c0-.27,0-.49-.015-.658a3.062,3.062,0,0,0-.111-.616,1.884,1.884,0,0,0-.279-.616,1.274,1.274,0,0,0-.463-.392,2.469,2.469,0,0,0-1.371-.28q-2.3,0-6.916.308Zm2.1,10.388q0,1.679,1.6,1.68a9.418,9.418,0,0,0,2.282-.35,22.608,22.608,0,0,0,2.254-.686l.9-.336v-3.64l-5.488.392a1.536,1.536,0,0,0-1.539,1.736Z" transform="translate(-23.557 -26.453)"/>
    <path class="cls-1" d="M507.544,126.929v-10.22h2.576v10.248a2.549,2.549,0,0,0,.616,1.876,2.5,2.5,0,0,0,1.848.616,6.8,6.8,0,0,0,2.184-.322,19.412,19.412,0,0,0,2.6-1.19V116.708h2.576v14.868h-1.933l-.644-1.68q-.168.084-.672.392t-.714.406c-.141.065-.359.177-.658.336a5.115,5.115,0,0,1-.742.336c-.2.065-.443.145-.742.238a6.227,6.227,0,0,1-1.764.224,4.115,4.115,0,0,1-3.374-1.414A5.31,5.31,0,0,1,507.544,126.929Z" transform="translate(-23.557 -26.453)"/>
    <path class="cls-1" d="M527.256,112.537v4.144h4.061V119h-4.061v7.084a4.913,4.913,0,0,0,.378,2.3,1.772,1.772,0,0,0,1.134.84q2.127.588,2.324.588v1.736h-2.716q-3.7,0-3.7-5.292V119h-2.66v-1.736l2.66-.588.561-4.144Z" transform="translate(-23.557 -26.453)"/>
    <path class="cls-1" d="M533.416,124.353a13.709,13.709,0,0,1,.644-4.732,4.143,4.143,0,0,1,2.044-2.366,9.085,9.085,0,0,1,3.92-.686q3.779,0,5.194,1.68t1.414,5.978q0,4.3-1.414,5.894t-5.166,1.6q-3.753,0-5.194-1.652T533.416,124.353Zm2.981-3.64a5.645,5.645,0,0,0-.321,1.5q-.085.883-.084,2.086a17.792,17.792,0,0,0,.1,2.044,4.582,4.582,0,0,0,.35,1.386,3.35,3.35,0,0,0,.547.868,1.831,1.831,0,0,0,.825.49,5.91,5.91,0,0,0,1.988.266,16.986,16.986,0,0,0,1.735-.084,3.5,3.5,0,0,0,1.106-.336,1.768,1.768,0,0,0,.826-.826,9.007,9.007,0,0,0,.588-3.752,11.847,11.847,0,0,0-.308-3.4,4.937,4.937,0,0,0-.574-1.176,1.723,1.723,0,0,0-.77-.546,5.5,5.5,0,0,0-1.988-.308q-1.2,0-1.709.056a4.622,4.622,0,0,0-1.021.238,1.63,1.63,0,0,0-.784.532A4.044,4.044,0,0,0,536.4,120.713Z" transform="translate(-23.557 -26.453)"/>
    <path class="cls-1" d="M561.752,120.349v11.228h-2.576V121.413a2.57,2.57,0,0,0-.645-1.834,2.134,2.134,0,0,0-1.624-.686,7.652,7.652,0,0,0-1.792.2,8.354,8.354,0,0,0-1.357.434q-.546.239-1.694.854v11.2h-2.576V116.708h1.933l.644,1.736q.168-.084.476-.28l.463-.294c.1-.065.252-.154.447-.266s.354-.2.477-.252.275-.13.461-.224a3.577,3.577,0,0,1,.5-.21l.5-.154q.28-.084.56-.14a10.808,10.808,0,0,1,1.387-.084,5.844,5.844,0,0,1,1.554.224,3.628,3.628,0,0,1,2.323,1.876,9.123,9.123,0,0,1,5.824-2.1,4.258,4.258,0,0,1,3.291,1.358,5.038,5.038,0,0,1,1.246,3.542v10.136H569V121.413a2.358,2.358,0,0,0-1.092-2.212,3.249,3.249,0,0,0-1.625-.308A7.89,7.89,0,0,0,561.752,120.349Z" transform="translate(-23.557 -26.453)"/>
    <path class="cls-1" d="M574.379,117.325a24.562,24.562,0,0,1,7.225-.9,4.147,4.147,0,0,1,3.863,1.848,5.03,5.03,0,0,1,.616,2.6v10.7h-1.96l-.615-1.736a7.609,7.609,0,0,1-.925.518,16.279,16.279,0,0,1-2.268.91,8.11,8.11,0,0,1-2.521.476,3.892,3.892,0,0,1-2.814-1.036,3.628,3.628,0,0,1-1.077-2.744v-1.624a3.577,3.577,0,0,1,3.892-3.808h5.713q.026-.812.027-1.218c0-.27,0-.49-.014-.658a3.144,3.144,0,0,0-.112-.616,1.885,1.885,0,0,0-.28-.616,1.256,1.256,0,0,0-.462-.392,2.473,2.473,0,0,0-1.372-.28q-2.3,0-6.916.308Zm2.1,10.388q0,1.679,1.6,1.68a9.424,9.424,0,0,0,2.282-.35,22.688,22.688,0,0,0,2.254-.686l.9-.336v-3.64l-5.488.392a1.537,1.537,0,0,0-1.541,1.736Z" transform="translate(-23.557 -26.453)"/>
    <path class="cls-1" d="M593.167,112.537v4.144h4.06V119h-4.06v7.084a4.913,4.913,0,0,0,.378,2.3,1.772,1.772,0,0,0,1.134.84q2.128.588,2.324.588v1.736h-2.716q-3.7,0-3.7-5.292V119h-2.659v-1.736l2.659-.588.56-4.144Z" transform="translate(-23.557 -26.453)"/>
    <path class="cls-1" d="M599.971,119.229a4.821,4.821,0,0,1,.84-1.358,3.08,3.08,0,0,1,1.26-.8,11.673,11.673,0,0,1,3.752-.476,9.388,9.388,0,0,1,3.864.532,3.093,3.093,0,0,1,1.484,1.568,8.626,8.626,0,0,1,.5,3.22q0,3.5-3.92,3.5H601.9a5.543,5.543,0,0,0,.616,3.164,2.788,2.788,0,0,0,2.3.784,48.212,48.212,0,0,0,6.58-.308v1.876a25.688,25.688,0,0,1-7.168.784q-2.827,0-3.863-1.652t-1.037-5.488A15.255,15.255,0,0,1,599.971,119.229Zm9.128,2.632a8.418,8.418,0,0,0-.112-1.6,1.486,1.486,0,0,0-.49-.854,1.83,1.83,0,0,0-.937-.406,10.028,10.028,0,0,0-1.441-.084q-.882,0-1.219.014c-.224.01-.5.033-.826.07a2.672,2.672,0,0,0-.713.154,3.358,3.358,0,0,0-.533.308,1.15,1.15,0,0,0-.434.518q-.126.308-.266.756a9.041,9.041,0,0,0-.225,2.408h5.572Q609.1,123.148,609.1,121.861Z" transform="translate(-23.557 -26.453)"/>
    <path class="cls-1" d="M614.026,124.213q0-4.424,1.345-6.188a4.157,4.157,0,0,1,3.527-1.54,11.872,11.872,0,0,1,2.939.378,17.8,17.8,0,0,1,2.3.714V109.6h2.548v21.98h-1.96l-.588-1.624a9.657,9.657,0,0,1-2.353,1.176,8.263,8.263,0,0,1-2.884.616Q614.026,131.745,614.026,124.213Zm2.576-.028q0,5.153,2.575,5.152a12.088,12.088,0,0,0,4.957-1.2v-8.624a18.553,18.553,0,0,0-4.957-.672,2.3,2.3,0,0,0-1.4.392Q616.6,120.153,616.6,124.185Z" transform="translate(-23.557 -26.453)"/>
    <path class="cls-1" d="M39.389,153.949v11.228H36.813V155.013a2.572,2.572,0,0,0-.644-1.834,2.134,2.134,0,0,0-1.624-.686,7.655,7.655,0,0,0-1.792.2,8.377,8.377,0,0,0-1.358.434q-.546.239-1.694.854v11.2H27.125V150.309h1.932l.644,1.736q.168-.084.476-.28l.462-.294q.154-.1.448-.266c.2-.112.354-.2.476-.252s.275-.13.462-.224a3.5,3.5,0,0,1,.5-.21l.5-.154q.28-.084.56-.14a10.793,10.793,0,0,1,1.386-.084,5.842,5.842,0,0,1,1.554.224,3.63,3.63,0,0,1,2.324,1.876,9.12,9.12,0,0,1,5.824-2.1,4.255,4.255,0,0,1,3.29,1.358,5.038,5.038,0,0,1,1.246,3.542v10.136H46.641V155.013a2.357,2.357,0,0,0-1.092-2.212,3.244,3.244,0,0,0-1.624-.308A7.893,7.893,0,0,0,39.389,153.949Z" transform="translate(-23.557 -26.453)"/>
    <path class="cls-1" d="M52.017,150.925a24.555,24.555,0,0,1,7.224-.9,4.15,4.15,0,0,1,3.864,1.848,5.03,5.03,0,0,1,.616,2.6v10.7h-1.96l-.616-1.736a7.49,7.49,0,0,1-.924.518,16.329,16.329,0,0,1-2.268.91,8.112,8.112,0,0,1-2.52.476,3.891,3.891,0,0,1-2.814-1.036,3.629,3.629,0,0,1-1.078-2.744v-1.624a3.576,3.576,0,0,1,3.892-3.808h5.712q.027-.812.028-1.218c0-.27,0-.49-.014-.658a3.1,3.1,0,0,0-.112-.616,1.884,1.884,0,0,0-.28-.616,1.265,1.265,0,0,0-.462-.392,2.471,2.471,0,0,0-1.372-.28q-2.3,0-6.916.308Zm2.1,10.388q0,1.679,1.6,1.68a9.421,9.421,0,0,0,2.282-.35,22.648,22.648,0,0,0,2.254-.686l.9-.336v-3.64l-5.488.392a1.536,1.536,0,0,0-1.54,1.736Z" transform="translate(-23.557 -26.453)"/>
    <path class="cls-1" d="M70.945,151.093a9.65,9.65,0,0,1,1.512-.63,6.812,6.812,0,0,1,2.184-.322,4.472,4.472,0,0,1,1.708.224v2.52a12.325,12.325,0,0,0-2.156-.14,7.852,7.852,0,0,0-2.478.35,12.566,12.566,0,0,0-2.534,1.274v10.808H66.6V150.309h1.96l.616,1.876.644-.42Q70.384,151.4,70.945,151.093Z" transform="translate(-23.557 -26.453)"/>
    <path class="cls-1" d="M78.448,165.177v-21.9h2.576v12.236h1.036l5.292-5.208H90.8l-6.328,6.356,6.328,8.512H87.66l-5.6-7.336H81.024v7.336Z" transform="translate(-23.557 -26.453)"/>
    <path class="cls-1" d="M92.42,152.829a4.821,4.821,0,0,1,.84-1.358,3.079,3.079,0,0,1,1.26-.8,11.671,11.671,0,0,1,3.752-.476,9.387,9.387,0,0,1,3.864.532,3.091,3.091,0,0,1,1.484,1.568,8.626,8.626,0,0,1,.5,3.22q0,3.5-3.92,3.5H94.353a5.548,5.548,0,0,0,.616,3.164,2.787,2.787,0,0,0,2.3.784,48.208,48.208,0,0,0,6.58-.308v1.876a25.691,25.691,0,0,1-7.168.784q-2.828,0-3.864-1.652t-1.036-5.488A15.258,15.258,0,0,1,92.42,152.829Zm9.128,2.632a8.426,8.426,0,0,0-.112-1.6,1.489,1.489,0,0,0-.49-.854,1.83,1.83,0,0,0-.938-.406,10.04,10.04,0,0,0-1.442-.084q-.882,0-1.218.014t-.826.07a2.681,2.681,0,0,0-.714.154,3.376,3.376,0,0,0-.532.308,1.148,1.148,0,0,0-.434.518q-.126.308-.266.756a9.067,9.067,0,0,0-.224,2.408h5.572Q101.548,156.749,101.548,155.461Z" transform="translate(-23.557 -26.453)"/>
    <path class="cls-1" d="M110.928,146.137v4.144h4.06V152.6h-4.06v7.084a4.913,4.913,0,0,0,.378,2.3,1.772,1.772,0,0,0,1.134.84q2.128.588,2.324.588v1.736h-2.716q-3.7,0-3.7-5.292V152.6h-2.66v-1.736l2.66-.588.56-4.144Z" transform="translate(-23.557 -26.453)"/>
    <path class="cls-1" d="M117.088,147.957v-1.764q0-.728.672-.728h1.82a.575.575,0,0,1,.476.21.8.8,0,0,1,.168.518v1.764a.569.569,0,0,1-.644.644h-1.82a.66.66,0,0,1-.49-.182A.626.626,0,0,1,117.088,147.957Zm.224,17.22V150.309h2.576v14.868Z" transform="translate(-23.557 -26.453)"/>
    <path class="cls-1" d="M123.08,165.177V150.309h1.932l.644,1.708q.084-.056.462-.294t.49-.294q.111-.056.462-.266a4.241,4.241,0,0,1,.49-.266q.14-.056.476-.224a3.335,3.335,0,0,1,.532-.224q.2-.056.518-.154a3.135,3.135,0,0,1,.6-.126,8.448,8.448,0,0,1,1.26-.112,4.124,4.124,0,0,1,3.36,1.414,5.228,5.228,0,0,1,1.176,3.458v10.248h-2.576V154.929a2.212,2.212,0,0,0-1.372-2.352,3.825,3.825,0,0,0-1.358-.168,5.735,5.735,0,0,0-1.918.336,23.335,23.335,0,0,0-2.6,1.176v11.256Z" transform="translate(-23.557 -26.453)"/>
    <path class="cls-1" d="M138.031,162.041a2.885,2.885,0,0,1,.42-1.512,1.9,1.9,0,0,1,1.232-.9q-1.625-1.036-1.624-3.878a5.817,5.817,0,0,1,1.288-4.172,4.833,4.833,0,0,1,3.64-1.33h8.82v1.764l-2.1.5q.028.056.2.364a3.823,3.823,0,0,1,.224.462q.056.155.168.518a5.339,5.339,0,0,1,.2,1.54,10.166,10.166,0,0,1-.1,1.526,6.3,6.3,0,0,1-.406,1.386,4.663,4.663,0,0,1-.812,1.33,3.932,3.932,0,0,1-1.386.966,4.948,4.948,0,0,1-2.03.392h-4.116q-1.148,0-1.148.784,0,.9,1.148.9h5.572a3.71,3.71,0,0,1,2.828,1.064,4.1,4.1,0,0,1,1.008,2.94v1.736q0,3.164-2.492,4.032a5.5,5.5,0,0,1-1.848.28h-4.2a4.167,4.167,0,0,1-3.92-1.9,4.606,4.606,0,0,1-.588-2.408v-2.24l1.148-1.708A2.726,2.726,0,0,1,138.031,162.041Zm3.78,3.024a3.548,3.548,0,0,1-1.232-.2v3.416q0,1.372.756,1.764a3.056,3.056,0,0,0,1.484.336h3.668a1.888,1.888,0,0,0,1.554-.546,2.4,2.4,0,0,0,.434-1.526v-1.484a2.021,2.021,0,0,0-.364-1.358,1.9,1.9,0,0,0-1.428-.406Zm1.2-6.412h2.408a2.292,2.292,0,0,0,2.408-2.072,3.6,3.6,0,0,0,.084-.672,4.326,4.326,0,0,0-.56-2.534,2.309,2.309,0,0,0-1.96-.742h-2.24q-2.52,0-2.52,3.01T143.016,158.653Z" transform="translate(-23.557 -26.453)"/>
    <path class="cls-1" d="M164.309,150.169q2.169,0,4.452.2t2.926.336v1.848h-7.14q-1.064,0-1.344.336a1.757,1.757,0,0,0-.28,1.12v1.12q0,1.008.476,1.232a2.643,2.643,0,0,0,1.148.2h4.172a4.116,4.116,0,0,1,2.1.5,3.365,3.365,0,0,1,1.624,3.192v1.4q0,3.668-3.64,3.668-1.428,0-4.256-.21a27.245,27.245,0,0,1-3.584-.406v-1.792h7.5q1.4,0,1.4-1.344v-1.176a1.3,1.3,0,0,0-.532-1.232,1.947,1.947,0,0,0-.868-.168h-4.172a4.5,4.5,0,0,1-3-.826,3.73,3.73,0,0,1-.952-2.926v-1.288a3.362,3.362,0,0,1,3.962-3.78Z" transform="translate(-23.557 -26.453)"/>
    <path class="cls-1" d="M178.688,146.137v4.144h4.06V152.6h-4.06v7.084a4.913,4.913,0,0,0,.378,2.3,1.772,1.772,0,0,0,1.134.84q2.128.588,2.324.588v1.736h-2.716q-3.7,0-3.7-5.292V152.6h-2.66v-1.736l2.66-.588.56-4.144Z" transform="translate(-23.557 -26.453)"/>
    <path class="cls-1" d="M189.439,151.093a9.65,9.65,0,0,1,1.512-.63,6.812,6.812,0,0,1,2.184-.322,4.472,4.472,0,0,1,1.708.224v2.52a12.325,12.325,0,0,0-2.156-.14,7.852,7.852,0,0,0-2.478.35,12.566,12.566,0,0,0-2.534,1.274v10.808H185.1V150.309h1.96l.616,1.876.644-.42Q188.878,151.4,189.439,151.093Z" transform="translate(-23.557 -26.453)"/>
    <path class="cls-1" d="M196.887,150.925a24.555,24.555,0,0,1,7.224-.9,4.15,4.15,0,0,1,3.864,1.848,5.03,5.03,0,0,1,.616,2.6v10.7h-1.96l-.616-1.736a7.49,7.49,0,0,1-.924.518,16.329,16.329,0,0,1-2.268.91,8.112,8.112,0,0,1-2.52.476,3.891,3.891,0,0,1-2.814-1.036,3.629,3.629,0,0,1-1.078-2.744v-1.624a3.576,3.576,0,0,1,3.892-3.808h5.712q.027-.812.028-1.218c0-.27,0-.49-.014-.658a3.1,3.1,0,0,0-.112-.616,1.884,1.884,0,0,0-.28-.616,1.265,1.265,0,0,0-.462-.392,2.471,2.471,0,0,0-1.372-.28q-2.3,0-6.916.308Zm2.1,10.388q0,1.679,1.6,1.68a9.421,9.421,0,0,0,2.282-.35,22.648,22.648,0,0,0,2.254-.686l.9-.336v-3.64l-5.488.392a1.536,1.536,0,0,0-1.54,1.736Z" transform="translate(-23.557 -26.453)"/>
    <path class="cls-1" d="M215.675,146.137v4.144h4.06V152.6h-4.06v7.084a4.913,4.913,0,0,0,.378,2.3,1.772,1.772,0,0,0,1.134.84q2.128.588,2.324.588v1.736h-2.716q-3.7,0-3.7-5.292V152.6h-2.66v-1.736l2.66-.588.56-4.144Z" transform="translate(-23.557 -26.453)"/>
    <path class="cls-1" d="M222.478,152.829a4.821,4.821,0,0,1,.84-1.358,3.079,3.079,0,0,1,1.26-.8,11.671,11.671,0,0,1,3.752-.476,9.387,9.387,0,0,1,3.864.532,3.091,3.091,0,0,1,1.484,1.568,8.626,8.626,0,0,1,.5,3.22q0,3.5-3.92,3.5H224.41a5.548,5.548,0,0,0,.616,3.164,2.787,2.787,0,0,0,2.3.784,48.208,48.208,0,0,0,6.58-.308v1.876a25.691,25.691,0,0,1-7.168.784q-2.828,0-3.864-1.652t-1.036-5.488A15.258,15.258,0,0,1,222.478,152.829Zm9.128,2.632a8.426,8.426,0,0,0-.112-1.6,1.489,1.489,0,0,0-.49-.854,1.83,1.83,0,0,0-.938-.406,10.04,10.04,0,0,0-1.442-.084q-.882,0-1.218.014t-.826.07a2.681,2.681,0,0,0-.714.154,3.376,3.376,0,0,0-.532.308,1.148,1.148,0,0,0-.434.518q-.126.308-.266.756a9.067,9.067,0,0,0-.224,2.408h5.572Q231.606,156.749,231.606,155.461Z" transform="translate(-23.557 -26.453)"/>
    <path class="cls-1" d="M236.478,162.041a2.885,2.885,0,0,1,.42-1.512,1.9,1.9,0,0,1,1.232-.9q-1.625-1.036-1.624-3.878a5.817,5.817,0,0,1,1.288-4.172,4.833,4.833,0,0,1,3.64-1.33h8.82v1.764l-2.1.5q.028.056.2.364a3.823,3.823,0,0,1,.224.462q.056.155.168.518a5.339,5.339,0,0,1,.2,1.54,10.166,10.166,0,0,1-.1,1.526,6.3,6.3,0,0,1-.406,1.386,4.663,4.663,0,0,1-.812,1.33,3.932,3.932,0,0,1-1.386.966,4.948,4.948,0,0,1-2.03.392H240.09q-1.148,0-1.148.784,0,.9,1.148.9h5.572a3.71,3.71,0,0,1,2.828,1.064,4.1,4.1,0,0,1,1.008,2.94v1.736q0,3.164-2.492,4.032a5.5,5.5,0,0,1-1.848.28h-4.2a4.167,4.167,0,0,1-3.92-1.9,4.606,4.606,0,0,1-.588-2.408v-2.24l1.148-1.708A2.726,2.726,0,0,1,236.478,162.041Zm3.78,3.024a3.548,3.548,0,0,1-1.232-.2v3.416q0,1.372.756,1.764a3.056,3.056,0,0,0,1.484.336h3.668a1.888,1.888,0,0,0,1.554-.546,2.4,2.4,0,0,0,.434-1.526v-1.484a2.021,2.021,0,0,0-.364-1.358,1.9,1.9,0,0,0-1.428-.406Zm1.2-6.412h2.408a2.292,2.292,0,0,0,2.408-2.072,3.6,3.6,0,0,0,.084-.672,4.326,4.326,0,0,0-.56-2.534,2.309,2.309,0,0,0-1.96-.742H241.6q-2.52,0-2.52,3.01T241.462,158.653Z" transform="translate(-23.557 -26.453)"/>
    <path class="cls-1" d="M251.318,150.309h2.772l3.3,11.284a1.365,1.365,0,0,0,1.708,1.12l.056-.028,3.92-12.376h2.8l-6.188,19.572-2.072,2.856H255.91l2.492-7.56q-2.688,0-3.64-3.276Z" transform="translate(-23.557 -26.453)"/>
    <path class="cls-1" d="M274.95,150.925a24.555,24.555,0,0,1,7.224-.9,4.15,4.15,0,0,1,3.864,1.848,5.03,5.03,0,0,1,.616,2.6v10.7h-1.96l-.616-1.736a7.49,7.49,0,0,1-.924.518,16.329,16.329,0,0,1-2.268.91,8.112,8.112,0,0,1-2.52.476,3.891,3.891,0,0,1-2.814-1.036,3.629,3.629,0,0,1-1.078-2.744v-1.624a3.576,3.576,0,0,1,3.892-3.808h5.712q.027-.812.028-1.218c0-.27,0-.49-.014-.658a3.1,3.1,0,0,0-.112-.616,1.884,1.884,0,0,0-.28-.616,1.265,1.265,0,0,0-.462-.392,2.471,2.471,0,0,0-1.372-.28q-2.3,0-6.916.308Zm2.1,10.388q0,1.679,1.6,1.68a9.421,9.421,0,0,0,2.282-.35,22.648,22.648,0,0,0,2.254-.686l.9-.336v-3.64l-5.488.392a1.536,1.536,0,0,0-1.54,1.736Z" transform="translate(-23.557 -26.453)"/>
    <path class="cls-1" d="M289.537,165.177V150.309h1.932l.644,1.708q.084-.056.462-.294t.49-.294q.111-.056.462-.266a4.241,4.241,0,0,1,.49-.266q.14-.056.476-.224a3.335,3.335,0,0,1,.532-.224q.2-.056.518-.154a3.135,3.135,0,0,1,.6-.126,8.448,8.448,0,0,1,1.26-.112,4.124,4.124,0,0,1,3.36,1.414,5.228,5.228,0,0,1,1.176,3.458v10.248h-2.576V154.929a2.212,2.212,0,0,0-1.372-2.352,3.825,3.825,0,0,0-1.358-.168,5.735,5.735,0,0,0-1.918.336,23.335,23.335,0,0,0-2.6,1.176v11.256Z" transform="translate(-23.557 -26.453)"/>
    <path class="cls-1" d="M304.265,157.813q0-4.424,1.344-6.188a4.159,4.159,0,0,1,3.528-1.54,11.882,11.882,0,0,1,2.94.378,17.8,17.8,0,0,1,2.3.714V143.2h2.548v21.98h-1.96l-.588-1.624a9.642,9.642,0,0,1-2.352,1.176,8.261,8.261,0,0,1-2.884.616Q304.265,165.345,304.265,157.813Zm2.576-.028q0,5.153,2.576,5.152a12.085,12.085,0,0,0,4.956-1.2v-8.624a18.543,18.543,0,0,0-4.956-.672,2.3,2.3,0,0,0-1.4.392Q306.842,153.753,306.841,157.785Z" transform="translate(-23.557 -26.453)"/>
    <path class="cls-1" d="M331.369,151.093a9.65,9.65,0,0,1,1.512-.63,6.812,6.812,0,0,1,2.184-.322,4.472,4.472,0,0,1,1.708.224v2.52a12.325,12.325,0,0,0-2.156-.14,7.852,7.852,0,0,0-2.478.35,12.566,12.566,0,0,0-2.534,1.274v10.808h-2.576V150.309h1.96l.616,1.876.644-.42Q330.809,151.4,331.369,151.093Z" transform="translate(-23.557 -26.453)"/>
    <path class="cls-1" d="M338.061,157.953a13.707,13.707,0,0,1,.644-4.732,4.145,4.145,0,0,1,2.044-2.366,9.084,9.084,0,0,1,3.92-.686q3.78,0,5.194,1.68t1.414,5.978q0,4.3-1.414,5.894t-5.166,1.6q-3.753,0-5.194-1.652T338.061,157.953Zm2.982-3.64a5.683,5.683,0,0,0-.322,1.5q-.084.883-.084,2.086a17.891,17.891,0,0,0,.1,2.044,4.6,4.6,0,0,0,.35,1.386,3.376,3.376,0,0,0,.546.868,1.836,1.836,0,0,0,.826.49,5.908,5.908,0,0,0,1.988.266,17.014,17.014,0,0,0,1.736-.084,3.492,3.492,0,0,0,1.106-.336,1.772,1.772,0,0,0,.826-.826,9.007,9.007,0,0,0,.588-3.752,11.841,11.841,0,0,0-.308-3.4,4.921,4.921,0,0,0-.574-1.176,1.724,1.724,0,0,0-.77-.546,5.5,5.5,0,0,0-1.988-.308q-1.2,0-1.708.056a4.62,4.62,0,0,0-1.022.238,1.632,1.632,0,0,0-.784.532A4.009,4.009,0,0,0,341.043,154.313Z" transform="translate(-23.557 -26.453)"/>
    <path class="cls-1" d="M354.077,150.925a24.551,24.551,0,0,1,7.224-.9,4.149,4.149,0,0,1,3.864,1.848,5.03,5.03,0,0,1,.616,2.6v10.7H363.82l-.615-1.736a7.55,7.55,0,0,1-.924.518,16.38,16.38,0,0,1-2.268.91,8.12,8.12,0,0,1-2.521.476,3.892,3.892,0,0,1-2.814-1.036,3.629,3.629,0,0,1-1.078-2.744v-1.624a3.576,3.576,0,0,1,3.892-3.808h5.712q.026-.812.027-1.218c0-.27,0-.49-.014-.658a3.207,3.207,0,0,0-.111-.616,1.905,1.905,0,0,0-.28-.616,1.271,1.271,0,0,0-.462-.392,2.473,2.473,0,0,0-1.372-.28q-2.3,0-6.916.308Zm2.1,10.388q0,1.679,1.6,1.68a9.418,9.418,0,0,0,2.281-.35,22.608,22.608,0,0,0,2.254-.686l.9-.336v-3.64l-5.488.392a1.536,1.536,0,0,0-1.54,1.736Z" transform="translate(-23.557 -26.453)"/>
    <path class="cls-1" d="M368.412,157.813q0-4.424,1.345-6.188a4.16,4.16,0,0,1,3.528-1.54,11.884,11.884,0,0,1,2.939.378,17.827,17.827,0,0,1,2.3.714V143.2h2.548v21.98h-1.959l-.589-1.624a9.638,9.638,0,0,1-2.353,1.176,8.254,8.254,0,0,1-2.883.616Q368.413,165.345,368.412,157.813Zm2.576-.028q0,5.153,2.576,5.152a12.084,12.084,0,0,0,4.956-1.2v-8.624a18.546,18.546,0,0,0-4.956-.672,2.309,2.309,0,0,0-1.4.392Q370.989,153.753,370.988,157.785Z" transform="translate(-23.557 -26.453)"/>
    <path class="cls-1" d="M396.44,153.949v11.228h-2.576V155.013a2.574,2.574,0,0,0-.644-1.834,2.135,2.135,0,0,0-1.625-.686,7.65,7.65,0,0,0-1.791.2,8.368,8.368,0,0,0-1.358.434q-.546.239-1.694.854v11.2h-2.576V150.309h1.933l.644,1.736q.168-.084.477-.28l.462-.294q.154-.1.448-.266t.476-.252q.182-.083.462-.224a3.523,3.523,0,0,1,.5-.21l.5-.154c.188-.056.373-.1.561-.14a10.793,10.793,0,0,1,1.386-.084,5.833,5.833,0,0,1,1.554.224,3.63,3.63,0,0,1,2.324,1.876,9.119,9.119,0,0,1,5.824-2.1,4.255,4.255,0,0,1,3.29,1.358,5.038,5.038,0,0,1,1.246,3.542v10.136h-2.576V155.013A2.358,2.358,0,0,0,402.6,152.8a3.245,3.245,0,0,0-1.624-.308A7.9,7.9,0,0,0,396.44,153.949Z" transform="translate(-23.557 -26.453)"/>
    <path class="cls-1" d="M409.068,150.925a24.56,24.56,0,0,1,7.224-.9,4.15,4.15,0,0,1,3.864,1.848,5.03,5.03,0,0,1,.615,2.6v10.7h-1.959l-.616-1.736a7.431,7.431,0,0,1-.925.518,16.279,16.279,0,0,1-2.268.91,8.1,8.1,0,0,1-2.52.476,3.89,3.89,0,0,1-2.814-1.036,3.629,3.629,0,0,1-1.078-2.744v-1.624a3.577,3.577,0,0,1,3.893-3.808H418.2q.028-.812.028-1.218c0-.27-.006-.49-.015-.658a3,3,0,0,0-.112-.616,1.864,1.864,0,0,0-.279-.616,1.259,1.259,0,0,0-.463-.392,2.469,2.469,0,0,0-1.371-.28q-2.3,0-6.916.308Zm2.1,10.388q0,1.679,1.6,1.68a9.425,9.425,0,0,0,2.283-.35,22.688,22.688,0,0,0,2.254-.686l.9-.336v-3.64l-5.488.392a1.536,1.536,0,0,0-1.54,1.736Z" transform="translate(-23.557 -26.453)"/>
    <path class="cls-1" d="M428.92,150.617a10.168,10.168,0,0,1,2.66-.476,4.141,4.141,0,0,1,1.876.434,3.933,3.933,0,0,1,1.4,1.134,5.859,5.859,0,0,1,.869,1.708,11.559,11.559,0,0,1,.588,3.668q0,1.9-.1,2.926a11.143,11.143,0,0,1-.405,2.072,5.392,5.392,0,0,1-.841,1.75,4.128,4.128,0,0,1-3.528,1.568,13.751,13.751,0,0,1-2.547-.294,15.394,15.394,0,0,1-2.717-.77v8.4h-2.52V150.309h1.959l.589,1.6A8.179,8.179,0,0,1,428.92,150.617Zm2.24,12.432a2.306,2.306,0,0,0,1.4-.392q1.175-.924,1.176-4.928,0-5.18-2.576-5.18a11.951,11.951,0,0,0-4.956,1.2v8.624A18.353,18.353,0,0,0,431.16,163.049Z" transform="translate(-23.557 -26.453)"/>
    <path class="cls-1" d="M450.367,146.137v4.144h4.061V152.6h-4.061v7.084a4.91,4.91,0,0,0,.379,2.3,1.77,1.77,0,0,0,1.133.84q2.128.588,2.324.588v1.736h-2.715q-3.7,0-3.7-5.292V152.6h-2.659v-1.736l2.659-.588.561-4.144Z" transform="translate(-23.557 -26.453)"/>
    <path class="cls-1" d="M459.355,143.225v8.792c.057-.037.21-.135.462-.294s.411-.256.476-.294.215-.126.448-.266a3.476,3.476,0,0,1,.5-.266c.1-.038.266-.107.489-.21s.4-.177.532-.224.3-.1.518-.168a3.158,3.158,0,0,1,.6-.126,8.47,8.47,0,0,1,1.261-.112,4.126,4.126,0,0,1,3.36,1.414,5.233,5.233,0,0,1,1.176,3.458v10.248h-2.576V154.929a2.6,2.6,0,0,0-.616-1.89,2.476,2.476,0,0,0-1.848-.63,6.56,6.56,0,0,0-2.185.336,23.375,23.375,0,0,0-2.6,1.176v11.256h-2.576V143.225Z" transform="translate(-23.557 -26.453)"/>
    <path class="cls-1" d="M476.379,151.093a9.65,9.65,0,0,1,1.512-.63,6.82,6.82,0,0,1,2.185-.322,4.474,4.474,0,0,1,1.708.224v2.52a12.329,12.329,0,0,0-2.156-.14,7.857,7.857,0,0,0-2.478.35,12.566,12.566,0,0,0-2.534,1.274v10.808h-2.576V150.309H474l.616,1.876.645-.42Q475.819,151.4,476.379,151.093Z" transform="translate(-23.557 -26.453)"/>
    <path class="cls-1" d="M483.071,157.953a13.709,13.709,0,0,1,.644-4.732,4.148,4.148,0,0,1,2.045-2.366,9.082,9.082,0,0,1,3.92-.686q3.779,0,5.193,1.68t1.414,5.978q0,4.3-1.414,5.894t-5.166,1.6q-3.753,0-5.193-1.652T483.071,157.953Zm2.981-3.64a5.684,5.684,0,0,0-.321,1.5q-.083.883-.084,2.086a17.766,17.766,0,0,0,.1,2.044,4.582,4.582,0,0,0,.35,1.386,3.376,3.376,0,0,0,.546.868,1.842,1.842,0,0,0,.825.49,5.914,5.914,0,0,0,1.988.266,17.009,17.009,0,0,0,1.736-.084,3.485,3.485,0,0,0,1.105-.336,1.768,1.768,0,0,0,.826-.826,8.991,8.991,0,0,0,.588-3.752,11.847,11.847,0,0,0-.308-3.4,4.981,4.981,0,0,0-.573-1.176,1.726,1.726,0,0,0-.771-.546,5.5,5.5,0,0,0-1.988-.308q-1.2,0-1.708.056a4.609,4.609,0,0,0-1.021.238,1.638,1.638,0,0,0-.785.532A4.044,4.044,0,0,0,486.053,154.313Z" transform="translate(-23.557 -26.453)"/>
    <path class="cls-1" d="M498.891,160.529v-10.22h2.576v10.248a2.549,2.549,0,0,0,.616,1.876,2.509,2.509,0,0,0,1.849.616,6.8,6.8,0,0,0,2.184-.322,19.412,19.412,0,0,0,2.6-1.19V150.309h2.576v14.868h-1.932l-.645-1.68c-.111.056-.336.187-.672.392s-.574.341-.714.406-.359.177-.657.336a5.163,5.163,0,0,1-.742.336q-.294.1-.742.238a6.227,6.227,0,0,1-1.764.224,4.117,4.117,0,0,1-3.375-1.414A5.31,5.31,0,0,1,498.891,160.529Z" transform="translate(-23.557 -26.453)"/>
    <path class="cls-1" d="M514.095,162.041a2.877,2.877,0,0,1,.421-1.512,1.9,1.9,0,0,1,1.231-.9q-1.625-1.036-1.624-3.878a5.82,5.82,0,0,1,1.288-4.172,4.832,4.832,0,0,1,3.64-1.33h8.82v1.764l-2.1.5c.018.038.084.159.2.364a3.923,3.923,0,0,1,.225.462q.056.155.168.518a5.358,5.358,0,0,1,.2,1.54,10.238,10.238,0,0,1-.1,1.526,6.351,6.351,0,0,1-.406,1.386,4.642,4.642,0,0,1-.812,1.33,3.928,3.928,0,0,1-1.385.966,4.953,4.953,0,0,1-2.031.392h-4.115q-1.148,0-1.148.784,0,.9,1.148.9h5.572a3.71,3.71,0,0,1,2.828,1.064,4.1,4.1,0,0,1,1.008,2.94v1.736q0,3.164-2.492,4.032a5.5,5.5,0,0,1-1.848.28h-4.2a4.168,4.168,0,0,1-3.921-1.9,4.615,4.615,0,0,1-.588-2.408v-2.24l1.148-1.708A2.727,2.727,0,0,1,514.095,162.041Zm3.78,3.024a3.555,3.555,0,0,1-1.232-.2v3.416q0,1.372.756,1.764a3.061,3.061,0,0,0,1.484.336h3.668a1.891,1.891,0,0,0,1.555-.546,2.4,2.4,0,0,0,.434-1.526v-1.484a2.018,2.018,0,0,0-.364-1.358,1.9,1.9,0,0,0-1.428-.406Zm1.2-6.412h2.407a2.292,2.292,0,0,0,2.408-2.072,3.556,3.556,0,0,0,.084-.672,4.327,4.327,0,0,0-.56-2.534,2.309,2.309,0,0,0-1.96-.742h-2.24q-2.52,0-2.52,3.01T519.079,158.653Z" transform="translate(-23.557 -26.453)"/>
    <path class="cls-1" d="M532.519,143.225v8.792q.083-.056.462-.294c.252-.158.41-.256.477-.294s.214-.126.447-.266a3.532,3.532,0,0,1,.5-.266q.154-.056.49-.21c.225-.1.4-.177.532-.224s.3-.1.519-.168a3.113,3.113,0,0,1,.6-.126,8.426,8.426,0,0,1,1.26-.112,4.122,4.122,0,0,1,3.359,1.414,5.224,5.224,0,0,1,1.177,3.458v10.248h-2.576V154.929a2.607,2.607,0,0,0-.616-1.89,2.475,2.475,0,0,0-1.848-.63,6.546,6.546,0,0,0-2.184.336,23.294,23.294,0,0,0-2.6,1.176v11.256h-2.576V143.225Z" transform="translate(-23.557 -26.453)"/>
    <path class="cls-1" d="M551.95,160.529v-10.22h2.576v10.248a2.549,2.549,0,0,0,.616,1.876,2.5,2.5,0,0,0,1.848.616,6.8,6.8,0,0,0,2.184-.322,19.412,19.412,0,0,0,2.6-1.19V150.309h2.576v14.868h-1.933l-.644-1.68q-.168.084-.672.392t-.714.406c-.141.065-.359.177-.658.336a5.115,5.115,0,0,1-.742.336c-.2.065-.443.145-.742.238a6.227,6.227,0,0,1-1.764.224,4.115,4.115,0,0,1-3.374-1.414A5.31,5.31,0,0,1,551.95,160.529Z" transform="translate(-23.557 -26.453)"/>
    <path class="cls-1" d="M570.893,150.169q2.168,0,4.451.2t2.926.336v1.848h-7.14q-1.065,0-1.344.336a1.76,1.76,0,0,0-.28,1.12v1.12q0,1.008.477,1.232a2.639,2.639,0,0,0,1.147.2H575.3a4.118,4.118,0,0,1,2.1.5,3.365,3.365,0,0,1,1.623,3.192v1.4q0,3.668-3.639,3.668-1.43,0-4.257-.21a27.233,27.233,0,0,1-3.584-.406v-1.792h7.5q1.4,0,1.4-1.344v-1.176a1.3,1.3,0,0,0-.532-1.232,1.948,1.948,0,0,0-.868-.168h-4.172a4.506,4.506,0,0,1-3-.826,3.73,3.73,0,0,1-.952-2.926v-1.288a3.363,3.363,0,0,1,3.963-3.78Z" transform="translate(-23.557 -26.453)"/>
    <path class="cls-1" d="M582.021,152.829a4.843,4.843,0,0,1,.84-1.358,3.09,3.09,0,0,1,1.261-.8,11.669,11.669,0,0,1,3.752-.476,9.391,9.391,0,0,1,3.864.532,3.093,3.093,0,0,1,1.484,1.568,8.626,8.626,0,0,1,.5,3.22q0,3.5-3.92,3.5h-5.853a5.543,5.543,0,0,0,.616,3.164,2.785,2.785,0,0,0,2.3.784,48.2,48.2,0,0,0,6.579-.308v1.876a25.683,25.683,0,0,1-7.168.784q-2.827,0-3.863-1.652t-1.036-5.488A15.261,15.261,0,0,1,582.021,152.829Zm9.129,2.632a8.418,8.418,0,0,0-.112-1.6,1.491,1.491,0,0,0-.49-.854,1.829,1.829,0,0,0-.938-.406,10.028,10.028,0,0,0-1.441-.084q-.882,0-1.218.014c-.224.01-.5.033-.826.07a2.672,2.672,0,0,0-.714.154,3.355,3.355,0,0,0-.532.308,1.146,1.146,0,0,0-.435.518c-.084.206-.172.458-.266.756a9.093,9.093,0,0,0-.224,2.408h5.571Q591.15,156.749,591.15,155.461Z" transform="translate(-23.557 -26.453)"/>
    <path class="cls-1" d="M600.67,151.093a9.65,9.65,0,0,1,1.512-.63,6.813,6.813,0,0,1,2.184-.322,4.476,4.476,0,0,1,1.709.224v2.52a12.337,12.337,0,0,0-2.156-.14,7.859,7.859,0,0,0-2.479.35,12.563,12.563,0,0,0-2.533,1.274v10.808H596.33V150.309h1.959l.617,1.876.644-.42Q600.109,151.4,600.67,151.093Z" transform="translate(-23.557 -26.453)"/>
    <path class="cls-1" d="M26.089,186.232v-1.848l2.6-.476v-2.772a6.7,6.7,0,0,1,.2-1.96,6.267,6.267,0,0,1,.378-.9,2.264,2.264,0,0,1,.476-.6,4.442,4.442,0,0,1,.658-.49,4.733,4.733,0,0,1,2.282-.42,11.466,11.466,0,0,1,3.57.672v1.624l-3.22-.028q-1.4-.027-1.652.924a6.689,6.689,0,0,0-.112,1.428v2.52h3.92v2.324h-3.92v12.544H28.693V186.232Z" transform="translate(-23.557 -26.453)"/>
    <path class="cls-1" d="M37.9,186.428a4.821,4.821,0,0,1,.84-1.358,3.079,3.079,0,0,1,1.26-.8,11.671,11.671,0,0,1,3.752-.476,9.387,9.387,0,0,1,3.864.532A3.091,3.091,0,0,1,49.1,185.9a8.626,8.626,0,0,1,.5,3.22q0,3.5-3.92,3.5H39.837a5.548,5.548,0,0,0,.616,3.164,2.787,2.787,0,0,0,2.3.784,48.208,48.208,0,0,0,6.58-.308v1.876a25.691,25.691,0,0,1-7.168.784q-2.828,0-3.864-1.652t-1.036-5.488A15.258,15.258,0,0,1,37.9,186.428Zm9.128,2.632a8.426,8.426,0,0,0-.112-1.6,1.489,1.489,0,0,0-.49-.854,1.83,1.83,0,0,0-.938-.406,10.04,10.04,0,0,0-1.442-.084q-.882,0-1.218.014t-.826.07a2.681,2.681,0,0,0-.714.154,3.376,3.376,0,0,0-.532.308,1.148,1.148,0,0,0-.434.518q-.126.308-.266.756a9.067,9.067,0,0,0-.224,2.408h5.572Q47.032,190.348,47.033,189.061Z" transform="translate(-23.557 -26.453)"/>
    <path class="cls-1" d="M52.6,186.428a4.821,4.821,0,0,1,.84-1.358,3.079,3.079,0,0,1,1.26-.8,11.671,11.671,0,0,1,3.752-.476,9.387,9.387,0,0,1,3.864.532A3.091,3.091,0,0,1,63.8,185.9a8.626,8.626,0,0,1,.5,3.22q0,3.5-3.92,3.5H54.537a5.548,5.548,0,0,0,.616,3.164,2.787,2.787,0,0,0,2.3.784,48.208,48.208,0,0,0,6.58-.308v1.876a25.691,25.691,0,0,1-7.168.784q-2.828,0-3.864-1.652t-1.036-5.488A15.258,15.258,0,0,1,52.6,186.428Zm9.128,2.632a8.426,8.426,0,0,0-.112-1.6,1.489,1.489,0,0,0-.49-.854,1.83,1.83,0,0,0-.938-.406,10.04,10.04,0,0,0-1.442-.084q-.882,0-1.218.014t-.826.07a2.681,2.681,0,0,0-.714.154,3.376,3.376,0,0,0-.532.308,1.148,1.148,0,0,0-.434.518q-.126.308-.266.756a9.067,9.067,0,0,0-.224,2.408h5.572Q61.732,190.348,61.732,189.061Z" transform="translate(-23.557 -26.453)"/>
    <path class="cls-1" d="M66.66,191.413q0-4.424,1.344-6.188a4.159,4.159,0,0,1,3.528-1.54,11.882,11.882,0,0,1,2.94.378,17.8,17.8,0,0,1,2.3.714V176.8h2.548v21.98h-1.96l-.588-1.624a9.642,9.642,0,0,1-2.352,1.176,8.261,8.261,0,0,1-2.884.616Q66.66,198.944,66.66,191.413Zm2.576-.028q0,5.153,2.576,5.152a12.085,12.085,0,0,0,4.956-1.2v-8.624a18.543,18.543,0,0,0-4.956-.672,2.3,2.3,0,0,0-1.4.392Q69.237,187.353,69.236,191.384Z" transform="translate(-23.557 -26.453)"/>
    <path class="cls-1" d="M84.944,176.8v7.98a13.889,13.889,0,0,1,2.716-.8,13.454,13.454,0,0,1,2.464-.294,5.6,5.6,0,0,1,1.666.224,4.026,4.026,0,0,1,1.218.6,3.766,3.766,0,0,1,.882.952,5.62,5.62,0,0,1,.6,1.2,8.744,8.744,0,0,1,.364,1.47,20.654,20.654,0,0,1,.224,3.276q0,7.532-4.872,7.532a8.264,8.264,0,0,1-2.884-.616,9.628,9.628,0,0,1-2.352-1.176l-.588,1.624h-1.96V176.8Zm4.984,19.74q2.576,0,2.576-5.152a9.347,9.347,0,0,0-.672-4.312,2.1,2.1,0,0,0-1.9-1.036,18.542,18.542,0,0,0-4.956.672v8.624A12.082,12.082,0,0,0,89.928,196.536Z" transform="translate(-23.557 -26.453)"/>
    <path class="cls-1" d="M97.88,184.524a24.555,24.555,0,0,1,7.224-.9,4.15,4.15,0,0,1,3.864,1.848,5.03,5.03,0,0,1,.616,2.6v10.7h-1.96l-.616-1.736a7.49,7.49,0,0,1-.924.518,16.329,16.329,0,0,1-2.268.91,8.112,8.112,0,0,1-2.52.476,3.891,3.891,0,0,1-2.814-1.036,3.629,3.629,0,0,1-1.078-2.744v-1.624a3.576,3.576,0,0,1,3.892-3.808h5.712q.027-.812.028-1.218c0-.27,0-.49-.014-.658a3.1,3.1,0,0,0-.112-.616,1.884,1.884,0,0,0-.28-.616,1.265,1.265,0,0,0-.462-.392,2.471,2.471,0,0,0-1.372-.28q-2.3,0-6.916.308Zm2.1,10.388q0,1.679,1.6,1.68a9.421,9.421,0,0,0,2.282-.35,22.648,22.648,0,0,0,2.254-.686l.9-.336v-3.64l-5.488.392a1.536,1.536,0,0,0-1.54,1.736Z" transform="translate(-23.557 -26.453)"/>
    <path class="cls-1" d="M112.467,194.576a18.217,18.217,0,0,1-.252-3.248,18.967,18.967,0,0,1,.238-3.234,8.246,8.246,0,0,1,.644-2.184,3.751,3.751,0,0,1,1.05-1.33,4.944,4.944,0,0,1,2.968-.812,26.36,26.36,0,0,1,3.6.266,28.089,28.089,0,0,1,2.9.518v1.736q-3.556-.168-5.11-.168a14.392,14.392,0,0,0-1.9.07,1.968,1.968,0,0,0-.742.35,1.668,1.668,0,0,0-.588.84,11.392,11.392,0,0,0-.476,3.724,15.766,15.766,0,0,0,.28,3.514,2.542,2.542,0,0,0,.854,1.512,2.925,2.925,0,0,0,1.694.406q2.24,0,5.208-.2l.98-.084v1.82a15.677,15.677,0,0,1-4.368.784,16.834,16.834,0,0,1-3.752-.07,4.175,4.175,0,0,1-1.5-.7,3.554,3.554,0,0,1-1.064-1.316A8.577,8.577,0,0,1,112.467,194.576Z" transform="translate(-23.557 -26.453)"/>
    <path class="cls-1" d="M126.411,198.776v-21.9h2.576v12.236h1.036l5.292-5.208h3.444l-6.328,6.356,6.328,8.512h-3.136l-5.6-7.336h-1.036v7.336Z" transform="translate(-23.557 -26.453)"/>
    <path class="cls-1" d="M143.688,199.084q0,2.211-2.3,2.212h-.308l-.308-.056v-1.008a1.007,1.007,0,0,0,.616-.168.8.8,0,0,0,.252-.672v-.616h-.308a.709.709,0,0,1-.5-.182.671.671,0,0,1-.2-.518v-1.764q0-.756.7-.756h1.68q.672,0,.672.756Z" transform="translate(-23.557 -26.453)"/>
    <path class="cls-1" d="M154.215,181.556v-1.764q0-.728.672-.728h1.82a.575.575,0,0,1,.476.21.8.8,0,0,1,.168.518v1.764a.569.569,0,0,1-.644.644h-1.82a.66.66,0,0,1-.49-.182A.626.626,0,0,1,154.215,181.556Zm.224,17.22V183.908h2.576v14.868Z" transform="translate(-23.557 -26.453)"/>
    <path class="cls-1" d="M172.471,187.548v11.228H169.9V188.612a2.572,2.572,0,0,0-.644-1.834,2.134,2.134,0,0,0-1.624-.686,7.655,7.655,0,0,0-1.792.2,8.377,8.377,0,0,0-1.358.434q-.546.239-1.694.854v11.2h-2.576V183.908h1.932l.644,1.736q.168-.084.476-.28l.462-.294q.154-.1.448-.266c.2-.112.354-.2.476-.252s.275-.13.462-.224a3.5,3.5,0,0,1,.5-.21l.5-.154q.28-.084.56-.14a10.793,10.793,0,0,1,1.386-.084,5.842,5.842,0,0,1,1.554.224,3.63,3.63,0,0,1,2.324,1.876,9.12,9.12,0,0,1,5.824-2.1,4.255,4.255,0,0,1,3.29,1.358,5.038,5.038,0,0,1,1.246,3.542v10.136h-2.576V188.612a2.357,2.357,0,0,0-1.092-2.212,3.244,3.244,0,0,0-1.624-.308A7.893,7.893,0,0,0,172.471,187.548Z" transform="translate(-23.557 -26.453)"/>
    <path class="cls-1" d="M190.418,184.216a10.162,10.162,0,0,1,2.66-.476,4.141,4.141,0,0,1,1.876.434,3.939,3.939,0,0,1,1.4,1.134,5.87,5.87,0,0,1,.868,1.708,11.531,11.531,0,0,1,.588,3.668q0,1.9-.1,2.926a11.145,11.145,0,0,1-.406,2.072,5.372,5.372,0,0,1-.84,1.75A4.127,4.127,0,0,1,192.938,199a13.756,13.756,0,0,1-2.548-.294,15.388,15.388,0,0,1-2.716-.77v8.4h-2.52V183.908h1.96l.588,1.6A8.179,8.179,0,0,1,190.418,184.216Zm2.24,12.432a2.3,2.3,0,0,0,1.4-.392q1.176-.924,1.176-4.928,0-5.18-2.576-5.18a11.949,11.949,0,0,0-4.956,1.2v8.624A18.355,18.355,0,0,0,192.658,196.648Z" transform="translate(-23.557 -26.453)"/>
    <path class="cls-1" d="M205.006,184.692a9.65,9.65,0,0,1,1.512-.63,6.812,6.812,0,0,1,2.184-.322,4.472,4.472,0,0,1,1.708.224v2.52a12.325,12.325,0,0,0-2.156-.14,7.852,7.852,0,0,0-2.478.35,12.566,12.566,0,0,0-2.534,1.274v10.808h-2.576V183.908h1.96l.616,1.876.644-.42Q204.446,185,205.006,184.692Z" transform="translate(-23.557 -26.453)"/>
    <path class="cls-1" d="M211.7,191.552a13.707,13.707,0,0,1,.644-4.732,4.145,4.145,0,0,1,2.044-2.366,9.084,9.084,0,0,1,3.92-.686q3.78,0,5.194,1.68t1.414,5.978q0,4.3-1.414,5.894t-5.166,1.6q-3.753,0-5.194-1.652T211.7,191.552Zm2.982-3.64a5.683,5.683,0,0,0-.322,1.5q-.084.883-.084,2.086a17.891,17.891,0,0,0,.1,2.044,4.6,4.6,0,0,0,.35,1.386,3.376,3.376,0,0,0,.546.868,1.836,1.836,0,0,0,.826.49,5.908,5.908,0,0,0,1.988.266,17.014,17.014,0,0,0,1.736-.084,3.492,3.492,0,0,0,1.106-.336,1.772,1.772,0,0,0,.826-.826,9.007,9.007,0,0,0,.588-3.752,11.841,11.841,0,0,0-.308-3.4,4.921,4.921,0,0,0-.574-1.176,1.724,1.724,0,0,0-.77-.546,5.5,5.5,0,0,0-1.988-.308q-1.2,0-1.708.056a4.62,4.62,0,0,0-1.022.238,1.632,1.632,0,0,0-.784.532A4.009,4.009,0,0,0,214.68,187.913Z" transform="translate(-23.557 -26.453)"/>
    <path class="cls-1" d="M225.895,183.908h2.772l4.284,11.4,4.34-11.4h2.772l-5.8,14.868H231.55Z" transform="translate(-23.557 -26.453)"/>
    <path class="cls-1" d="M241.967,186.428a4.821,4.821,0,0,1,.84-1.358,3.079,3.079,0,0,1,1.26-.8,11.671,11.671,0,0,1,3.752-.476,9.387,9.387,0,0,1,3.864.532,3.091,3.091,0,0,1,1.484,1.568,8.626,8.626,0,0,1,.5,3.22q0,3.5-3.92,3.5H243.9a5.548,5.548,0,0,0,.616,3.164,2.787,2.787,0,0,0,2.3.784,48.208,48.208,0,0,0,6.58-.308v1.876a25.691,25.691,0,0,1-7.168.784q-2.828,0-3.864-1.652t-1.036-5.488A15.258,15.258,0,0,1,241.967,186.428Zm9.128,2.632a8.426,8.426,0,0,0-.112-1.6,1.489,1.489,0,0,0-.49-.854,1.83,1.83,0,0,0-.938-.406,10.04,10.04,0,0,0-1.442-.084q-.882,0-1.218.014t-.826.07a2.681,2.681,0,0,0-.714.154,3.376,3.376,0,0,0-.532.308,1.148,1.148,0,0,0-.434.518q-.126.308-.266.756a9.067,9.067,0,0,0-.224,2.408h5.572Q251.094,190.348,251.095,189.061Z" transform="translate(-23.557 -26.453)"/>
    <path class="cls-1" d="M256.022,191.413q0-4.424,1.344-6.188a4.159,4.159,0,0,1,3.528-1.54,11.882,11.882,0,0,1,2.94.378,17.8,17.8,0,0,1,2.3.714V176.8h2.548v21.98h-1.96l-.588-1.624a9.642,9.642,0,0,1-2.352,1.176,8.261,8.261,0,0,1-2.884.616Q256.022,198.944,256.022,191.413Zm2.576-.028q0,5.153,2.576,5.152a12.085,12.085,0,0,0,4.956-1.2v-8.624a18.543,18.543,0,0,0-4.956-.672,2.3,2.3,0,0,0-1.4.392Q258.6,187.353,258.6,191.384Z" transform="translate(-23.557 -26.453)"/>
    <path class="cls-1" d="M278.534,191.552a13.707,13.707,0,0,1,.644-4.732,4.145,4.145,0,0,1,2.044-2.366,9.084,9.084,0,0,1,3.92-.686q3.78,0,5.194,1.68t1.414,5.978q0,4.3-1.414,5.894t-5.166,1.6q-3.753,0-5.194-1.652T278.534,191.552Zm2.982-3.64a5.683,5.683,0,0,0-.322,1.5q-.084.883-.084,2.086a17.891,17.891,0,0,0,.1,2.044,4.6,4.6,0,0,0,.35,1.386,3.376,3.376,0,0,0,.546.868,1.836,1.836,0,0,0,.826.49,5.908,5.908,0,0,0,1.988.266,17.014,17.014,0,0,0,1.736-.084,3.492,3.492,0,0,0,1.106-.336,1.772,1.772,0,0,0,.826-.826,9.007,9.007,0,0,0,.588-3.752,11.841,11.841,0,0,0-.308-3.4,4.921,4.921,0,0,0-.574-1.176,1.724,1.724,0,0,0-.77-.546,5.5,5.5,0,0,0-1.988-.308q-1.2,0-1.708.056a4.62,4.62,0,0,0-1.022.238,1.632,1.632,0,0,0-.784.532A4.009,4.009,0,0,0,281.516,187.913Z" transform="translate(-23.557 -26.453)"/>
    <path class="cls-1" d="M294.606,198.776V183.908h1.932l.644,1.708q.084-.056.462-.294t.49-.294q.111-.056.462-.266a4.241,4.241,0,0,1,.49-.266q.14-.056.476-.224a3.335,3.335,0,0,1,.532-.224q.2-.056.518-.154a3.135,3.135,0,0,1,.6-.126,8.448,8.448,0,0,1,1.26-.112,4.124,4.124,0,0,1,3.36,1.414,5.228,5.228,0,0,1,1.176,3.458v10.248h-2.576V188.528a2.212,2.212,0,0,0-1.372-2.352,3.825,3.825,0,0,0-1.358-.168,5.735,5.735,0,0,0-1.918.336,23.335,23.335,0,0,0-2.6,1.176v11.256Z" transform="translate(-23.557 -26.453)"/>
    <path class="cls-1" d="M312.386,176.8v7.98a13.889,13.889,0,0,1,2.716-.8,13.454,13.454,0,0,1,2.464-.294,5.6,5.6,0,0,1,1.666.224,4.026,4.026,0,0,1,1.218.6,3.766,3.766,0,0,1,.882.952,5.62,5.62,0,0,1,.6,1.2,8.744,8.744,0,0,1,.364,1.47,20.654,20.654,0,0,1,.224,3.276q0,7.532-4.872,7.532a8.264,8.264,0,0,1-2.884-.616,9.628,9.628,0,0,1-2.352-1.176l-.588,1.624h-1.96V176.8Zm4.984,19.74q2.576,0,2.576-5.152a9.347,9.347,0,0,0-.672-4.312,2.1,2.1,0,0,0-1.9-1.036,18.542,18.542,0,0,0-4.956.672v8.624A12.082,12.082,0,0,0,317.37,196.536Z" transform="translate(-23.557 -26.453)"/>
    <path class="cls-1" d="M324.846,191.552a13.707,13.707,0,0,1,.644-4.732,4.145,4.145,0,0,1,2.044-2.366,9.084,9.084,0,0,1,3.92-.686q3.78,0,5.194,1.68t1.414,5.978q0,4.3-1.414,5.894t-5.166,1.6q-3.753,0-5.194-1.652T324.846,191.552Zm2.982-3.64a5.683,5.683,0,0,0-.322,1.5q-.084.883-.084,2.086a17.891,17.891,0,0,0,.1,2.044,4.6,4.6,0,0,0,.35,1.386,3.376,3.376,0,0,0,.546.868,1.836,1.836,0,0,0,.826.49,5.908,5.908,0,0,0,1.988.266,17.014,17.014,0,0,0,1.736-.084,3.492,3.492,0,0,0,1.106-.336,1.772,1.772,0,0,0,.826-.826,9.007,9.007,0,0,0,.588-3.752,11.841,11.841,0,0,0-.308-3.4,4.921,4.921,0,0,0-.574-1.176,1.724,1.724,0,0,0-.77-.546,5.5,5.5,0,0,0-1.988-.308q-1.2,0-1.708.056a4.62,4.62,0,0,0-1.022.238,1.632,1.632,0,0,0-.784.532A4.009,4.009,0,0,0,327.828,187.913Z" transform="translate(-23.557 -26.453)"/>
    <path class="cls-1" d="M340.862,184.524a24.555,24.555,0,0,1,7.224-.9,4.15,4.15,0,0,1,3.864,1.848,5.03,5.03,0,0,1,.616,2.6v10.7h-1.96l-.616-1.736a7.49,7.49,0,0,1-.924.518,16.329,16.329,0,0,1-2.268.91,8.112,8.112,0,0,1-2.52.476,3.891,3.891,0,0,1-2.814-1.036,3.629,3.629,0,0,1-1.078-2.744v-1.624a3.576,3.576,0,0,1,3.892-3.808h5.712q.027-.812.028-1.218c0-.27,0-.49-.014-.658a3.1,3.1,0,0,0-.112-.616,1.884,1.884,0,0,0-.28-.616,1.265,1.265,0,0,0-.462-.392,2.471,2.471,0,0,0-1.372-.28q-2.3,0-6.916.308Zm2.1,10.388q0,1.679,1.6,1.68a9.421,9.421,0,0,0,2.282-.35,22.648,22.648,0,0,0,2.254-.686l.9-.336v-3.64l-5.488.392a1.536,1.536,0,0,0-1.54,1.736Z" transform="translate(-23.557 -26.453)"/>
    <path class="cls-1" d="M359.789,184.692a9.65,9.65,0,0,1,1.512-.63,6.82,6.82,0,0,1,2.185-.322,4.474,4.474,0,0,1,1.708.224v2.52a12.329,12.329,0,0,0-2.156-.14,7.857,7.857,0,0,0-2.478.35,12.566,12.566,0,0,0-2.534,1.274v10.808h-2.576V183.908h1.96l.616,1.876.645-.42Q359.229,185,359.789,184.692Z" transform="translate(-23.557 -26.453)"/>
    <path class="cls-1" d="M366.48,191.413q0-4.424,1.345-6.188a4.16,4.16,0,0,1,3.528-1.54,11.884,11.884,0,0,1,2.939.378,17.827,17.827,0,0,1,2.3.714V176.8h2.548v21.98h-1.959l-.589-1.624a9.638,9.638,0,0,1-2.353,1.176,8.254,8.254,0,0,1-2.883.616Q366.481,198.944,366.48,191.413Zm2.576-.028q0,5.153,2.576,5.152a12.084,12.084,0,0,0,4.956-1.2v-8.624a18.546,18.546,0,0,0-4.956-.672,2.309,2.309,0,0,0-1.4.392Q369.058,187.353,369.057,191.384Z" transform="translate(-23.557 -26.453)"/>
    <path class="cls-1" d="M381.992,181.556v-1.764q0-.728.672-.728h1.82a.576.576,0,0,1,.477.21.808.808,0,0,1,.168.518v1.764a.569.569,0,0,1-.645.644h-1.82a.659.659,0,0,1-.489-.182A.624.624,0,0,1,381.992,181.556Zm.225,17.22V183.908h2.576v14.868Z" transform="translate(-23.557 -26.453)"/>
    <path class="cls-1" d="M387.984,198.776V183.908h1.932l.645,1.708c.057-.037.21-.135.462-.294s.415-.256.49-.294.228-.126.462-.266a4.154,4.154,0,0,1,.49-.266c.093-.038.252-.112.476-.224a3.316,3.316,0,0,1,.532-.224c.131-.037.3-.088.518-.154a3.158,3.158,0,0,1,.6-.126,8.47,8.47,0,0,1,1.261-.112,4.126,4.126,0,0,1,3.36,1.414,5.233,5.233,0,0,1,1.176,3.458v10.248h-2.576V188.528a2.211,2.211,0,0,0-1.372-2.352,3.827,3.827,0,0,0-1.358-.168,5.739,5.739,0,0,0-1.918.336,23.375,23.375,0,0,0-2.6,1.176v11.256Z" transform="translate(-23.557 -26.453)"/>
    <path class="cls-1" d="M402.936,195.64a2.886,2.886,0,0,1,.421-1.512,1.9,1.9,0,0,1,1.231-.9q-1.623-1.036-1.623-3.878a5.82,5.82,0,0,1,1.287-4.172,4.836,4.836,0,0,1,3.641-1.33h8.82v1.764l-2.1.5q.028.056.2.364a4.041,4.041,0,0,1,.224.462q.056.155.168.518a5.356,5.356,0,0,1,.2,1.54,10.238,10.238,0,0,1-.1,1.526,6.351,6.351,0,0,1-.406,1.386,4.686,4.686,0,0,1-.812,1.33,3.932,3.932,0,0,1-1.386.966,4.948,4.948,0,0,1-2.03.392h-4.115q-1.148,0-1.148.784,0,.9,1.148.9h5.571a3.709,3.709,0,0,1,2.828,1.064,4.1,4.1,0,0,1,1.008,2.94v1.736q0,3.164-2.491,4.032a5.506,5.506,0,0,1-1.849.28h-4.2a4.165,4.165,0,0,1-3.92-1.9,4.606,4.606,0,0,1-.588-2.408v-2.24l1.148-1.708A2.725,2.725,0,0,1,402.936,195.64Zm3.781,3.024a3.551,3.551,0,0,1-1.232-.2v3.416q0,1.372.756,1.764a3.056,3.056,0,0,0,1.484.336h3.668a1.888,1.888,0,0,0,1.554-.546,2.4,2.4,0,0,0,.435-1.526v-1.484a2.018,2.018,0,0,0-.365-1.358,1.9,1.9,0,0,0-1.428-.406Zm1.2-6.412h2.408a2.292,2.292,0,0,0,2.408-2.072,3.556,3.556,0,0,0,.084-.672,4.326,4.326,0,0,0-.561-2.534,2.307,2.307,0,0,0-1.959-.742h-2.24q-2.52,0-2.521,3.01T407.92,192.252Z" transform="translate(-23.557 -26.453)"/>
    <path class="cls-1" d="M421.36,199.084q0,2.211-2.3,2.212h-.309l-.308-.056v-1.008a1.011,1.011,0,0,0,.616-.168.8.8,0,0,0,.252-.672v-.616h-.309a.711.711,0,0,1-.5-.182.671.671,0,0,1-.2-.518v-1.764q0-.756.7-.756h1.68q.674,0,.673.756Z" transform="translate(-23.557 -26.453)"/>
    <path class="cls-1" d="M432.084,184.524a24.562,24.562,0,0,1,7.225-.9,4.147,4.147,0,0,1,3.863,1.848,5.03,5.03,0,0,1,.616,2.6v10.7h-1.96l-.615-1.736a7.609,7.609,0,0,1-.925.518,16.279,16.279,0,0,1-2.268.91,8.11,8.11,0,0,1-2.521.476,3.892,3.892,0,0,1-2.814-1.036,3.628,3.628,0,0,1-1.077-2.744v-1.624a3.577,3.577,0,0,1,3.892-3.808h5.713q.026-.812.027-1.218c0-.27,0-.49-.014-.658a3.144,3.144,0,0,0-.112-.616,1.885,1.885,0,0,0-.28-.616,1.256,1.256,0,0,0-.462-.392,2.473,2.473,0,0,0-1.372-.28q-2.3,0-6.916.308Zm2.1,10.388q0,1.679,1.6,1.68a9.424,9.424,0,0,0,2.282-.35,22.689,22.689,0,0,0,2.254-.686l.9-.336v-3.64l-5.488.392a1.537,1.537,0,0,0-1.541,1.736Z" transform="translate(-23.557 -26.453)"/>
    <path class="cls-1" d="M446.672,198.776V183.908H448.6l.645,1.708c.057-.037.21-.135.462-.294s.415-.256.49-.294.228-.126.462-.266a4.154,4.154,0,0,1,.49-.266c.093-.038.252-.112.476-.224a3.316,3.316,0,0,1,.532-.224c.131-.037.3-.088.518-.154a3.158,3.158,0,0,1,.6-.126,8.47,8.47,0,0,1,1.261-.112,4.126,4.126,0,0,1,3.36,1.414,5.233,5.233,0,0,1,1.176,3.458v10.248H456.5V188.528a2.211,2.211,0,0,0-1.372-2.352,3.827,3.827,0,0,0-1.358-.168,5.739,5.739,0,0,0-1.918.336,23.375,23.375,0,0,0-2.6,1.176v11.256Z" transform="translate(-23.557 -26.453)"/>
    <path class="cls-1" d="M461.4,191.413q0-4.424,1.344-6.188a4.158,4.158,0,0,1,3.527-1.54,11.88,11.88,0,0,1,2.94.378,17.777,17.777,0,0,1,2.3.714V176.8h2.549v21.98H472.1l-.588-1.624a9.647,9.647,0,0,1-2.352,1.176,8.268,8.268,0,0,1-2.885.616Q461.4,198.944,461.4,191.413Zm2.576-.028q0,5.153,2.575,5.152a12.087,12.087,0,0,0,4.956-1.2v-8.624a18.541,18.541,0,0,0-4.956-.672,2.3,2.3,0,0,0-1.4.392Q463.976,187.353,463.977,191.384Z" transform="translate(-23.557 -26.453)"/>
    <path class="cls-1" d="M484.164,193.484V176.853h2.576v16.464a4.916,4.916,0,0,0,.377,2.3,1.774,1.774,0,0,0,1.135.84q2.127.588,2.324.588v1.736h-2.66Q484.163,198.776,484.164,193.484Z" transform="translate(-23.557 -26.453)"/>
    <path class="cls-1" d="M492.4,181.556v-1.764q0-.728.672-.728h1.82a.573.573,0,0,1,.476.21.8.8,0,0,1,.168.518v1.764a.569.569,0,0,1-.644.644h-1.82a.658.658,0,0,1-.489-.182A.624.624,0,0,1,492.4,181.556Zm.224,17.22V183.908H495.2v14.868Z" transform="translate(-23.557 -26.453)"/>
    <path class="cls-1" d="M497.352,183.908h2.771l4.284,11.4,4.341-11.4h2.771l-5.8,14.868h-2.715Z" transform="translate(-23.557 -26.453)"/>
    <path class="cls-1" d="M513.424,186.428a4.821,4.821,0,0,1,.84-1.358,3.08,3.08,0,0,1,1.26-.8,11.673,11.673,0,0,1,3.752-.476,9.388,9.388,0,0,1,3.864.532,3.093,3.093,0,0,1,1.484,1.568,8.626,8.626,0,0,1,.5,3.22q0,3.5-3.92,3.5h-5.853a5.543,5.543,0,0,0,.616,3.164,2.788,2.788,0,0,0,2.3.784,48.212,48.212,0,0,0,6.58-.308v1.876a25.688,25.688,0,0,1-7.168.784q-2.827,0-3.863-1.652t-1.037-5.488A15.255,15.255,0,0,1,513.424,186.428Zm9.128,2.632a8.418,8.418,0,0,0-.112-1.6,1.486,1.486,0,0,0-.49-.854,1.83,1.83,0,0,0-.937-.406,10.028,10.028,0,0,0-1.441-.084q-.882,0-1.219.014c-.224.01-.5.033-.826.07a2.672,2.672,0,0,0-.713.154,3.358,3.358,0,0,0-.533.308,1.15,1.15,0,0,0-.434.518q-.126.308-.266.756a9.041,9.041,0,0,0-.225,2.408h5.572Q522.551,190.348,522.552,189.061Z" transform="translate(-23.557 -26.453)"/>
    <path class="cls-1" d="M526.724,191.86v-2.408h8.792v2.408Z" transform="translate(-23.557 -26.453)"/>
    <path class="cls-1" d="M537.391,191.413q0-4.424,1.345-6.188a4.16,4.16,0,0,1,3.528-1.54,11.884,11.884,0,0,1,2.939.378,17.827,17.827,0,0,1,2.3.714V176.8h2.548v21.98h-1.959l-.589-1.624a9.638,9.638,0,0,1-2.353,1.176,8.254,8.254,0,0,1-2.883.616Q537.392,198.944,537.391,191.413Zm2.576-.028q0,5.153,2.576,5.152a12.084,12.084,0,0,0,4.956-1.2v-8.624a18.546,18.546,0,0,0-4.956-.672,2.309,2.309,0,0,0-1.4.392Q539.968,187.353,539.967,191.384Z" transform="translate(-23.557 -26.453)"/>
    <path class="cls-1" d="M553.1,184.524a24.548,24.548,0,0,1,7.223-.9,4.152,4.152,0,0,1,3.865,1.848,5.03,5.03,0,0,1,.615,2.6v10.7h-1.96l-.616-1.736a7.374,7.374,0,0,1-.924.518,16.38,16.38,0,0,1-2.268.91,8.114,8.114,0,0,1-2.52.476,3.89,3.89,0,0,1-2.814-1.036,3.629,3.629,0,0,1-1.078-2.744v-1.624a3.785,3.785,0,0,1,1.021-2.758,3.824,3.824,0,0,1,2.871-1.05h5.711q.028-.812.028-1.218c0-.27,0-.49-.015-.658a3.062,3.062,0,0,0-.111-.616,1.884,1.884,0,0,0-.279-.616,1.274,1.274,0,0,0-.463-.392,2.469,2.469,0,0,0-1.371-.28q-2.3,0-6.916.308Zm2.1,10.388q0,1.679,1.6,1.68a9.418,9.418,0,0,0,2.282-.35,22.608,22.608,0,0,0,2.254-.686l.9-.336v-3.64l-5.488.392a1.536,1.536,0,0,0-1.539,1.736Z" transform="translate(-23.557 -26.453)"/>
    <path class="cls-1" d="M571.887,179.736v4.144h4.061V186.2h-4.061v7.084a4.913,4.913,0,0,0,.378,2.3,1.772,1.772,0,0,0,1.134.84q2.127.588,2.324.588v1.736h-2.716q-3.7,0-3.7-5.292V186.2h-2.66v-1.736l2.66-.588.561-4.144Z" transform="translate(-23.557 -26.453)"/>
    <path class="cls-1" d="M578.242,184.524a24.562,24.562,0,0,1,7.225-.9,4.147,4.147,0,0,1,3.863,1.848,5.03,5.03,0,0,1,.616,2.6v10.7h-1.96l-.615-1.736a7.609,7.609,0,0,1-.925.518,16.279,16.279,0,0,1-2.268.91,8.11,8.11,0,0,1-2.521.476,3.892,3.892,0,0,1-2.814-1.036,3.628,3.628,0,0,1-1.077-2.744v-1.624a3.577,3.577,0,0,1,3.892-3.808h5.713q.026-.812.027-1.218c0-.27,0-.49-.014-.658a3.144,3.144,0,0,0-.112-.616,1.885,1.885,0,0,0-.28-.616,1.256,1.256,0,0,0-.462-.392,2.473,2.473,0,0,0-1.372-.28q-2.3,0-6.916.308Zm2.1,10.388q0,1.679,1.6,1.68a9.424,9.424,0,0,0,2.282-.35,22.689,22.689,0,0,0,2.254-.686l.9-.336v-3.64l-5.488.392a1.537,1.537,0,0,0-1.541,1.736Z" transform="translate(-23.557 -26.453)"/>
    <path class="cls-1" d="M31.465,218.292a9.649,9.649,0,0,1,1.512-.63,6.812,6.812,0,0,1,2.184-.322,4.472,4.472,0,0,1,1.708.224v2.52a12.325,12.325,0,0,0-2.156-.14,7.852,7.852,0,0,0-2.478.35,12.566,12.566,0,0,0-2.534,1.274v10.808H27.125V217.508h1.96l.616,1.876.644-.42Q30.9,218.6,31.465,218.292Z" transform="translate(-23.557 -26.453)"/>
    <path class="cls-1" d="M38.8,220.028a4.821,4.821,0,0,1,.84-1.358,3.079,3.079,0,0,1,1.26-.8,11.671,11.671,0,0,1,3.752-.476,9.387,9.387,0,0,1,3.864.532A3.091,3.091,0,0,1,50,219.5a8.626,8.626,0,0,1,.5,3.22q0,3.5-3.92,3.5H40.733a5.548,5.548,0,0,0,.616,3.164,2.787,2.787,0,0,0,2.3.784,48.208,48.208,0,0,0,6.58-.308v1.876a25.691,25.691,0,0,1-7.168.784q-2.828,0-3.864-1.652t-1.036-5.488A15.258,15.258,0,0,1,38.8,220.028Zm9.128,2.632a8.426,8.426,0,0,0-.112-1.6,1.489,1.489,0,0,0-.49-.854,1.83,1.83,0,0,0-.938-.406,10.04,10.04,0,0,0-1.442-.084q-.882,0-1.218.014t-.826.07a2.681,2.681,0,0,0-.714.154,3.376,3.376,0,0,0-.532.308,1.148,1.148,0,0,0-.434.518q-.126.308-.266.756a9.067,9.067,0,0,0-.224,2.408h5.572Q47.929,223.948,47.929,222.661Z" transform="translate(-23.557 -26.453)"/>
    <path class="cls-1" d="M58.373,217.816a10.162,10.162,0,0,1,2.66-.476,4.141,4.141,0,0,1,1.876.434,3.939,3.939,0,0,1,1.4,1.134,5.87,5.87,0,0,1,.868,1.708,11.531,11.531,0,0,1,.588,3.668q0,1.9-.1,2.926a11.145,11.145,0,0,1-.406,2.072,5.372,5.372,0,0,1-.84,1.75,4.127,4.127,0,0,1-3.528,1.568,13.756,13.756,0,0,1-2.548-.294,15.388,15.388,0,0,1-2.716-.77v8.4h-2.52V217.508h1.96l.588,1.6A8.179,8.179,0,0,1,58.373,217.816Zm2.24,12.432a2.3,2.3,0,0,0,1.4-.392q1.176-.924,1.176-4.928,0-5.18-2.576-5.18a11.949,11.949,0,0,0-4.956,1.2v8.624A18.355,18.355,0,0,0,60.613,230.249Z" transform="translate(-23.557 -26.453)"/>
    <path class="cls-1" d="M68.089,225.152a13.707,13.707,0,0,1,.644-4.732,4.145,4.145,0,0,1,2.044-2.366,9.084,9.084,0,0,1,3.92-.686q3.78,0,5.194,1.68t1.414,5.978q0,4.3-1.414,5.894t-5.166,1.6q-3.753,0-5.194-1.652T68.089,225.152Zm2.982-3.64a5.683,5.683,0,0,0-.322,1.5q-.084.883-.084,2.086a17.891,17.891,0,0,0,.1,2.044,4.6,4.6,0,0,0,.35,1.386,3.376,3.376,0,0,0,.546.868,1.836,1.836,0,0,0,.826.49,5.908,5.908,0,0,0,1.988.266,17.014,17.014,0,0,0,1.736-.084,3.492,3.492,0,0,0,1.106-.336,1.772,1.772,0,0,0,.826-.826,9.007,9.007,0,0,0,.588-3.752,11.841,11.841,0,0,0-.308-3.4,4.921,4.921,0,0,0-.574-1.176,1.724,1.724,0,0,0-.77-.546,5.5,5.5,0,0,0-1.988-.308q-1.2,0-1.708.056a4.62,4.62,0,0,0-1.022.238,1.632,1.632,0,0,0-.784.532A4.009,4.009,0,0,0,71.071,221.513Z" transform="translate(-23.557 -26.453)"/>
    <path class="cls-1" d="M88.5,218.292a9.649,9.649,0,0,1,1.512-.63,6.812,6.812,0,0,1,2.184-.322,4.472,4.472,0,0,1,1.708.224v2.52a12.325,12.325,0,0,0-2.156-.14,7.852,7.852,0,0,0-2.478.35,12.566,12.566,0,0,0-2.534,1.274v10.808H84.161V217.508h1.96l.616,1.876.644-.42Q87.94,218.6,88.5,218.292Z" transform="translate(-23.557 -26.453)"/>
    <path class="cls-1" d="M100.2,213.336v4.144h4.06V219.8H100.2v7.084a4.913,4.913,0,0,0,.378,2.3,1.772,1.772,0,0,0,1.134.84q2.128.588,2.324.588v1.736h-2.716q-3.7,0-3.7-5.292V219.8h-2.66v-1.736l2.66-.588.56-4.144Z" transform="translate(-23.557 -26.453)"/>
    <path class="cls-1" d="M106.364,215.156v-1.764q0-.728.672-.728h1.82a.575.575,0,0,1,.476.21.8.8,0,0,1,.168.518v1.764a.569.569,0,0,1-.644.644h-1.82a.66.66,0,0,1-.49-.182A.626.626,0,0,1,106.364,215.156Zm.224,17.22V217.508h2.576v14.868Z" transform="translate(-23.557 -26.453)"/>
    <path class="cls-1" d="M112.356,232.376V217.508h1.932l.644,1.708q.084-.056.462-.294t.49-.294q.111-.056.462-.266a4.241,4.241,0,0,1,.49-.266q.14-.056.476-.224a3.335,3.335,0,0,1,.532-.224q.2-.056.518-.154a3.135,3.135,0,0,1,.6-.126,8.448,8.448,0,0,1,1.26-.112,4.124,4.124,0,0,1,3.36,1.414,5.228,5.228,0,0,1,1.176,3.458v10.248h-2.576V222.128a2.212,2.212,0,0,0-1.372-2.352,3.825,3.825,0,0,0-1.358-.168,5.735,5.735,0,0,0-1.918.336,23.335,23.335,0,0,0-2.6,1.176v11.256Z" transform="translate(-23.557 -26.453)"/>
    <path class="cls-1" d="M127.308,229.24a2.885,2.885,0,0,1,.42-1.512,1.9,1.9,0,0,1,1.232-.9q-1.625-1.036-1.624-3.878a5.817,5.817,0,0,1,1.288-4.172,4.833,4.833,0,0,1,3.64-1.33h8.82v1.764l-2.1.5q.028.056.2.364a3.823,3.823,0,0,1,.224.462q.056.155.168.518a5.339,5.339,0,0,1,.2,1.54,10.166,10.166,0,0,1-.1,1.526,6.3,6.3,0,0,1-.406,1.386,4.663,4.663,0,0,1-.812,1.33,3.932,3.932,0,0,1-1.386.966,4.948,4.948,0,0,1-2.03.392H130.92q-1.148,0-1.148.784,0,.9,1.148.9h5.572a3.71,3.71,0,0,1,2.828,1.064,4.1,4.1,0,0,1,1.008,2.94v1.736q0,3.164-2.492,4.032a5.5,5.5,0,0,1-1.848.28h-4.2a4.167,4.167,0,0,1-3.92-1.9,4.606,4.606,0,0,1-.588-2.408v-2.24l1.148-1.708A2.726,2.726,0,0,1,127.308,229.24Zm3.78,3.024a3.548,3.548,0,0,1-1.232-.2v3.416q0,1.372.756,1.764a3.056,3.056,0,0,0,1.484.336h3.668a1.888,1.888,0,0,0,1.554-.546,2.4,2.4,0,0,0,.434-1.526v-1.484a2.021,2.021,0,0,0-.364-1.358,1.9,1.9,0,0,0-1.428-.406Zm1.2-6.412H134.7a2.292,2.292,0,0,0,2.408-2.072,3.6,3.6,0,0,0,.084-.672,4.326,4.326,0,0,0-.56-2.534,2.309,2.309,0,0,0-1.96-.742h-2.24q-2.52,0-2.52,3.01T132.292,225.853Z" transform="translate(-23.557 -26.453)"/>
  </g>
</svg>
